<svg fill="none" height="12" viewBox="0 0 16 12" width="16" xmlns="http://www.w3.org/2000/svg"><path d="m6.7 11.2748c.2-.2.296-.4417.288-.725s-.11234-.525-.313-.725l-2.825-2.825h11.15c.2833 0 .521-.096.713-.288s.2877-.42933.287-.712c0-.28333-.096-.521-.288-.713s-.4293-.28766-.712-.287h-11.15l2.85-2.85c.2-.2.3-.43766.3-.713 0-.27533-.1-.512662-.3-.711996-.2-.2-.43767-.299999-.713-.299999-.27534 0-.51267.099999-.712.299999l-4.575003 4.574996c-.1.1-.171001.20834-.213001.325-.042.11667-.062667.24167-.062001.375 0 .13334.021002.25834.063002.375.042.11667.112666.225.212.325l4.600003 4.6c.18333.1833.41233.275.687.275.27466 0 .51233-.1.713-.3z" fill="#fff"/></svg>