<svg width="19" height="21" viewBox="0 0 19 21" fill="none" xmlns="http://www.w3.org/2000/svg">
<path d="M3 17L8 12L9.88 13.88C9.33 14.79 9 15.86 9 17H3ZM6 8.5C6 7.67 5.33 7 4.5 7C3.67 7 3 7.67 3 8.5C3 9.33 3.67 10 4.5 10C5.33 10 6 9.33 6 8.5ZM9.09 18H2V2H9V7H14V11.09C14.33 11.04 14.66 11 15 11C15.34 11 15.67 11.04 16 11.09V6L10 0H2C1.46957 0 0.960859 0.210714 0.585786 0.585786C0.210714 0.960859 0 1.46957 0 2V18C0 19.11 0.89 20 2 20H9.81C9.46 19.39 9.21 18.72 9.09 18ZM14 13V16H11V18H14V21H16V18H19V16H16V13H14Z" fill="white"/>
</svg>
