<svg fill="none" height="24" viewBox="0 0 24 24" width="24" xmlns="http://www.w3.org/2000/svg"><path d="m15.5005 14h-.79l-.28-.27c.6249-.7261 1.0817-1.5813 1.3375-2.5044.2559-.9232.3045-1.89147.1425-2.83562-.47-2.78-2.79-5.00001-5.59-5.34001-.98442-.12453-1.98425-.02222-2.92301.29909-.93877.32132-1.79158.85313-2.4932 1.55475-.70161.70161-1.23342 1.55443-1.55474 2.49319s-.42362 1.93859-.29909 2.923c.34 2.8 2.56 5.12 5.34 5.59.94416.162 1.91244.1134 2.83564-.1425.9231-.2558 1.7783-.7126 2.5044-1.3375l.27.28v.79l4.25 4.25c.41.41 1.08.41 1.49 0s.41-1.08 0-1.49zm-6.00004 0c-2.49 0-4.5-2.01-4.5-4.50003 0-2.49 2.01-4.5 4.5-4.5 2.49004 0 4.50004 2.01 4.50004 4.5 0 2.49003-2.01 4.50003-4.50004 4.50003z" fill="#fff"/></svg>