<svg fill="none" height="24" viewBox="0 0 25 24" width="25" xmlns="http://www.w3.org/2000/svg"><path d="m11.5 17h2v-4h4v-2h-4v-4h-2v4h-4v2h4zm1 5c-1.3833 0-2.68333-.2627-3.9-.788s-2.275-1.2377-3.175-2.137c-.9-.9-1.61233-1.9583-2.137-3.175s-.78733-2.5167-.788-3.9c0-1.3833.26267-2.68333.788-3.9s1.23767-2.275 2.137-3.175c.9-.9 1.95833-1.61233 3.175-2.137s2.5167-.78733 3.9-.788c1.3833 0 2.6833.26267 3.9.788s2.275 1.23767 3.175 2.137c.9.9 1.6127 1.95833 2.138 3.175s.7877 2.5167.787 3.9c0 1.3833-.2627 2.6833-.788 3.9s-1.2377 2.275-2.137 3.175c-.9.9-1.9583 1.6127-3.175 2.138s-2.5167.7877-3.9.787z" fill="#fff"/></svg>