<svg fill="none" height="196" viewBox="0 0 259 196" width="259" xmlns="http://www.w3.org/2000/svg"><path d="m178.859 185.653h-4.693v.135h4.693z" fill="#ebebeb"/><path d="m59.8806 180.081h-3.4182v.135h3.4182z" fill="#ebebeb"/><path d="m183.438 86.7848c.785-.2714 1.631-.3135 2.439-.1214.807.1921 1.544.6104 2.122 1.206.579.5956.976 1.3438 1.144 2.1568.169.8131.102 1.6574-.192 2.434 2.366.0702 4.553 2.16 5.325 4.3686.385 1.1262.418 2.3427.096 3.4882-.322 1.146-.984 2.167-1.899 2.928s-2.039 1.226-3.225 1.334c-1.185.108-2.375-.147-3.412-.73-.727.812-1.633 1.443-2.646 1.844s-2.106.561-3.192.467c-1.13-.108-2.222-.467-3.196-1.05s-1.806-1.375-2.436-2.32c-1.122-.586-2.089-1.43-2.821-2.462-.732-1.0331-1.209-2.2248-1.391-3.4776-.167-.9004-.135-1.8262.093-2.713.227-.8869.645-1.7136 1.225-2.4224 1.215-1.3608 3.321-1.9602 4.962-1.161.14-.7194.426-1.4024.841-2.007.414-.6046.948-1.1179 1.568-1.5084 1.285-.7614 3.175-.675 4.595-.2538z" fill="#e6e6e6"/><path d="m155.812 48.9577c0-4.3794-2.511-5.8266-4.445-6.0912-3.169-.4266-5.432 1.9818-5.432 1.9818s-1.723-5.805-7.943-5.805c-6.221 0-8.138 6.3396-8.138 6.3396-1.717-1.1999-3.838-1.6752-5.902-1.323-2.447.4104-3.899 2.2086-5.471 4.914z" fill="#f5f5f5"/><path d="m227.67 185.74c-.113-.165-.162-.366-.138-.565.023-.198.118-.381.267-.515-.81-.454-2.808-.276-3.056-1.393-.124-.54.194-1.41-.362-1.545-.362-.086-.626.313-.864.6-.309.347-.728.577-1.187.649-.459.073-.929-.015-1.329-.25.102-.211.156-.442.16-.677s-.043-.468-.138-.682c-.095-.215-.236-.407-.412-.562s-.384-.269-.609-.336c-1.134-.281-1.388-.14-2.344-.799-.648-.443-.767-1.183-1.62-1.415-.626-.167-1.28.508-1.96.324-.821-.221-.794-.745-1.253-1.042-.621-.394-1.345.416-2.079.47s-1.231-.573-1.561-1.183c-.329-.61-.621-1.307-1.236-1.62-1.62-.821-2.274 1.08-3.327 1.717-.918.567-2.365.087-3.088.594-.119.081-1.005 1.285-.724 1.264-.739-.035-1.472-.136-2.192-.303-.74-.081-1.62.135-1.907.816-.286.68.081 1.377-.102 2.036-.767.075-1.896.691-2.63.226-.734-.464-.335-1.306-.767-1.809-1.49-1.717-1.026.044-2.619.168-.642.048-.837-.94-1.35-.951-1.08 0-.583 1.026-1.263 1.307-1.34.54-2.49-1.42-3.699.108-.648.81-.854 2.095-2.009 2.02-1.728-.114-1.291 3.267-3.958 3.175.415 0-1.48 2.495-1.664 2.646-.691.583-1.944.14-1.539 1.69.041.162.111.316.206.454.54.767 1.755.513 2.673.513h52.86s-1.204-2.857-1.339-3.057c-.41-.604-1.458-1.355-1.841-2.073z" fill="#e7a03f"/><path d="m222.016 190.854h-44.043c-.664 0-1.49.135-2.095-.092.104-.205.279-.366.491-.454.405-.167.897-.216 1.145-.572.249-.357.141-.745.238-1.118.057-.177.152-.339.279-.476.127-.136.282-.243.454-.313s.358-.101.544-.092.367.059.532.147c-.103-.682.015-1.378.335-1.988l.874 1.032 1.394-1.82c.081-.113.189-.232.329-.221.14.01.216.124.286.226l.54.837c.148-.112.269-.254.358-.417.088-.163.141-.343.155-.528.204.123.374.293.496.496.123.204.193.434.206.671.203-.186.461-.301.735-.33.496 0 1.436 2.268 1.938.54.07-.237.081-.486.13-.729.007-.079.043-.152.102-.205.13-.097.33 0 .47-.059.068-.052.123-.118.162-.195.104-.123.239-.215.391-.266.153-.051.316-.06.473-.025.313.076.608.211.87.399.015-.298.08-.592.194-.869.058-.136.149-.257.263-.351.115-.094.251-.159.396-.189.236-.003.471.032.696.103.114.035.234.04.35.013.116-.026.223-.083.309-.165.081-.102.108-.248.195-.351.044-.049.1-.088.163-.112.062-.023.13-.032.196-.025.067.008.13.031.186.068s.102.087.135.145c.437-.54 1.004-.281 1.566-.416.46-.154.896-.372 1.296-.648 1.361-.804 2.327-1.571 3.996-.939.037-.185.137-.351.283-.47s.328-.184.516-.184c.605 0 1.005.702 1.62.799.616.098 1.221-.313 1.62.071.114.102.178.253.297.356.346.286.961 0 1.275.34.313.34.145.735.437.929.718.481 1.166-.076 1.701.896.351.643.68 1.318 1.62.881.129-.079.269-.137.416-.173.475-.065.74.502 1.037.88.14.177.315.324.513.433.199.108.417.176.642.199.186-.004.37.033.54.108.54.329.054 1.442.637 1.733.265.13.665 0 .81.27.087.157 0 .351 0 .54-.018.225.029.451.134.65.105.2.265.366.46.479.397.217.831.357 1.28.41.243.043.54-.869.751-1.02.47-.373 1.344-.411 1.911-.54.063-.024.129-.033.196-.027.066.005.13.025.188.059.063.077.112.165.146.259.078.105.187.184.311.226.125.041.259.043.385.006.259-.054.497-.183.751-.237.182-.028.368-.018.546.029.178.048.344.132.488.247.143.116.261.26.347.423.085.163.135.343.147.527.081.072.17.136.265.189z" fill="#000" opacity=".3"/><path d="m214.423 183.747s-1.08-1.695-.367-2.16c.713-.464 1.021 1.701 1.021 1.701s.334-1.458 1.042-1.566c.707-.108.54 1.053-.276 1.95 0 0 1.394-.729 1.836-.389.443.34-.394 1.274-1.582 1.166 0 0 1.566.54 1.199 1.248-.367.707-1.015.172-1.728-.6 0 0 .508 1.383-.475 1.734s-.421-1.539-.421-1.539-.978 1.009-1.647.804c-.67-.205-.108-1.145 1.242-1.566 0 0-1.836.394-1.912-.54s1.139-.853 2.068-.243z" fill="#e7a03f"/><path d="m214.423 183.747s-1.08-1.695-.367-2.16c.713-.464 1.021 1.701 1.021 1.701s.334-1.458 1.042-1.566c.707-.108.54 1.053-.276 1.95 0 0 1.394-.729 1.836-.389.443.34-.394 1.274-1.582 1.166 0 0 1.566.54 1.199 1.248-.367.707-1.015.172-1.728-.6 0 0 .508 1.383-.475 1.734s-.421-1.539-.421-1.539-.978 1.009-1.647.804c-.67-.205-.108-1.145 1.242-1.566 0 0-1.836.394-1.912-.54s1.139-.853 2.068-.243z" fill="#fff" opacity=".5"/><path d="m214.952 183.774c.611-.329.891.621.324.886-.567.264-.896-.567-.324-.886z" fill="#e7a03f" opacity=".3"/><path d="m189 185.616s.081-.54.578-.54.54.734-.076.799c0 0 .702.032.616.502-.006.101-.043.198-.108.276-.064.079-.152.134-.251.159-.098.025-.202.017-.295-.021-.094-.039-.173-.106-.226-.193 0 0-.087.859-.794.627s-.108-.708-.108-.708-.707.357-.751-.367c-.043-.723.783-.281.783-.281s-.696-.604-.048-.853c.648-.248.68.6.68.6z" fill="#e7a03f"/><path d="m189 185.616s.081-.54.578-.54.54.734-.076.799c0 0 .702.032.616.502-.006.101-.043.198-.108.276-.064.079-.152.134-.251.159-.098.025-.202.017-.295-.021-.094-.039-.173-.106-.226-.193 0 0-.087.859-.794.627s-.108-.708-.108-.708-.707.357-.751-.367c-.043-.723.783-.281.783-.281s-.696-.604-.048-.853c.648-.248.68.6.68.6z" fill="#fff" opacity=".5"/><path d="m189.227 186.107c-.015.088-.06.169-.127.228-.068.059-.153.093-.243.096-.09.004-.177-.024-.249-.079-.071-.054-.122-.131-.143-.218.015-.088.06-.169.127-.228.068-.059.153-.093.243-.096s.177.024.249.079c.071.054.122.131.143.218z" fill="#e7a03f" opacity=".3"/><path d="m205.583 187.441s.092-.632.654-.632c.561 0 .615.826-.081.902 0 0 .783.032.686.54-.008.113-.052.221-.124.308-.073.088-.171.15-.282.178-.11.028-.226.021-.331-.021-.106-.042-.196-.116-.257-.211 0 0-.086.966-.891.702-.805-.265-.119-.794-.119-.794s-.799.405-.848-.416c-.048-.821.881-.319.881-.319s-.778-.68-.049-.955c.729-.276.761.718.761.718z" fill="#e7a03f"/><path d="m205.583 187.441s.092-.632.654-.632c.561 0 .615.826-.081.902 0 0 .783.032.686.54-.008.113-.052.221-.124.308-.073.088-.171.15-.282.178-.11.028-.226.021-.331-.021-.106-.042-.196-.116-.257-.211 0 0-.086.966-.891.702-.805-.265-.119-.794-.119-.794s-.799.405-.848-.416c-.048-.821.881-.319.881-.319s-.778-.68-.049-.955c.729-.276.761.718.761.718z" fill="#fff" opacity=".5"/><path d="m205.853 187.992c-.003.051-.016.101-.039.147-.023.045-.055.086-.093.12-.039.034-.084.059-.132.075-.049.017-.1.023-.151.019-.103.014-.206-.012-.289-.074-.083-.061-.138-.153-.154-.255.015-.101.065-.193.141-.26.076-.068.173-.107.275-.111.101-.004.201.028.282.09.081.061.138.15.16.249z" fill="#e7a03f" opacity=".3"/><path d="m199.406 183.412c.148-.074.318-.094.479-.057.162.038.306.131.406.263.297.469-.367.966-.804.415 0 0 .399.681-.103.886s-.993-.232-.745-.702c0 0-.864.448-1.08-.367-.216-.816.605-.54.605-.54s-.772-.454-.108-.934c.664-.481.745.567.745.567s.151-1.021.778-.54c.626.48-.173 1.009-.173 1.009z" fill="#e7a03f"/><path d="m199.406 183.412c.148-.074.318-.094.479-.057.162.038.306.131.406.263.297.469-.367.966-.804.415 0 0 .399.681-.103.886s-.993-.232-.745-.702c0 0-.864.448-1.08-.367-.216-.816.605-.54.605-.54s-.772-.454-.108-.934c.664-.481.745.567.745.567s.151-1.021.778-.54c.626.48-.173 1.009-.173 1.009z" fill="#fff" opacity=".5"/><path d="m199.087 183.92c-.061.069-.143.117-.233.137-.09.021-.184.012-.269-.023-.086-.036-.157-.098-.206-.177-.048-.078-.071-.17-.064-.262.006-.093.041-.18.1-.252.059-.071.139-.122.228-.145.089-.024.184-.019.27.013.087.033.161.092.212.169.064.078.095.177.088.278-.007.1-.052.194-.126.262z" fill="#e7a03f" opacity=".3"/><path d="m103.966 190.891c-.211 0-1.031-1.522-1.247-1.738-.335-.341-.837-.513-1.156-.848-.68-.713-.049-2.338-1.026-2.382-.502-.028-.9754-.246-1.3229-.61-.0114-.228-.0709-.451-.1746-.655-.1038-.203-.2494-.383-.4274-.526s-.3843-.247-.6054-.305c-.221-.058-.4518-.069-.6772-.031-.3186.07-.6102.232-.9288.297-.156.046-.3223.043-.4767-.008s-.2895-.148-.3873-.278c-.0648-.108-.0864-.243-.1836-.324-.0704-.042-.1492-.067-.2306-.073-.0813-.007-.1631.005-.2392.035-.6966.173-1.7766.216-2.3598.68-.2376.189-.6318 1.312-.9288 1.258-.5553-.065-1.0926-.237-1.5822-.507-.2416-.138-.439-.341-.5691-.587s-.1874-.524-.1653-.801c.0324-.221.135-.459 0-.659-.1782-.318-.675-.173-1.0044-.335-.7182-.356-.0972-1.733-.783-2.16-.2102-.087-.4365-.129-.6642-.124-.5618-.065-1.0756-.348-1.431-.788-.3672-.465-.6966-1.167-1.2852-1.08-.1809.046-.3539.118-.513.216-1.1826.54-1.5876-.297-2.025-1.08-.6588-1.199-1.2042-.513-2.1006-1.107-.3564-.238-.243-.832-.54-1.145-.3834-.405-1.1448-.07-1.5714-.427-.1458-.118-.2268-.307-.3672-.437-.5076-.475-1.3338.032-2.0142-.081s-1.2366-.967-1.9818-.994c-.2331 0-.4592.08-.6395.228s-.3036.354-.3487.582c-2.0574-.788-3.24.168-4.9356 1.156-.5003.342-1.0455.612-1.62.805-.6912.167-1.3986-.168-1.9332.513-.0433-.069-.1017-.128-.1708-.171s-.1471-.07-.2282-.079c-.081-.009-.163.001-.2398.028s-.1464.072-.2036.13c-.1026.129-.135.302-.243.432-.1053.102-.2363.173-.3789.206-.1426.034-.2916.028-.4311-.017-.2791-.089-.5711-.131-.864-.124-.18.037-.3483.117-.4903.234-.1421.117-.2536.266-.3251.435-.1393.344-.2196.709-.2376 1.08-.3261-.228-.6926-.393-1.08-.486-.1954-.047-.3999-.038-.5907.025s-.3603.178-.4893.332c-.0466.092-.113.173-.1944.237-.1782.097-.4212-.043-.5832.076-.0733.068-.1194.16-.1296.259-.0594.297-.0702.605-.1566.896-.621 2.16-1.7874-.653-2.3976-.658-.3374.036-.6547.178-.9072.405-.0078-.289-.0844-.571-.2234-.824-.139-.252-.3364-.468-.5758-.629-.0146.229-.0787.451-.1878.653-.109.201-.2605.376-.444.513l-.702-1.004c-.0864-.13-.1944-.27-.351-.281s-.3024.135-.405.27l-1.7226 2.252-1.08-1.269c-.3976.752-.5434 1.611-.4158 2.452-.203-.112-.4282-.177-.6593-.191-.2312-.014-.4626.023-.6778.108-.2152.086-.4087.218-.5669.387-.1581.17-.2769.372-.3478.592-.1242.459-.0324.988-.3024 1.382-.27.395-.9126.503-1.4094.702-.4968.2-.9396.854-.567 1.232-.304.052-.5894.182-.8287.377-.2392.195-.4244.448-.5375.735-.2143.579-.3275 1.191-.3348 1.809-1.296-.13-1.4688.772-1.917 1.831z" fill="#e7a03f"/><path d="m103.966 190.891h-65.0214c.4482-1.08.621-1.96 1.917-1.83.0073-.618.1205-1.23.3348-1.809.1131-.287.2982-.54.5375-.735s.5247-.325.8287-.378c-.3726-.378.0702-1.026.567-1.231.243-.097.54-.162.7668-.259.2554-.076.4802-.231.6426-.443.27-.394.1782-.923.3024-1.382.0704-.219.1877-.419.3438-.587s.3472-.3.5597-.387c.2126-.086.4415-.125.6707-.114.2292.012.4531.073.656.181-.1276-.841.0182-1.7.4158-2.452l1.08 1.269 1.7226-2.252c.1026-.135.2376-.286.405-.27s.2646.151.351.281l.6912 1.031c.1854-.136.339-.31.45-.512.1109-.201.1767-.425.1926-.654.2509.152.4612.362.6126.614.1515.251.2396.535.2568.828.2525-.227.5698-.369.9072-.405.6102 0 1.7766 2.802 2.3976.659.0864-.292.0972-.6.1566-.897.0102-.099.0563-.191.1296-.259.162-.119.405 0 .5832-.076.0814-.064.1477-.145.1944-.237.129-.154.2985-.269.4893-.332s.3953-.072.5907-.025c.3874.093.7538.258 1.08.486.018-.37.0983-.735.2376-1.08.0714-.169.183-.318.3251-.435.142-.117.3103-.197.4903-.234.2929-.007.5849.035.864.124.1395.045.2885.051.4311.017.1426-.033.2736-.104.3789-.206.108-.13.1404-.302.243-.432.0572-.058.1268-.103.2036-.13s.1588-.037.2398-.028c.0811.009.1591.036.2282.079s.1275.102.1708.171c.54-.681 1.242-.346 1.9332-.513.5745-.192 1.1197-.463 1.62-.805 1.674-.988 2.8782-1.944 4.9356-1.155.0451-.229.1684-.435.3487-.583s.4064-.228.6395-.227c.7452.027 1.242.869 1.9818.993s1.5066-.394 2.0142.081c.1404.13.2214.319.3672.438.4266.356 1.188 0 1.5714.426.297.313.1836.907.54 1.145.8964.594 1.4418-.092 2.1006 1.107.4374.794.8424 1.62 2.025 1.08.1591-.097.3321-.17.513-.216.5886-.081.918.621 1.2852 1.08.3554.44.8691.723 1.431.788.2276-.005.454.037.6642.125.6858.41.0648 1.787.783 2.16.3294.162.8262 0 1.0044.334.108.2 0 .438 0 .659-.0221.277.0352.555.1653.801s.3275.449.5691.587c.4896.27 1.0269.442 1.5822.508.297.054.6912-1.08.9288-1.259.5832-.464 1.6632-.507 2.3598-.68.076-.03.1578-.042.2392-.035.0814.006.1602.031.2306.073.0972.081.1188.216.1836.324.0978.13.2329.227.3873.278.1543.051.3206.054.4767.008.3186-.065.6102-.227.9288-.297.2254-.038.4562-.027.6772.031.2211.058.4274.162.6053.305.178.143.3237.323.4275.526.1037.204.1632.427.1746.655.3475.364.8208.583 1.3228.611.978.043.346 1.668 1.026 2.381.319.335.821.508 1.156.848.146.227.966 1.749 1.177 1.749z" fill="#000" opacity=".3"/><path d="m85.8168 190.891h-46.872c.4482-1.08.621-1.96 1.917-1.83.0073-.618.1206-1.23.3348-1.809.1132-.287.2983-.54.5376-.735.2392-.195.5246-.325.8286-.378-.3726-.378.0702-1.026.567-1.231.243-.097.54-.162.7668-.259.6102.232 1.242.594 1.917.313s.1728-1.317 1.2636-1.301c.5076 0 .702.993 1.3446.945 1.62-.119 1.134-1.885 2.619-.162.432.497 0 1.317.7722 1.803s1.863-.151 2.6244-.221c.189-.659-.162-1.404.108-2.036s1.1664-.896 1.9008-.815c.7203.165 1.4541.264 2.1924.297-.2646 0 .6102-1.177.7236-1.258.729-.513 2.16-.033 3.0942-.6 1.08-.648 1.7172-2.538 3.3264-1.712.6102.314.9018 1.01 1.2366 1.62.3348.611.8694 1.232 1.5606 1.183s1.4526-.869 2.0736-.47c.4644.297.4374.816 1.2528 1.037.6804.189 1.3392-.486 1.9602-.319.8748.227.9936.972 1.62 1.415.9558.654 1.2042.54 2.3382.794.2259.067.4345.182.6113.337.1769.155.3178.347.4129.563.0951.215.1421.449.1378.684-.0044.235-.06.467-.163.679.4027.233.8736.32 1.3331.246.4595-.073.8794-.304 1.1887-.651.2376-.287.5022-.681.8586-.594.54.135.2376.982.3618 1.544.2538 1.118 2.2518.94 3.0564 1.388-.1487.134-.2437.317-.2676.516-.0238.198.0252.399.138.564.0918.162.2004.314.324.453z" fill="#000" opacity=".3"/><path d="m52.9201 182.737s-1.08-1.695-.3618-2.16c.7182-.464.9936 1.723.9936 1.723s.3348-1.463 1.0476-1.566.54 1.053-.2754 1.944c0 0 1.3878-.729 1.8306-.383.4428.345-.3942 1.274-1.5768 1.161 0 0 1.566.54 1.1988 1.252-.3672.713-1.0152.168-1.728-.599 0 0 .5076 1.377-.4752 1.733-.9828.357-.4212-1.544-.4212-1.544s-.9774 1.01-1.647.805c-.6696-.206-.108-1.14 1.2366-1.561 0 0-1.836.389-1.9116-.54s1.1448-.869 2.0898-.265z" fill="#e7a03f"/><path d="m52.9201 182.737s-1.08-1.695-.3618-2.16c.7182-.464.9936 1.723.9936 1.723s.3348-1.463 1.0476-1.566.54 1.053-.2754 1.944c0 0 1.3878-.729 1.8306-.383.4428.345-.3942 1.274-1.5768 1.161 0 0 1.566.54 1.1988 1.252-.3672.713-1.0152.168-1.728-.599 0 0 .5076 1.377-.4752 1.733-.9828.357-.4212-1.544-.4212-1.544s-.9774 1.01-1.647.805c-.6696-.206-.108-1.14 1.2366-1.561 0 0-1.836.389-1.9116-.54s1.1448-.869 2.0898-.265z" fill="#fff" opacity=".5"/><path d="m53.4599 182.764c.6102-.329.891.621.324.891s-.9288-.572-.324-.891z" fill="#e7a03f" opacity=".3"/><path d="m75.2597 175.982s.8856-1.134 1.377-.778c.4914.357-.9018 1.08-.9018 1.08s1.08-.129 1.3122.324c.2322.454-.5778.621-1.3824.292 0 0 .837.761.7074 1.139s-.9504.049-1.1664-.777c0 0 0 1.182-.54 1.112s-.3672-.642 0-1.312c0 0-.8046.68-1.2852.103-.4806-.578.9396-.659.9396-.659s-.9234-.416-.9504-.918.7452-.351 1.3608.453c0 0-.7128-1.144-.108-1.42.6048-.275.8208.583.6372 1.361z" fill="#e7a03f"/><path d="m75.2597 175.982s.8856-1.134 1.377-.778c.4914.357-.9018 1.08-.9018 1.08s1.08-.129 1.3122.324c.2322.454-.5778.621-1.3824.292 0 0 .837.761.7074 1.139s-.9504.049-1.1664-.777c0 0 0 1.182-.54 1.112s-.3672-.642 0-1.312c0 0-.8046.68-1.2852.103-.4806-.578.9396-.659.9396-.659s-.9234-.416-.9504-.918.7452-.351 1.3608.453c0 0-.7128-1.144-.108-1.42.6048-.275.8208.583.6372 1.361z" fill="#fff" opacity=".5"/><path d="m75.3733 176.36c.3726.329-.1998.751-.54.432s.1836-.761.54-.432z" fill="#e7a03f" opacity=".3"/><path d="m81.3781 186.836s.2214-1.42.8208-1.35-.2484 1.404-.2484 1.404.8694-.632 1.3068-.356c.4374.275-.2052.826-1.08.923 0 0 1.08.265 1.1772.659s-.8154.502-1.404-.114c0 0 .5994 1.016.0594 1.242-.54.227-.6318-.388-.6534-1.139 0 0-.3726.988-1.08.713-.7074-.276.4968-1.032.4968-1.032s-1.0044.087-1.269-.34c-.2646-.426.4752-.669 1.404-.264 0 0-1.1772-.654-.783-1.188.3942-.535 1.0368.086 1.2528.842z" fill="#e7a03f"/><path d="m81.3781 186.836s.2214-1.42.8208-1.35-.2484 1.404-.2484 1.404.8694-.632 1.3068-.356c.4374.275-.2052.826-1.08.923 0 0 1.08.265 1.1772.659s-.8154.502-1.404-.114c0 0 .5994 1.016.0594 1.242-.54.227-.6318-.388-.6534-1.139 0 0-.3726.988-1.08.713-.7074-.276.4968-1.032.4968-1.032s-1.0044.087-1.269-.34c-.2646-.426.4752-.669 1.404-.264 0 0-1.1772-.654-.783-1.188.3942-.535 1.0368.086 1.2528.842z" fill="#fff" opacity=".5"/><path d="m81.6532 187.101c.486.108.189.756-.243.637s-.2214-.74.243-.637z" fill="#e7a03f" opacity=".3"/><path d="m66.5928 187.16s.0756-.54.5724-.54.54.734-.0702.805c0 0 .6966 0 .6102.496-.0055.102-.0433.199-.1078.277s-.1524.134-.2507.158c-.0984.025-.2021.018-.2959-.021-.0939-.038-.173-.106-.2258-.192 0 0-.081.858-.7884.626s-.108-.707-.108-.707-.7128.362-.7506-.367.7776-.281.7776-.281-.6912-.605-.0432-.848.6804.594.6804.594z" fill="#e7a03f"/><path d="m66.5928 187.16s.0756-.54.5724-.54.54.734-.0702.805c0 0 .6966 0 .6102.496-.0055.102-.0433.199-.1078.277s-.1524.134-.2507.158c-.0984.025-.2021.018-.2959-.021-.0939-.038-.173-.106-.2258-.192 0 0-.081.858-.7884.626s-.108-.707-.108-.707-.7128.362-.7506-.367.7776-.281.7776-.281-.6912-.605-.0432-.848.6804.594.6804.594z" fill="#fff" opacity=".5"/><path d="m66.8305 187.662c-.0083.091-.0519.176-.1215.235-.0696.06-.1597.09-.2511.084-.0447.007-.0904.005-.1343-.006s-.0852-.031-.1214-.058-.0666-.062-.0895-.101c-.0228-.039-.0377-.082-.0436-.127.0069-.09.0494-.175.1181-.235.0688-.059.1583-.089.2491-.083.0905-.011.1819.013.2552.067s.1231.134.139.224z" fill="#e7a03f" opacity=".3"/><path d="m34.6357 86.8064c.162.1944.4374.2106.675.2808.9018.2646 1.3122 1.3338 1.3338 2.2734s-.216 1.8954-.0378 2.8188c.0193.1737.0974.3357.2214.459.1823.1128.3969.1622.6102.1404 1.5104.1068 2.9357.7392 4.0284 1.7874 1.0152 1.1178.3996 2.1168 1.0044 3.24.297.54 1.134.3348 1.7118.567 1.0044.3996 1.08 2.0738 2.1006 2.3648.3151.059.6391.05.9504-.027 1.0157-.167 2.0495-.194 3.0726-.081.1932.007.3805.069.54.179.486.41-.0486 1.155-.1998 1.776-.2214.918.54 1.788 1.3608 2.257.8208.47 1.7712.746 2.4246 1.421.239.316.5228.596.8424.831.351.155.7353.22 1.1178.189 4.1904 0 6.372 1.08 10.206 2.646.6897.295 1.4164.495 2.16.594.5994.089 1.2113.038 1.7876-.149s1.1012-.506 1.5334-.931c.3672-.34.6102-.788.9504-1.161 1.5498-1.717 4.32-1.447 6.3828-1.506 1.08 0 2.2086.199 3.186-.243 1.35-.611 1.8792-2.22 2.2626-3.651 2.0682.195 4.9248 0 6.75-1.08 2.052-1.22 2.9646-3.337 5.4324-4.0282s2.6028.2268 3.4505-1.1772c.925-.1296 1.863-.1459 2.792-.0486.194.0077.381.0715.54.1836.491.4104-.049 1.1556-.2 1.7766-.221.918.54 1.7878 1.361 2.2568.821.47 1.771.74 2.43 1.421.236.316.518.594.837.826.35.158.735.223 1.118.189 4.19 0 6.372 1.08 10.206 2.646 1.922.772 3.834 1.08 5.486-.47.367-.34.616-.794.95-1.166 1.55-1.712 4.32-1.448 6.383-1.502 1.08-.032 2.209.195 3.186-.248.099-.048.195-.102.286-.162.007.49.119.972.33 1.415.297.54 1.134.34 1.712.567 1.004.405 1.08 2.073 2.1 2.365.315.062.64.052.951-.027 1.018-.162 2.053-.189 3.078-.081.193.008.38.07.54.178.491.411-.049 1.161-.2 1.782-.222.918.54 1.788 1.361 2.252.82.464 1.771.745 2.43 1.426.237.314.519.593.837.826.351.155.735.22 1.117.189 4.191 0 6.372 1.08 10.206 2.646 1.923.772 3.834 1.08 5.487-.47.367-.346.615-.794.95-1.166 1.55-1.718 4.32-1.448 6.383-1.502 1.08-.032 2.209.195 3.186-.248 1.355-.61 1.879-2.219 2.263-3.65.858.08 1.721.089 2.581.027.49.308.922.701 1.274 1.161.146.301.337.577.567.82.266.186.574.301.897.335 3.472.654 5.108 1.917 8.046 3.78 1.474.94 3.007 1.496 4.622.47.339-.254.663-.526.972-.815 1.555-1.178 3.78-.54 5.53-.243.172.027.345.064.54.102.695.229 1.434.297 2.16.2.397-.124.765-.326 1.083-.594s.579-.597.769-.967c.22-.359.42-.731.599-1.112.436.125.877.228 1.323.308 1.47.327 2.998.278 4.444-.141 1.896-.685 2.987-2.3 5.141-2.484 2.533-.21 2.041.935 3.694-1.231 1.652-2.165 2.03.043 3.807-2.451 1.776-2.495-.805-4.963.918-7.2958 1.361-1.8414 5.254-6.0048 1.89-7.8948-.455-.1821-.883-.4236-1.275-.7182-.702-.6912-.048-1.1502-.129-1.8198.014-.5976-.097-1.1915-.324-1.7442-.614-1.2715-1.614-2.3166-2.857-2.9862-.718-.3402-1.776.0324-2.403-.54-.626-.5724-.351-1.3662-.599-2.16-.249-.7938-1.026-1.161-1.771-1.3986-1.593-.54-3.273-1.512-3.705-3.2778-.302-1.2474-1.08-2.5542-2.376-2.754-.945-.1458-1.852.3672-2.743.7344-.205.0882-.416.1622-.632.2214.424-.4977.773-1.0543 1.037-1.6524 1.447-2.8836 2.376-.3996 3.888-3.699s-2.03-5.5944-.54-8.6886c1.177-2.4462 4.784-8.1486.454-9.6066-.561-.11-1.106-.2915-1.62-.54-.967-.648-.308-1.3284-.54-2.0898-.233-.7614-.157-1.08-.756-1.9602-1-1.3414-2.396-2.335-3.991-2.8404-.907-.2376-2.057.432-2.911-.0972-.955-.5832-.712-1.512-1.182-2.403s-1.453-1.1178-2.376-1.2366c-1.966-.2484-4.137-1.0314-5.028-2.9916-.631-1.3878-1.852-2.7324-3.375-2.7-1.134.0378-2.079.8316-3.029 1.458s-2.209 1.1124-3.186.54c-.412-.3038-.776-.6678-1.08-1.08-2.581-2.8836-6.939-1.3878-10.26-2.2518-.994-.2538-2.014-1.2528-3.116-.7182-.756.3618-1.253 1.08-1.803 1.7172l-.108.108c-.092-.529-.305-1.0296-.621-1.4634-1-1.3432-2.395-2.3386-3.991-2.8458-.902-.2376-2.052.4374-2.911-.0918-.95-.5832-.712-1.5174-1.182-2.403s-1.447-1.1178-2.371-1.2366c-1.965-.2484-4.136-1.0314-5.027-2.9916-.632-1.3878-1.852-2.7324-3.375-2.7-1.14.0432-2.079.837-3.03 1.4634-.95.6264-2.214 1.1124-3.186.54-.409-.307-.773-.6707-1.08-1.08-2.575-2.8836-6.939-1.3878-10.26-2.2518-.988-.2592-2.008-1.2582-3.115-.7236-.708.449-1.321 1.0324-1.804 1.7172-.54.6318-1.28 1.2258-2.117 1.1772-.421-.0486-.835-.1502-1.231-.3024-1.577-.5022-2.786.4536-4.185.2754-.389 1.0368-1.301 1.1448-2.057 1.8522-1.302 1.215-.243 3.4182-.665 5.1516-.037.2304-.151.4415-.324.5994-.016.0127-.034.0236-.054.0324-.484.0998-.988.0212-1.42-.2214-.412-.3041-.776-.6681-1.08-1.08-2.581-2.8836-6.939-1.3824-10.26-2.2464-.993-.2592-2.014-1.2582-3.116-.7236-.756.3672-1.252 1.08-1.809 1.7172-.556.6372-1.2793 1.2258-2.1163 1.1772-.4153-.0622-.8215-.1746-1.2096-.3348-1.5768-.5022-2.781.4536-4.185.2754-.3888 1.0368-1.3014 1.1394-2.0574 1.8522-1.296 1.215-.243 3.4182-.6588 5.1516-.042.2302-.1576.4405-.3294.5994-.2493.1564-.5452.2213-.837.1836l-5.0274-.0594c-.1258-.0197-.2543-.0115-.3765.024-.1222.0354-.2352.0973-.3309.1812-.2268.2808-.0324.6858 0 1.0368.1404 1.4796-2.322 1.7496-2.8998 3.1158-.3132.7452.0324 1.593 0 2.3976-.0432 1.3284-1.08 2.3814-1.8684 3.4398-2.2821 3.1912-3.725 6.9051-4.1958 10.8-.0452.2232-.0027.4553.1188.648.1566.189.432.2052.6696.2754.2104.066.4052.1742.5724.3182.1671.1439.3031.3204.3996.5188.2132.4138.3348.8687.3564 1.3338-.4117-.3043-.7757-.6683-1.08-1.08-2.5758-2.8836-6.939-1.3824-10.26-2.2464-.9882-.2592-2.0142-1.2582-3.1158-.7236-.756.3672-1.2528 1.08-1.8036 1.7172s-1.2852 1.2258-2.1168 1.1772c-.4156-.0608-.8219-.1733-1.2096-.3348-1.5768-.5022-2.7864.4536-4.185.2754-.3888 1.0368-1.3014 1.1394-2.0628 1.8522-1.296 1.215-.2376 3.4182-.6588 5.1516-.0405.2295-.1542.4398-.324.5994-.2515.1559-.5489.2207-.8424.1836l-5.0274-.0594c-.1258-.0197-.2543-.0115-.3765.0239-.1223.0355-.2352.0974-.3309.1813-.2214.2808 0 .6858 0 1.0368.1404 1.4796-2.322 1.7496-2.8944 3.1158-.3186.7452 0 1.5876 0 2.3976-.0432 1.3284-1.08 2.3814-1.8684 3.4398-2.2804 3.182-3.7233 6.8868-4.1958 10.773-.0433.2156-.0028.4396.1134.6264z" fill="#e7a03f"/><path d="m34.6357 86.8064c.162.1944.4374.2106.675.2808.9018.2646 1.3122 1.3338 1.3338 2.2734s-.216 1.8954-.0378 2.8188c.0193.1737.0974.3357.2214.459.1823.1128.3969.1622.6102.1404 1.5104.1068 2.9357.7392 4.0284 1.7874 1.0152 1.1178.3996 2.1168 1.0044 3.24.297.54 1.134.3348 1.7118.567 1.0044.3996 1.08 2.0738 2.1006 2.3648.3151.059.6391.05.9504-.027 1.0157-.167 2.0495-.194 3.0726-.081.1932.007.3805.069.54.179.486.41-.0486 1.155-.1998 1.776-.2214.918.54 1.788 1.3608 2.257.8208.47 1.7712.746 2.4246 1.421.239.316.5228.596.8424.831.351.155.7353.22 1.1178.189 4.1904 0 6.372 1.08 10.206 2.646.6897.295 1.4164.495 2.16.594.5994.089 1.2113.038 1.7876-.149s1.1012-.506 1.5334-.931c.3672-.34.6102-.788.9504-1.161 1.5498-1.717 4.32-1.447 6.3828-1.506 1.08 0 2.2086.199 3.186-.243 1.35-.611 1.8792-2.22 2.2626-3.651 2.0682.195 4.9248 0 6.75-1.08 2.052-1.22 2.9646-3.337 5.4324-4.0282s2.6028.2268 3.4505-1.1772c.925-.1296 1.863-.1459 2.792-.0486.194.0077.381.0715.54.1836.491.4104-.049 1.1556-.2 1.7766-.221.918.54 1.7878 1.361 2.2568.821.47 1.771.74 2.43 1.421.236.316.518.594.837.826.35.158.735.223 1.118.189 4.19 0 6.372 1.08 10.206 2.646 1.922.772 3.834 1.08 5.486-.47.367-.34.616-.794.95-1.166 1.55-1.712 4.32-1.448 6.383-1.502 1.08-.032 2.209.195 3.186-.248.099-.048.195-.102.286-.162.007.49.119.972.33 1.415.297.54 1.134.34 1.712.567 1.004.405 1.08 2.073 2.1 2.365.315.062.64.052.951-.027 1.018-.162 2.053-.189 3.078-.081.193.008.38.07.54.178.491.411-.049 1.161-.2 1.782-.222.918.54 1.788 1.361 2.252.82.464 1.771.745 2.43 1.426.237.314.519.593.837.826.351.155.735.22 1.117.189 4.191 0 6.372 1.08 10.206 2.646 1.923.772 3.834 1.08 5.487-.47.367-.346.615-.794.95-1.166 1.55-1.718 4.32-1.448 6.383-1.502 1.08-.032 2.209.195 3.186-.248 1.355-.61 1.879-2.219 2.263-3.65.858.08 1.721.089 2.581.027.49.308.922.701 1.274 1.161.146.301.337.577.567.82.266.186.574.301.897.335 3.472.654 5.108 1.917 8.046 3.78 1.474.94 3.007 1.496 4.622.47.339-.254.663-.526.972-.815 1.555-1.178 3.78-.54 5.53-.243.172.027.345.064.54.102.695.229 1.434.297 2.16.2.397-.124.765-.326 1.083-.594s.579-.597.769-.967c.22-.359.42-.731.599-1.112.436.125.877.228 1.323.308 1.47.327 2.998.278 4.444-.141 1.896-.685 2.987-2.3 5.141-2.484 2.533-.21 2.041.935 3.694-1.231 1.652-2.165 2.03.043 3.807-2.451 1.776-2.495-.805-4.963.918-7.2958 1.361-1.8414 5.254-6.0048 1.89-7.8948-.455-.1821-.883-.4236-1.275-.7182-.702-.6912-.048-1.1502-.129-1.8198.014-.5976-.097-1.1915-.324-1.7442-.614-1.2715-1.614-2.3166-2.857-2.9862-.718-.3402-1.776.0324-2.403-.54-.626-.5724-.351-1.3662-.599-2.16-.249-.7938-1.026-1.161-1.771-1.3986-1.593-.54-3.273-1.512-3.705-3.2778-.302-1.2474-1.08-2.5542-2.376-2.754-.945-.1458-1.852.3672-2.743.7344-.205.0882-.416.1622-.632.2214.424-.4977.773-1.0543 1.037-1.6524 1.447-2.8836 2.376-.3996 3.888-3.699s-2.03-5.5944-.54-8.6886c1.177-2.4462 4.784-8.1486.454-9.6066-.561-.11-1.106-.2915-1.62-.54-.967-.648-.308-1.3284-.54-2.0898-.233-.7614-.157-1.08-.756-1.9602-1-1.3414-2.396-2.335-3.991-2.8404-.907-.2376-2.057.432-2.911-.0972-.955-.5832-.712-1.512-1.182-2.403s-1.453-1.1178-2.376-1.2366c-1.966-.2484-4.137-1.0314-5.028-2.9916-.631-1.3878-1.852-2.7324-3.375-2.7-1.134.0378-2.079.8316-3.029 1.458s-2.209 1.1124-3.186.54c-.412-.3038-.776-.6678-1.08-1.08-2.581-2.8836-6.939-1.3878-10.26-2.2518-.994-.2538-2.014-1.2528-3.116-.7182-.756.3618-1.253 1.08-1.803 1.7172l-.108.108c-.092-.529-.305-1.0296-.621-1.4634-1-1.3432-2.395-2.3386-3.991-2.8458-.902-.2376-2.052.4374-2.911-.0918-.95-.5832-.712-1.5174-1.182-2.403s-1.447-1.1178-2.371-1.2366c-1.965-.2484-4.136-1.0314-5.027-2.9916-.632-1.3878-1.852-2.7324-3.375-2.7-1.14.0432-2.079.837-3.03 1.4634-.95.6264-2.214 1.1124-3.186.54-.409-.307-.773-.6707-1.08-1.08-2.575-2.8836-6.939-1.3878-10.26-2.2518-.988-.2592-2.008-1.2582-3.115-.7236-.708.449-1.321 1.0324-1.804 1.7172-.54.6318-1.28 1.2258-2.117 1.1772-.421-.0486-.835-.1502-1.231-.3024-1.577-.5022-2.786.4536-4.185.2754-.389 1.0368-1.301 1.1448-2.057 1.8522-1.302 1.215-.243 3.4182-.665 5.1516-.037.2304-.151.4415-.324.5994-.016.0127-.034.0236-.054.0324-.484.0998-.988.0212-1.42-.2214-.412-.3041-.776-.6681-1.08-1.08-2.581-2.8836-6.939-1.3824-10.26-2.2464-.993-.2592-2.014-1.2582-3.116-.7236-.756.3672-1.252 1.08-1.809 1.7172-.556.6372-1.2793 1.2258-2.1163 1.1772-.4153-.0622-.8215-.1746-1.2096-.3348-1.5768-.5022-2.781.4536-4.185.2754-.3888 1.0368-1.3014 1.1394-2.0574 1.8522-1.296 1.215-.243 3.4182-.6588 5.1516-.042.2302-.1576.4405-.3294.5994-.2493.1564-.5452.2213-.837.1836l-5.0274-.0594c-.1258-.0197-.2543-.0115-.3765.024-.1222.0354-.2352.0973-.3309.1812-.2268.2808-.0324.6858 0 1.0368.1404 1.4796-2.322 1.7496-2.8998 3.1158-.3132.7452.0324 1.593 0 2.3976-.0432 1.3284-1.08 2.3814-1.8684 3.4398-2.2821 3.1912-3.725 6.9051-4.1958 10.8-.0452.2232-.0027.4553.1188.648.1566.189.432.2052.6696.2754.2104.066.4052.1742.5724.3182.1671.1439.3031.3204.3996.5188.2132.4138.3348.8687.3564 1.3338-.4117-.3043-.7757-.6683-1.08-1.08-2.5758-2.8836-6.939-1.3824-10.26-2.2464-.9882-.2592-2.0142-1.2582-3.1158-.7236-.756.3672-1.2528 1.08-1.8036 1.7172s-1.2852 1.2258-2.1168 1.1772c-.4156-.0608-.8219-.1733-1.2096-.3348-1.5768-.5022-2.7864.4536-4.185.2754-.3888 1.0368-1.3014 1.1394-2.0628 1.8522-1.296 1.215-.2376 3.4182-.6588 5.1516-.0405.2295-.1542.4398-.324.5994-.2515.1559-.5489.2207-.8424.1836l-5.0274-.0594c-.1258-.0197-.2543-.0115-.3765.0239-.1223.0355-.2352.0974-.3309.1813-.2214.2808 0 .6858 0 1.0368.1404 1.4796-2.322 1.7496-2.8944 3.1158-.3186.7452 0 1.5876 0 2.3976-.0432 1.3284-1.08 2.3814-1.8684 3.4398-2.2804 3.182-3.7233 6.8868-4.1958 10.773-.0433.2156-.0028.4396.1134.6264z" fill="#000" opacity=".3"/><path d="m51.8401 97.8224c.3354.4697.8213.8107 1.377.9666.482.0932.9502.2474 1.3932.459.8154.54.2646 1.123.4752 1.76.1023.589.3227 1.151.648 1.653.8518 1.128 2.036 1.961 3.3858 2.381.7668.195 1.7334-.378 2.457.065.81.486.6102 1.274 1.0098 2.02.3996.745 1.2312.939 2.0088 1.031 1.62.194 3.402.821 4.1904 2.371.5994.089 1.2113.038 1.7876-.15.5763-.187 1.1012-.506 1.5334-.93.3672-.341.6102-.789.9504-1.161 1.5498-1.718 4.32-1.448 6.3828-1.507 1.08 0 2.2086.2 3.186-.243 1.35-.61 1.8792-2.219 2.2626-3.65 2.0682.194 4.9248 0 6.75-1.08 2.052-1.221 2.9646-3.3376 5.4324-4.0288s2.6028.2268 3.4505-1.1772c.925-.1296 1.863-.1459 2.792-.0486.194.0077.381.0715.54.1836.491.4104-.049 1.1556-.2 1.7766-.221.918.54 1.7874 1.361 2.2574s1.771.74 2.43 1.42c.236.316.518.594.837.826.35.158.735.223 1.118.189 4.19 0 6.372 1.08 10.206 2.646 1.922.772 3.834 1.08 5.486-.47.367-.34.616-.793.95-1.166 1.55-1.712 4.32-1.447 6.383-1.501 1.08-.033 2.209.194 3.186-.249.099-.047.195-.101.286-.162.007.49.119.973.33 1.415.297.54 1.134.34 1.712.567 1.004.405 1.08 2.074 2.1 2.365.315.062.64.053.951-.027 1.018-.162 2.053-.189 3.078-.081.193.009.38.071.54.179.491.41-.049 1.161-.2 1.782-.221.918.54 1.787 1.361 2.251.82.465 1.771.746 2.43 1.426.237.315.519.593.837.826.351.155.735.22 1.117.189 4.191 0 6.372 1.08 10.206 2.646 1.923.772 3.834 1.08 5.487-.47.367-.345.615-.793.95-1.166 1.55-1.717 4.32-1.447 6.383-1.501 1.08-.033 2.209.194 3.186-.249 1.355-.61 1.879-2.219 2.263-3.65.858.08 1.721.089 2.581.027.49.308.922.701 1.274 1.161.146.301.337.578.567.821.266.185.574.3.897.335 3.472.653 5.108 1.917 8.046 3.78 1.474.939 3.007 1.495 4.622.469.339-.253.663-.526.972-.815 1.555-1.177 3.78-.54 5.53-.243.172.027.345.065.54.103-.001-.239.026-.476.081-.708.03-.196.125-.376.27-.513.21-.132.46-.187.707-.156h2.954 1.312c.106.017.215.009.317-.022.103-.03.198-.084.277-.157.14-.172.087-.399.038-.631 0-.081-.033-.162-.043-.243-.119-1.151 1.647-1.448 2.295-2.398-.174-.063-.356-.099-.54-.108-.076.005-.152-.014-.216-.054-.04-.044-.067-.098-.076-.157-.027-.325-.027-.652 0-.977.011-.163-.027-.325-.11-.466s-.206-.253-.354-.322c-.086-.009-.166-.043-.233-.098-.041-.066-.056-.144-.043-.221.168-1.348.669-2.632 1.458-3.737.331-.322.556-.736.648-1.188 0-.281-.113-.578 0-.831.2-.476 1.053-.54 1.005-1.08 0-.125-.076-.265 0-.362.033-.0282.072-.0489.114-.0609.042-.0121.086-.0154.129-.0095h1.744c.102.0124.205-.0105.292-.0648.06-.0556.1-.1297.113-.2106.146-.5994-.221-1.3608.227-1.782.248-.2322.54-.2862.685-.5994.155-.6559.263-1.3217.324-1.9926.038-.1865.001-.3803-.102-.54-.135-.1566-.367-.1728-.567-.2322-.291-.1128-.546-.3033-.737-.5509-.19-.2476-.309-.5427-.343-.8531-.378-.0658-.761-.0984-1.145-.0972-.133.0112-.267-.0111-.389-.0648-.11-.0813-.208-.1776-.291-.2862-.254-.2046-.536-.3719-.837-.4968-.287-.162-.54-.4644-.476-.7776.054-.216.243-.4752.071-.621-.058-.0389-.125-.0596-.195-.0594-.359-.0383-.722-.0293-1.08.027-.108.0215-.22.0215-.329 0-.362-.1026-.378-.6804-.729-.8208-.2-.081-.491 0-.594-.1944-.211-.3942 0-.7398-.346-1.1286-.38-.3616-.875-.5793-1.398-.6156-.074.0046-.147-.0123-.211-.0486-.043-.0436-.07-.1009-.076-.162-.029-.3252-.029-.6523 0-.9774-.001-.1575-.038-.3126-.108-.4536-.216.2345-.461.4413-.728.6156-.731.3439-1.543.4731-2.344.3726-.03.2551-.116.5004-.251.7188-.136.2183-.317.4043-.532.5448-.36.1022-.736.1316-1.107.0864-.718 0-1.674-.0756-2.209.54-.119.1242-.205.2808-.329.3996-.573.54-1.237.432-1.901.1674-1.328-.54-2.09-.9234-3.537-.918-.115.0303-.235.034-.351.0108-.11-.0832-.208-.1814-.292-.2916-.256-.2022-.54-.3676-.842-.4914-.15-.065-.276-.1755-.361-.3159-.084-.1405-.122-.3039-.109-.4671.049-.2106.238-.4698.07-.6156-.057-.0383-.125-.0589-.194-.0594-.358-.0496-.722-.0496-1.08 0-.109.0215-.221.0215-.329 0-.362-.1026-.378-.6804-.729-.8208-.2-.081-.486 0-.589-.1998-.211-.3888 0-.7344-.351-1.1232-.377-.3627-.871-.5807-1.393-.6156-.076.0048-.151-.0141-.216-.054-.042-.0425-.068-.0975-.076-.1566-.027-.3253-.027-.6522 0-.9774.011-.1629-.027-.3254-.11-.4661s-.206-.253-.354-.3223c-.085-.0086-.166-.0425-.232-.0972-.042-.0659-.057-.1448-.044-.2214.074-.6594.236-1.306.481-1.9224-.64.1032-1.297.0247-1.895-.2268-.211.3618-.481.7614-.891.8262-.306.0007-.608-.058-.891-.1728-.573-.1458-1.302-.4266-1.858-.0756-.113.0756-.216.1782-.346.2484-.253.1142-.536.1474-.81.0953-.273-.0522-.524-.1873-.718-.3869-.929-.7128-1.447-1.1826-2.586-1.4958-.107-.0203-.207-.0666-.292-.135-.069-.0889-.125-.1871-.167-.2916-.019-.0401-.045-.0766-.076-.108l.065-.1134c.607.2553 1.273.3321 1.922.2214.659-.1782 1.08-.6912 1.793-.6858.848 0 .653.3672 1.264-.3078.61-.675.68.0702 1.344-.7182.54-.6534.092-1.3932.303-2.0466.151-.0173.298-.0631.432-.135.129-.0648.226-.1728.351-.243.54-.351 1.279-.0702 1.857.0702.281.1164.582.1769.886.1782.416-.0648.686-.4644.896-.8262.607.2553 1.274.3321 1.923.2214.659-.1782 1.08-.6858 1.787-.6858.242.005.483.0358.718.0918-.012-.1235.002-.2482.042-.3657s.105-.2248.19-.3147c.149-.1185.304-.2285.465-.3294.724-1.6944 1.192-3.487 1.388-5.319.037-.1865 0-.3803-.103-.54-.135-.1566-.367-.1728-.54-.2322-.767-.216-1.118-1.1178-1.139-1.9116-.022-.7938.172-1.62 0-2.376-.017-.1474-.084-.2847-.189-.3888-.161-.1007-.353-.1409-.54-.1134-.891-.0618-1.754-.3359-2.517-.7992.084-.1285.197-.2349.331-.3101.133-.0752.283-.1171.436-.1219.291.0433.566.1604.799.3402.12.0876.26.1442.407.165.147.0207.296.0048.436-.0462.105-.0663.198-.1504.275-.2484.68-.6696 1.831-.3186 2.7-.54.259-.0594.54-.2916.815-.1674.187.1.351.2379.481.405.067.0792.15.144.242.1904.093.0464.195.0735.298.0796.109-.0144.215-.0397.319-.0756.415-.1188.734.1026 1.107.0594.097.243.34.27.54.432.34.2862.064.8046.178 1.2042.003.0282.013.0553.028.0795s.035.045.058.0609c.066.041.145.0582.222.0486h1.317c.069-.0073.138.0099.195.0486.054.0702 0 .162 0 .2484-.038.3402.61.405.761.7236.087.1728 0 .3726 0 .54 0 .3078.286.54.497.7992.584.7239.957 1.5944 1.08 2.5164v.0702c.222-.027.447-.027.669 0 .084.0162.17.0162.254 0 .276-.0702.292-.459.54-.54.157-.0594.378 0 .454-.135.162-.2592 0-.4968.265-.7614.305-.2512.684-.3953 1.08-.4104.056.0068.114-.0065.161-.0378.033-.0278.054-.0661.06-.108.019-.2174.019-.436 0-.6534-.007-.1158.023-.2308.086-.3281.063-.0972.156-.1715.265-.2119.064-.0024.126-.023.178-.0594.015-.0218.026-.0466.03-.0727.005-.0261.004-.0529-.003-.0785-.131-.9246-.514-1.7953-1.107-2.5164-.211-.2484-.475-.4968-.491-.8046 0-.189.086-.3888 0-.54-.151-.3186-.8-.378-.756-.729 0-.081.054-.1782 0-.2376-.055-.0402-.122-.0577-.189-.0486h-1.329c-.076.0078-.153-.0073-.221-.0432-.022-.0169-.041-.038-.055-.0621s-.023-.0507-.026-.0783c-.114-.405.162-.918-.178-1.1988-.2-.1674-.443-.1944-.54-.4374-.368.0432-.686-.1782-1.08-.0594-.104.0359-.21.0612-.319.0756-.104-.0059-.206-.0334-.299-.0808s-.175-.1137-.241-.1946c-.133-.1632-.296-.2989-.481-.3996-.291-.1242-.54.108-.82.1674-.88.2052-2.031-.1512-2.7.54-.084.0937-.178.1771-.281.2484-.139.0489-.288.0631-.434.0414-.146-.0216-.284-.0785-.403-.1656-.234-.1776-.509-.2945-.799-.3402-.192.0121-.377.077-.534.1875-.157.1106-.281.2625-.357.4389-.151.2126-.35.3866-.581.5077s-.487.1858-.748.1889c-.118-.001-.236.0248-.343.0752-.108.0505-.203.1244-.278.2164-.129.2052-.059.4266-.313.54s-.54-.027-.767 0c-.419.1031-.796.3331-1.08.6588-.101.1352-.17.2924-.2.459-.013.055-.013.1124 0 .1674-.181-.127-.349-.2717-.502-.432-.864-.9396-.351-1.7874-.864-2.7324-.254-.459-.956-.2808-1.447-.4698-.853-.3348-.902-1.7442-1.787-1.9872-.266-.0486-.539-.0376-.8.0324-.858.1403-1.731.1675-2.597.081-.167-.003-.33-.0536-.47-.1458-.416-.3456.033-.9774.157-1.5066.005-.0575.005-.1153 0-.1728-.227.2387-.481.4507-.756.6318-.727.347-1.539.4764-2.338.3726-.033.255-.12.5001-.255.7189s-.315.4064-.528.5501c-.361.0977-.737.1252-1.107.081-.724 0-1.674-.0702-2.214.54-.103.141-.212.2762-.33.405-.572.54-1.236.4266-1.901.162-1.328-.54-2.084-.918-3.537-.918-.133.0116-.266-.0106-.388-.0648-.098-.0682-.187-.148-.265-.2376-.255-.2058-.539-.3731-.842-.4968-.15-.0647-.275-.1743-.36-.3137-.084-.1394-.122-.3015-.11-.4639.054-.216.237-.4752.07-.6156-.056-.0428-.124-.0656-.194-.0648-.36-.0384-.723-.0293-1.08.027-.109.024-.221.024-.33 0-.362-.1026-.383-.6804-.729-.8208-.2-.081-.491 0-.594-.1944-.21-.3888 0-.7398-.345-1.1286-.381-.3608-.876-.5784-1.399-.6156-.068.0056-.135-.0094-.194-.0432.048.6264.588 1.1826.253 1.917-.426.9342-.691.2268-1.08 1.0476-.388.8208-.318.405-1.139.6372-.702.1944-.956.7938-1.539 1.1394-.595.2828-1.258.3878-1.912.3024-.025.2092-.095.4103-.206.5894s-.26.3318-.436.4474c-.293.0806-.6.1045-.902.0702-.594 0-1.371-.0594-1.809.4266-.097.1026-.167.2322-.27.3294-.214.1799-.478.2891-.757.3123-.278.0232-.557-.0406-.798-.1827-1.08-.4374-1.701-.7506-2.889-.7452-.109.0068-.218-.0117-.319-.054-.089-.068-.169-.148-.237-.2376-.209-.1653-.44-.2998-.686-.3996-.123-.0537-.226-.1445-.295-.2598-.069-.1152-.1-.2491-.089-.3828.038-.1728.195-.3834.054-.5022-.045-.0321-.1-.049-.156-.0486-.29-.0405-.585-.0405-.875 0-.089.0217-.181.0217-.27 0-.292-.081-.308-.54-.594-.6696-.162-.0648-.4 0-.481-.1566-.172-.3186 0-.6048-.286-.9234-.309-.2962-.712-.474-1.139-.5022-.062.003-.124-.012-.178-.0432-.032-.0368-.052-.0817-.06-.1296-.021-.266-.021-.5333 0-.7992.01-.1329-.021-.2657-.088-.3805-.068-.1149-.169-.2063-.29-.2621-.07 0-.146-.027-.189-.081-.017-.0259-.029-.0551-.034-.0857-.006-.0307-.005-.0622.002-.0925.131-1.1014.539-2.1513 1.188-3.051.274-.2644.462-.6049.54-.9774 0-.2268-.092-.4698 0-.6804.167-.3834.864-.4644.821-.8802 0-.1026-.065-.216 0-.2916.064-.0756.129-.0594.199-.0594h1.426c.083.01.167-.0091.238-.054.048-.0444.08-.1032.091-.1674.119-.4914-.178-1.1178.189-1.4634.211-.1998.47-.2268.584-.54.394.054.739-.2214 1.182-.0756.112.0438.228.0746.346.0918.014.0054.029.0054.043 0 .065-.2916.232-.6156.302-.9072.184-.7776-.464-1.5066-1.155-1.9008s-1.501-.6156-2.058-1.188c-.201-.2648-.441-.4978-.712-.6912-.229-.111-.481-.1648-.735-.1566-.146.9018.762 1.62.297 2.6568-.54 1.1394-.848.2808-1.344 1.2798-.497.999-.395.5022-1.399.7776-.853.243-1.172.972-1.879 1.3986-.73.3439-1.543.4731-2.344.3726-.02.2706-.103.5329-.241.7662-.139.2333-.33.4313-.558.5784-.359.1022-.736.1316-1.107.0864-.724 0-1.674-.0702-2.209.54-.118.1296-.205.2862-.329.405-.572.54-1.237.4266-1.901.162-1.334-.54-2.09-.918-3.542-.918-.131.0117-.263-.0106-.384-.0648-.098-.093-.182-.2004-.248-.3186-.256-.2047-.539-.3719-.842-.4968-.287-.162-.54-.4644-.47-.7776.048-.216.237-.4752.065-.621-.056-.0387-.122-.0595-.189-.0594-.36-.038-.723-.0289-1.08.027-.109.0215-.221.0215-.33 0-.362-.1026-.378-.6804-.729-.8208-.2-.081-.491 0-.588-.1944-.211-.3942 0-.7398-.351-1.1286-.379-.3604-.872-.578-1.394-.6156-.075.0039-.149-.0129-.216-.0486-.04-.0452-.067-.1016-.075-.162-.024-.3254-.024-.6521 0-.9774 0 0 0-.0432 0-.0648-.385.6727-.662 1.4015-.821 2.16-1.75-.1566-4.158 0-5.697.945-.507.3196-.975.6984-1.393 1.1286.158.0432.318.0757.48.0972.161.001.32.0402.462.1144.143.0741.266.1811.359.3122.162.3078.081.6318.411.8316.329.1998.696-.0486 1.009.0324.554.1761 1.037.5218 1.383.9882.132.2066.22.4382.259.6804.086.2592-.14.4968.194.7236.182.0886.374.1522.573.189 1.501.5076.248 2.484-.162 3.3318-.096.1999-.139.4213-.124.6426h.324c.083.01.167-.0091.237-.054.05-.0428.083-.1023.092-.1674.119-.4914-.178-1.1178.189-1.458.216-.2052.475-.2322.583-.54.394.054.74-.216 1.183-.0756.111.0455.227.0781.345.0972.119-.0082.234-.0424.338-.1003.103-.0579.193-.138.262-.2345.144-.1979.328-.3635.54-.486.313-.1512.599.1296.88.2052.945.243 2.16-.1836 2.911.6372.088.1126.19.2141.302.3024.15.0598.313.0773.472.0507.159-.0267.308-.0965.43-.2019.244-.2108.541-.3525.858-.4104.215.0213.42.1039.589.2379.17.134.297.3138.367.5181.147.2505.354.4598.604.6081.249.1483.532.2308.822.2397.131.0014.26.034.377.095.116.061.217.1487.292.256.135.2538.065.54.335.6804s.573-.0378.826.027c.451.1438.846.4252 1.129.8046.108.1636.181.3473.216.54.07.216-.113.4104.157.594.149.0714.307.124.469.1566.186.0482.347.1616.455.3193.108.1578.156.3493.134.5393h-.065c-.292-.0036-.578-.0819-.832-.2275-.253-.1455-.465-.3535-.615-.6041-.07-.2049-.197-.3856-.366-.5205-.17-.1349-.374-.2185-.59-.2409-.318.0588-.615.2024-.858.4158-.123.105-.272.1742-.431.1999-.159.0258-.322.007-.471-.0541-.115-.0841-.215-.1863-.297-.3024-.735-.8154-1.966-.3888-2.916-.6372-.281-.0702-.54-.3564-.88-.2052-.201.1291-.376.296-.513.4914-.069.0967-.158.1765-.262.2336-.104.057-.219.0898-.338.0958-.116-.0173-.23-.0481-.34-.0918-.448-.1458-.788.1242-1.188.0756-.108.2916-.367.324-.583.54-.367.3456-.07.972-.189 1.458-.009.0669-.041.1284-.092.1728-.07.0453-.154.0645-.238.054h-1.42c-.036-.0049-.073-.0022-.109.008-.035.0103-.068.0278-.096.0514-.059.081 0 .1944 0 .297.038.4158-.659.4914-.821.8802-.092.2106 0 .4482 0 .6804-.076.3718-.264.7111-.54.972-.645.9014-1.054 1.9505-1.188 3.051v.081c-.239-.0208-.481-.0118-.718.027-.089.0188-.181.0188-.27 0-.297-.0864-.313-.54-.594-.6696-.167-.0702-.405 0-.486-.162-.173-.3186 0-.6048-.286-.9234-.31-.2943-.713-.4718-1.14-.5022-.061.0085-.122-.007-.172-.0432-.037-.0342-.06-.0801-.065-.1296-.022-.2642-.022-.5297 0-.7938.012-.1339-.018-.2682-.086-.3843s-.17-.2082-.292-.2637c-.065 0-.146 0-.189-.0756-.018-.0269-.03-.057-.035-.0885-.006-.0316-.005-.0639.002-.0951.02-.1814.049-.3616.087-.54-.163.1693-.344.3197-.54.4482-.729.3465-1.543.4759-2.344.3726-.03.2556-.116.5015-.252.7206-.135.2191-.316.4062-.531.5484-.351.0943-.718.1218-1.08.081-.723 0-1.674-.0702-2.208.54-.119.1296-.206.2862-.33.405-.572.54-1.236.4266-1.901.162-.583-.2556-1.18-.4809-1.787-.675-1.183 2.3436-2.7863 5.886.275 6.8958.483.0932.951.2474 1.394.459.815.54.264 1.1178.475 1.7604.102.5889.323 1.151.648 1.6524.641.8488 1.471 1.5366 2.424 2.0088-.124.3402-.221.6966-.313 1.0368-1.749-.1512-4.158 0-5.697.945-.678.4498-1.298.9811-1.8465 1.5822-.1674 0-.3402 0-.5076-.0378-.1694-.0004-.3348-.0511-.4752-.1458-.4158-.3456.0324-.9774.1566-1.5012.1836-.7776-.4644-1.5066-1.1556-1.9008s-1.5012-.6156-2.0574-1.188c-.2016-.2648-.4419-.4978-.7128-.6912-.2969-.1307-.6219-.1845-.945-.1566-1.6822.0345-3.3577-.2232-4.9518-.7614-.673.2461-1.3938.333-2.106.2538-.0322.2545-.1188.499-.2539.717-.1351.2181-.3156.4045-.5291.5466-.3596.1022-.7359.1316-1.107.0864-.7236 0-1.674-.0702-2.214.54-.1022.1392-.2122.2726-.3294.3996-.5724.54-1.2312.432-1.9008.1674-1.3284-.54-2.0844-.918-3.537-.918-.133.0112-.2667-.0111-.3888-.0648-.1097-.08-.2063-.1765-.2862-.2862-.0585-.0596-.1238-.1121-.1944-.1566-.567 0-1.1232 0-1.62.0324-.9072.027-1.863-.1566-2.7.2214-.236.1127-.4514.2642-.6372.4482-.0279.0877-.0255.1822.0068.2684s.0927.159.1714.2068c.1814.0886.3739.1522.5724.189 1.5012.5076.2484 2.484-.162 3.3318-.54 1.08.7128 1.8684.189 3.0132s-.8424.2808-1.3446 1.2798-.3888.5022-1.3986.783c-.8532.2376-1.1718.972-1.8792 1.3932-.7293.3465-1.5428.4759-2.3436.3726-.0433.2461-.1384.4803-.279.6869-.1406.2067-.3234.3811-.5364.5119-.3513.0968-.7182.1243-1.08.081-.7182 0-1.674-.0702-2.2086.54-.1188.1296-.2052.2862-.3294.405-.5724.54-1.2366.432-1.9008.162-1.3284-.54-2.0898-.918-3.537-.918-.133.0121-.2669-.0102-.3888-.0648-.1101-.0813-.2083-.1777-.2916-.2862-.2553-.2041-.5391-.3696-.8424-.4914-.0731-.0437-.1418-.0944-.2052-.1512-.144.2276-.2703.4659-.378.7128-.0661.1496-.1238.3029-.1728.459.1604.0031.3179.0432.4603.1172s.2657.1799.3605.3094c.162.3078.081.6318.4104.837s.6912-.054 1.0098.0324c.5527.174 1.0365.5179 1.3824.9828.1306.2074.2187.4387.2592.6804.0864.2646-.1404.5022.1944.7236.1811.0904.3737.1558.5724.1944 1.5012.5022.2484 2.4786-.162 3.3264-.54 1.08.7128 1.8684.189 3.0132s-.8478.2808-1.3446 1.2852-.3942.4968-1.3986.7776c-.8532.2376-1.1718.972-1.8792 1.3932-.3532.1868-.741.299-1.1394.3294zm109.1769-10.4706c.118-.9736.478-1.902 1.048-2.7.108-.1458.232-.2862.324-.4374.086.0536.164.119.232.1944.292.3186.113.5994.286.918.087.1566.319.0972.486.162.286.1134.297.5886.594.6696.089.0188.181.0188.27 0h.2c.223-.0216.447-.0216.67 0 .056.0004.111.0193.156.054.141.1134 0 .324-.054.5022-.022.0945-.011.1938.033.2808.077.1522.2.2767.351.3564l.162.0864c.113.2214.032.4374.156.6642.07.135.281.081.427.1404.254.1026.264.54.54.594.08.0161.163.0161.243 0 .254-.0351.512-.0351.767 0 .05.0002.099.0153.14.0432.124.1026 0 .2916-.049.4482-.008.1145.021.2285.082.3256s.152.1722.259.2144c.218.0919.423.2117.61.3564.059.0806.13.1516.21.2106.088.036.182.0508.276.0432.892.0279 1.766.2548 2.559.6642.214.1255.461.1815.708.1602s.481-.1188.669-.279c.087-.0864.152-.1944.238-.2916.389-.4266 1.08-.3618 1.62-.3726.268.0304.54.0084.799-.0648.151-.1045.277-.24.37-.3975s.151-.3332.17-.5151c.58.0723 1.168-.0213 1.696-.27.164-.1016.313-.2252.443-.3672.004.0213.004.0434 0 .0648-.378.8262-.61.2052-.972.9288s-.287.3564-1.01.54c-.621.1728-.848.702-1.361 1.0098-.528.2487-1.116.3423-1.696.27-.019.182-.077.3576-.17.5151s-.219.293-.37.3975c-.259.0732-.531.0952-.799.0648-.54 0-1.209-.054-1.62.3726-.086.0972-.151.2052-.237.2916-.189.1602-.423.2577-.67.279s-.494-.0347-.707-.1602c-.793-.4094-1.668-.6363-2.56-.6642-.094.0076-.188-.0072-.275-.0432-.081-.059-.152-.13-.211-.2106-.187-.1447-.392-.2645-.61-.3564-.107-.0422-.197-.1173-.259-.2144-.061-.0971-.089-.2111-.081-.3256.037-.1566.172-.3456.048-.4482-.041-.0279-.09-.043-.14-.0432-.254-.0351-.513-.0351-.767 0-.08.0161-.163.0161-.243 0-.259-.0756-.27-.4914-.54-.594-.146-.0594-.356 0-.427-.1404-.151-.2808 0-.54-.253-.8154-.276-.2608-.632-.4191-1.01-.4482-.053.0068-.106-.0047-.151-.0324-.03-.0315-.051-.0708-.06-.1134-.019-.2354-.019-.472 0-.7074.009-.1181-.018-.2362-.078-.3384-.06-.1023-.149-.1839-.257-.234-.059 0-.129 0-.167-.0702-.018-.0234-.031-.0505-.038-.0794-.006-.029-.006-.0591 0-.088z" fill="#000" opacity=".1"/><path d="m175.927 45.0212c-.093-.2138-.243-.398-.433-.5323-.191-.1343-.415-.2136-.647-.2291-.354.056-.688.1989-.972.4158-.144.1066-.312.1757-.489.2011-.178.0255-.358.0065-.526-.0553-.128-.0816-.241-.1838-.335-.3024-.832-.8154-2.22-.3888-3.294-.6372-.319-.0702-.643-.3564-.994-.2052-.224.1244-.422.2913-.583.4914-.082.1-.185.1811-.302.2379-.116.0568-.243.088-.373.0915-.131-.0171-.259-.0479-.383-.0918-.508-.1458-.891.1242-1.345.0756-.119.2916-.41.324-.659.54-.41.3456-.075.972-.21 1.458-.011.0689-.047.131-.103.1728-.082.0456-.177.0644-.27.054h-1.62c-.082-.01-.165.0112-.232.0594-.065.081 0 .1944 0 .297.043.4158-.745.4914-.929.8802-.103.2106 0 .4482 0 .6804 0 .3726-.34.675-.594.972-.718.8756-1.183 1.9306-1.345 3.051v.081c-.27-.0207-.541-.0117-.81.027-.101.0189-.206.0189-.307 0-.335-.0864-.351-.54-.67-.6696-.189-.0702-.454 0-.54-.162-.2-.3186 0-.6048-.324-.9234-.366-.3001-.818-.476-1.291-.5022-.067.0084-.136-.0068-.194-.0432-.039-.0323-.065-.0788-.07-.1296-.025-.264-.025-.5297 0-.7938.009-.1397-.028-.2786-.105-.3956s-.19-.2056-.322-.2524c-.075 0-.167 0-.216-.0756-.019-.0262-.031-.0563-.037-.0881-.005-.0318-.004-.0644.005-.0955.16-1.12.623-2.1749 1.339-3.051.259-.3024.578-.5994.599-.9774 0-.2268-.102-.4698 0-.6804.184-.3834.967-.459.918-.8802 0-.1026-.064-.216 0-.2916.032-.0247.069-.0428.108-.053s.079-.0124.119-.0064h1.62c.094.0101.188-.0088.27-.054.055-.0401.092-.1003.103-.1674.135-.4914-.2-1.1178.216-1.458.243-.2052.54-.2322.659-.54.442.054.831-.216 1.333-.0756.126.0457.257.0783.389.0972.131-.0061.258-.039.375-.0966s.221-.1386.306-.2382c.157-.1997.354-.3651.577-.486.351-.1512.675.1296.994.2052 1.08.243 2.462-.1836 3.289.6372.1.1147.214.2163.34.3024.169.062.351.0806.529.0542.179-.0264.347-.097.491-.2054.284-.2142.616-.3552.967-.4104.233.0132.457.0909.647.2245.191.1335.341.3176.433.5315.182.261.424.4744.706.6219.282.1476.596.2251.914.2259.144-.0016.287.0291.418.0899.131.0607.246.1499.338.2611.157.2538.076.54.378.6804s.648-.0378.934.027c.496.1339.94.4144 1.275.8046.121.1592.204.3439.243.54.081.216-.125.4104.178.594.174.0717.355.1242.54.1566.199.0332.378.1399.502.2989s.184.3587.167.5597h-.075c-.318-.0002-.631-.0769-.913-.2235s-.524-.3589-.707-.6189z" fill="#000" opacity=".1"/><path d="m99.1332 52.5326c-.0874.0756-.1481.1773-.1734.2901-.0253.1127-.0137.2306.033.3363.0972.194.1768.3964.2376.6048.014.0402.014.084 0 .1242-.0343.0454-.0844.0762-.1404.0864-.3558.1581-.6526.4246-.8478.7614-.1566.3402.0756.5022 0 .8046 0 .1458-.2484.1782-.378.2862s-.0918.54-.324.7074c-.0739.0405-.1543.0679-.2376.081-.2191.0479-.4327.1185-.6372.2106-.0068-.0208-.0158-.0407-.027-.0594-.446-.8205-1.1092-1.5024-1.917-1.971-.2808-.1566-.621-.2916-.7398-.5778-.0702-.1782-.054-.3942-.1944-.54-.2538-.2484-.8856-.081-.972-.4158 0-.081 0-.189-.081-.2322-.0632-.0206-.1313-.0206-.1944 0l-1.2312.4806c-.0703.0343-.1497.0457-.2268.0324-.0549-.0162-.1013-.053-.1296-.1026-.243-.3348-.162-.918-.5832-1.08-.243-.0864-.4806-.027-.6588-.216-.3348.1674-.7074.0702-1.08.3294-.0844.0691-.1747.1305-.27.1836-.1011.0334-.2081.0453-.3141.0351s-.2087-.0424-.3015-.0945c-.1819-.1103-.3838-.1837-.594-.216-.3132 0-.4806.3024-.7074.4428-.756.5022-1.9548.5724-2.3598 1.4418-.0381.1189-.0966.2304-.1728.3294-.112.0963-.246.1634-.3901.1954-.1441.0321-.2939.028-.4361-.0118-.2817-.0867-.5806-.1016-.8694-.0432-.176.0787-.3267.2046-.4354.3638-.1086.1592-.171.3454-.1802.538-.0642.253-.1885.4868-.3624.6814-.174.1946-.3924.3443-.6366.4364h-.054c-.0712-.1495-.0834-.3202-.0344-.4783s.1558-.2919.299-.3749c.1333-.0763.2566-.1688.3672-.2754.1836-.2268-.0324-.3186-.0324-.5076-.0418-.1648-.0418-.3374 0-.5022.1481-.3957.4091-.7393.7506-.9882.2052-.1296.54-.0918.7128-.2862s.054-.3996.0972-.6372.2646-.378.486-.4914c.2442-.0921.4626-.2418.6366-.4364.1739-.1946.2982-.4284.3624-.6814.0093-.1912.0719-.3759.1806-.5334.1088-.1574.2595-.2813.435-.3576.2866-.0604.5838-.0474.864.0378.1426.041.293.0462.4381.0151s.2802-.0975.3935-.1933c.073-.1038.1329-.2162.1782-.3348.3996-.8694 1.62-.9396 2.3544-1.4364.2214-.1512.3942-.459.7074-.4428.2084.0265.4089.0964.5886.2052.0935.0528.1969.0858.3037.097.1069.0111.2149.0002.3173-.0322.0983-.053.1906-.1163.2754-.189.3456-.2484.7236-.1566 1.053-.324.1782.1944.4104.1296.6588.2214.4212.1404.3402.7236.5832 1.08.0289.048.0754.0828.1296.0972.0753.0132.153.0019.2214-.0324l1.242-.4806c.0297-.0133.0619-.0201.0945-.0201.0325 0 .0647.0068.0945.0201.0756.0378.0594.1458.0864.2268.081.3348.7128.1674.9612.4104.1458.135.1296.3564.1998.54.1242.2862.459.4212.7398.5832.8078.4686 1.471 1.1505 1.917 1.971.0104.0238.0158.0496.0158.0756s-.0054.0517-.0158.0756c-.0119.0576-.0379.1114-.0756.1566z" fill="#000" opacity=".1"/><path d="m75.3895 117.7c-.3445-.261-.6069-.615-.756-1.021-.504-1.055-1.0044-2.108-1.5012-3.159-1.8792.243-3.6234-1.134-5.5188-1.145-1.215 0-2.3814.54-3.5964.508s-2.5542-1.177-2.0682-2.29l-7.7706 1.89c.3456 1.745-1.08 3.44-2.7486 4.034s-3.51.373-5.2704.141c-1.6524 1.225 0 4.363-1.5606 5.724-.4453.295-.9129.555-1.3986.777-.3276.247-.5934.566-.7765.933-.183.367-.2783.771-.2783 1.181s.0953.815.2783 1.182c.1831.366.4489.686.7765.932.4693.223.9206.481 1.35.773 1.5606 1.371-.1728 4.428 1.323 5.869.378.362.8964.54 1.2582.913 1.2474 1.274-.0918 3.726 1.08 5.081.3937.397.8799.691 1.4148.854l6.7824 2.7 2.2086.88c.9307.418 1.9077.724 2.9106.912 1.1075.116 2.2252.09 3.3264-.075l6.8634-.735c.6203-.014 1.2244-.201 1.7442-.54.1236-.089.2282-.202.3078-.332.0795-.13.1324-.275.1555-.426.0231-.15.016-.304-.0209-.452s-.1028-.287-.194-.41c.972-.502 2.16-.291 3.24-.378 1.08-.086 2.3598-.75 2.3328-1.846 0-.708-.5778-1.383-.351-2.047.3348-.977 1.8792-.794 2.5542-1.571.675-.778.0432-2.106-.4752-2.846 2.8134.443 2.7756-2.932 2.8674-4.747.0972-1.955 1.0422-4.293.7236-6.226-.3834-2.333-1.4742-1.712-3.3696-2.16-1.5282-.378-1.7604-1.08-2.9268-1.874-.972-.626-1.9926-.443-2.916-1.004z" fill="#e7a03f"/><path d="m43.2 127.393c.4686.221.9198.478 1.35.767 1.566 1.371-.1782 4.428 1.323 5.869.3726.362.8964.54 1.2582.908 1.2474 1.279-.0972 3.731 1.08 5.086.3972.394.882.689 1.4148.859l6.777 2.7 2.2086.88.4428.173c.7916.344 1.6221.591 2.4732.734 1.1054.12 2.2216.097 3.321-.07l6.8688-.734c.6203-.014 1.2244-.201 1.7442-.54.1242-.089.2294-.202.3094-.332.0799-.13.1331-.275.1562-.426.0232-.151.0159-.305-.0214-.453s-.1039-.287-.1958-.409c.9774-.497 2.16-.297 3.24-.378s2.3598-.751 2.3328-1.847c0-.707-.5832-1.388-.351-2.047.3348-.977 1.8738-.788 2.5542-1.571s.0432-2.106-.4752-2.851c2.8134.448 2.7702-2.927 2.8674-4.741.0972-1.955 1.0422-4.293.729-6.227-.0527-.403-.1752-.794-.3618-1.155-.54-.956-1.5336-.659-3.0078-1.021s-1.7658-1.08-2.9268-1.874c-.945-.631-1.971-.442-2.889-1.009-.3416-.262-.6034-.613-.756-1.016-.4968-1.08-1.0044-2.111-1.5012-3.169-1.8792.248-3.6234-1.124-5.5134-1.14-1.2204 0-2.3868.54-3.6018.508-1.215-.033-2.5542-1.172-2.0628-2.284-2.5974.621-5.184 1.258-7.776 1.89.3456 1.738-1.08 3.434-2.7486 4.028s-3.5154.378-5.2704.14c-1.6524 1.226 0 4.364-1.5606 5.719-.4531.307-.9319.575-1.431.799-.3286.247-.5953.566-.7791.934-.1837.367-.2793.772-.2793 1.183s.0956.816.2793 1.183c.1838.368.4505.687.7791.934z" fill="#000" opacity=".3"/><path d="m58.5522 139.737c-.0028 1.026-.1242 2.048-.3618 3.046.0912.066.1778.138.2592.216.3858.45.5899 1.027.5724 1.62.7916.344 1.6221.59 2.4732.734 1.1054.12 2.2217.096 3.321-.07l6.8688-.734c.6204-.015 1.2245-.202 1.7442-.54.1243-.089.2294-.202.3094-.332s.1331-.275.1562-.426c.0232-.151.0159-.305-.0214-.453s-.1039-.287-.1958-.409c.9774-.497 2.16-.297 3.24-.378s2.3598-.751 2.3328-1.847c0-.708-.5832-1.388-.351-2.047.3348-.977 1.8738-.788 2.5542-1.571s.0432-2.106-.4752-2.851c2.8134.448 2.7702-2.927 2.8674-4.742.0972-1.954 1.0422-4.293.729-6.226-.0527-.403-.1751-.794-.3618-1.155-1.1664.07-2.295-.449-3.4398-.816.0918.123.158.263.1944.412.0365.149.0425.303.0178.454-.0247.152-.0796.296-.1616.426-.0819.129-.1891.241-.3152.328-.5181.338-1.1202.525-1.7388.54l-6.8688.735c-1.0991.168-2.2153.193-3.321.075-.7659-.131-1.5155-.345-2.2356-.637-.05.119-.1194.228-.2052.324-.675.783-2.2194.594-2.5542 1.571-.2322.659.3348 1.34.351 2.047 0 1.08-1.2366 1.76-2.3328 1.847-1.0962.086-2.2626-.119-3.24.378.0922.121.1591.26.1969.408.0377.148.0454.302.0228.453s-.0752.296-.1547.426c-.0794.13-.1842.244-.308.333-.522.338-1.1277.525-1.7496.54h-.0972c1.6686.308 2.646-.087 3.0078 2.09.3132 1.938-.6318 4.276-.729 6.231z" fill="#000" opacity=".3"/><path d="m98.075 71.6325s2.446 1.404 2.781 3.6504.2 3.375 2.873 3.78 6.431 5.3514 6.75 7.317c.156.9828 1.62 1.2366 3.515 1.539 1.896.3024 4.137.648 5.848 1.8144-.043 2.0088.368 3.7422 1.232 4.86 1.792 2.5141 3.415 5.1443 4.86 7.8727.712 1.55 3.909 17 2.122 22.616-1.042 3.267 2.052.507 4.822-2.371 1.987-2.068 3.812-4.201 3.812-4.201s-3.58-16.351-7.813-20.3689c-4.234-4.0176-5.838-8.073-5.546-13.8294.291-5.7564-1.042-6.0264-3.273-7.6302-2.23-1.6038 2.474-7.8516 2.042-10.2276s-.87-3.9906-.87-3.9906l-.993.7614s.172 2.7756-.195 4.2552-4.482 6.2802-1.906 10.0008c2.43 3.51 2.7 5.7402 2.16 8.7156-2.122-.2592-7.398-.9558-8.1-1.5822-.891-.783-3.1-5.94-5.168-6.372-.605-.1223-1.196-.3032-1.766-.54-1.366-.5724-2.602-1.4904-3.094-2.6352-.038-.0824-.07-.1672-.097-.2538-.014-.0459-.03-.0909-.049-.135-.484-1.0406-1.175-1.972-2.03-2.7378-.54-.54-1.026-.9126-1.026-.9126z" fill="#263238"/><path d="m63.7202 137.572s2.0466 0 3.024.642c.9774.643 2.646.351 3.834-.253 1.188-.605 4.32 1.08 5.0598 1.08.594.027 3.4722-1.712 4.6224-2.42-.9018-1.684-1.9224-2.673-4.5036-3.445-2.7378-.81-2.5974-4.8-2.997-5.675-.4436-.778-.9744-1.503-1.5822-2.16l.189-.767s.8586.621 2.0034 1.62 1.3014 5.94 3.0348 5.843 2.4894-.486 4.6224 2.468c2.133 2.953 4.5198 4.32 8.1918 4.627 1.3716.114 3.3696 1.113 5.3406 2.312-.9018-6.659-2.4894-17.329-4.6818-19.44-3.132-2.992-10.2114-15.99-11.5128-17.761-.2066-.391-.3368-.818-.3834-1.258-2.4354-1.906-5.7132-4.4552-6.8742-5.3192-1.9386-1.4418-7.3008-11.2698-7.3008-11.2698h1.62s4.6602 6.804 6.1506 7.884c.8586.6156 4.725 1.9818 6.9822 2.916-.2268-6.5988.5076-9.8118.6318-12.1284-.0348-2.0279-.2754-4.0471-.7182-6.0264h1.3554c.5832 2.4192 1.08 4.833 1.0422 6.1884-.0378 3.429 1.9548 12.0582 3.0294 14.2128.2916.5776 1.323 2.1596 2.7432 4.2286 1.0152-1.237 2.2464-2.7 2.6568-3.116.7452-.74 6.8202-9.515 7.3602-10.4222s1.8036-5.8104 1.8036-5.8104l1.0368.7452s-1.6902 5.94-2.8404 7.7868c0 0-4.5306 7.1986-5.5728 9.7576-.54 1.302-1.215 3.289-1.7658 4.93 3.8124 5.46 8.5428 12.069 10.5084 14.769 2.84 3.91 6.723 18.668 7.868 23.177h67.802c-.216-.232 0-.615.832-1.204 4.822-3.386 11.637-17.62 12.004-19.283.501-3.05.797-6.129.886-9.218 0-1.431.723-3.057 1.976-4.639-1.318-3.915-6.367-6.577-5.427-8.332s.945-7.965-.94-9.909c-1.884-1.944-1.08-2.7594 0-4.7466s0-4.5954 0-4.5954h1.08s.81 3.1374.179 4.8924c-.632 1.755.469 4.2012 1.863 5.7888 1.393 1.5876 0 7.0198.253 8.1968.189.929 3.964 4.682 5.498 6.173 2.241-2.036 3.369-3.986 3.558-8.246.2-4.5092 6.383-5.8322 7.56-6.7826s2.733-3.267 2.733-3.267h1.252s-.626 1.5552-1.722 3.699-8.64 4.2822-7.819 6.9066c.82 2.624 1.706 3.645-2.015 8.051-3.72 4.407-4.903 8.603-3.958 14.364.945 5.762-6.113 20.947-6.113 20.947s-3.564.767-6.771 1.204h5.259s-3.996 3.51-8.326 4.887c-4.331 1.377-3.197 2.619-7.02 6.934-3.824 4.314-10.061.345-13.533 4.925-3.472 4.579-.054 11.923 3.019 15.957 3.072 4.033 10.092 1.62 13.5 5.232 3.407 3.613 3.629 6.955 10.384 6.21s9.904 4.137 9.904 4.137h-111.586s8.4618-5.508 13.1166-5.13 5.6914-4.601 15.0014-8.268c9.309-3.666 6.442-13.035-3.883-18.9-2.631-1.46-4.939-3.44-6.7822-5.819-1.8435-2.379-3.1846-5.108-3.942-8.021-2.5542-2.57-5.454-4.892-6.021-5.179-1.7927-.772-3.6345-1.425-5.5134-1.954-1.0316-.344-1.9215-1.018-2.5326-1.917-2.6028.205-5.0112 2.889-5.94 2.046-.9288-.842-4.7358-1.798-6.2154-.945s-1.8576.249-2.9106-.729c-1.053-.977-2.808-.702-2.808-.702z" fill="#263238"/><path d="m149.672 82.0814c-2.473 5.0166-5.838 11.961-5.838 11.961l6.367-.405 4.32-.2754s2.365-11.3724 3.17-13.1706c.804-1.7982 5.151-7.2846 8.305-9.9522s6.534-9.8712 6.534-9.8712l-.308-.3024-.988-.9558s-4.055 6.9012-4.952 7.6842c-.896.783-8.424 5.94-9.52 7.209-.918 1.08-2.927 1.4472-4.061 2.4732-.702-.8046-1.544-1.7766-2.23-2.6028.464-1.7658 1.231-4.752 1.463-6.1398.265-1.62.821-5.94 1.08-7.7868.065-.54.103-.837.103-.837l-1.22.7884s-.751 5.3244-1.221 7.2846c-.464 1.5751-1.032 3.1175-1.701 4.617-1.166-1.5012-6.804-7.3602-6.804-7.3602l-1.231.783s3.92 5.1732 5.573 8.154c1.155 2.133 2.495 6.4314 3.159 8.7048z" fill="#263238"/><g fill="#fff" opacity=".1"><path d="m190.177 123.003c-.313.955-1.382 9.266-1.382 9.266l-5.4 10.886c-1.159.362-2.298.784-3.413 1.264-1.507.675-4.466 1.08-4.466 1.08l-.065-.302c.071-.227.351-.54.897-.902 4.822-3.386 11.637-17.62 12.004-19.284.501-3.049.797-6.128.886-9.217 0-1.431.723-3.057 1.976-4.639-1.204-3.586-5.54-6.118-5.54-7.868-.003-.162.036-.322.113-.464.945-1.755.945-7.9652-.94-9.9092-1.884-1.944-1.08-2.7594 0-4.7466s0-4.5954 0-4.5954h1.08s.81 3.1374.179 4.8924c-.632 1.755.469 4.2012 1.863 5.7888 1.393 1.5876 0 7.02.253 8.197.189.929 3.964 4.682 5.498 6.172 2.241-2.035 3.369-3.985 3.558-8.245.2-4.5094 6.383-5.8324 7.56-6.7828s2.733-3.267 2.733-3.267h1.252s-.086.216-.248.594c-2.489 2.5056-7.02 5.3622-7.02 5.3622s-2.16.216-2.381 2.16c-.222 1.9436-.978 6.8746-.978 6.8746l-5.859 7.338s-1.847 9.396-2.16 10.347z"/><path d="m167.875 66.3512c-1.663.54-7.938 7.533-7.938 7.533s-3.823 4.968-4.158 5.157-4.077 8.2674-4.995 10.4814c-.297.7128-.475 2.2788-.583 4.1148l-6.367.405s3.365-6.9444 5.838-11.961c-.664-2.2734-2.004-6.5718-3.186-8.7048-1.653-2.9808-5.573-8.154-5.573-8.154l1.226-.783s5.637 5.859 6.804 7.3602c.669-1.4995 1.237-3.0419 1.701-4.617.47-1.9602 1.22-7.2846 1.22-7.2846l1.221-.7884s-.038.3186-.103.837c-.238 1.836-.794 6.1938-1.08 7.7868-.232 1.3878-.999 4.374-1.463 6.1398.685.8262 1.528 1.7982 2.23 2.6028 1.134-1.026 3.143-1.4202 4.061-2.4732 1.08-1.2528 8.64-6.426 9.52-7.209s4.952-7.6842 4.952-7.6842l.988.9558c-1.383 2.6298-3.327 5.9508-4.315 6.2856z"/><path d="m101.984 74.6293c-.589-.9745-1.268-1.8911-2.0299-2.7378.8549.7659 1.5459 1.6973 2.0299 2.7378z"/><path d="m131.879 117.694c.027-1.236-2.786-11.82-3.337-14.466s-7.08-14.6773-7.08-14.6773-3.396-1.242-5.437-1.1286c-2.042.1134-2.927-.8532-4.029-1.8576-1.101-1.0044-2.16-4.5522-4.86-6.5232-.675-.486-1.312-.9396-1.901-1.35.57.2368 1.161.4177 1.766.54 2.068.4266 4.277 5.589 5.168 6.372.713.6264 5.989 1.323 8.1 1.5822.54-2.9754.27-5.2056-2.16-8.7156-2.576-3.7098 1.55-8.505 1.922-9.9792.373-1.4742.195-4.2552.195-4.2552l.993-.7614s.443 1.62.87 3.9906c.426 2.3706-4.272 8.64-2.041 10.2276 2.23 1.5876 3.564 1.8684 3.272 7.6302s1.307 9.8118 5.546 13.8294c4.239 4.0171 7.814 20.3691 7.814 20.3691s-1.826 2.133-3.813 4.201c-.818-1.542-1.162-3.291-.988-5.028z"/><path d="m94.5812 141.449c-.036-.277-.0738-.558-.1134-.842.1566.442.2052.734.1134.842z"/><path d="m65.4697 86.4122s4.617 6.7878 6.1074 7.8678c.8586.6156 4.7304 1.9818 6.9822 2.916-.2268-6.5988.5076-9.8118.6318-12.1284-.0348-2.0279-.2755-4.0471-.7182-6.0264h1.3554c.5832 2.4192 1.08 4.833 1.0422 6.1884-.0378 3.429 1.9548 12.0582 3.0294 14.2128.2916.5776 1.323 2.1596 2.7432 4.2286 1.0152-1.237 2.2464-2.7 2.6568-3.116.7452-.74 6.8202-9.515 7.3602-10.4222s1.8036-5.8104 1.8036-5.8104l1.0368.7452s-1.6902 5.94-2.8404 7.7868c0 0-4.5306 7.1986-5.5728 9.7576-.54 1.302-1.215 3.289-1.7658 4.93 3.8124 5.46 8.5428 12.069 10.5084 14.769 2.8401 3.91 6.7231 18.668 7.8681 23.177 0 0-4.893-3.585-5.816-4.806-.924-1.22-4.4065-7.236-4.3201-10.071s-3.3858-5.988-3.3318-6.831c.054-.842-7.9596-16.821-7.9596-16.821s-3.861-5.497-5.7618-7.0198-5.6322-3.4452-8.5698-3.6612c-1.8306-.1296-5.4702-5.5458-7.9434-9.585l-.0648-.1134-.0918-.1728z"/><path d="m73.3915 126.199c1.1502.999 1.3014 5.94 3.0348 5.843s2.4894-.486 4.6224 2.468 4.5198 4.32 8.1918 4.628c1.3716.113 3.3696 1.112 5.3406 2.311-.8748 1.015-1.1502-.281-2.565-.767s-5.5728-1.533-9.0558-2.657c-1.2474-.399-2.2842-.696-3.186-1.08l.5076-.313c-.9018-1.685-1.9224-2.673-4.5036-3.445-.8211-1.417-1.7226-2.785-2.7-4.099-.0614-.534-.1698-1.061-.324-1.576-.4436-.778-.9745-1.503-1.5822-2.16l.189-.767s.8856.61 2.0304 1.614z"/><path d="m82.01 193.77h11.1888c1.4463-1.157 3.2305-1.809 5.0814-1.858 1.3338-.027 2.6998.259 3.9798-.103 2.754-.783 4.028-4.19 6.707-5.205.761-.286 1.593-.362 2.333-.691.739-.33 1.252-.8 1.922-1.08.983-.443 2.128-.454 3.067-.978 1.285-.723 1.896-2.268 2.052-3.731.157-1.464-.048-2.959.092-4.428.038.939.07 1.874.108 2.813.089 1.082.038 2.171-.151 3.24-.199 1.086-.808 2.053-1.701 2.7-.358.212-.734.393-1.123.54-.802.347-1.584.736-2.344 1.167-1.647.934-3.24 2.16-3.98 3.904.502 0 .897-.405 1.318-.686.745-.497 1.69-.572 2.57-.734.556-.082 1.092-.265 1.582-.54-.69.891-1.333 1.817-1.927 2.775-.719 1.013-1.5 1.979-2.339 2.895h2.241c2.74-2.481 5.577-4.841 8.511-7.08l-1.215 3.553c3.823-2.424 5.556-7.02 7.052-11.286-.615 2.859-1.13 5.739-1.544 8.64-.2 1.404-.378 2.819-.47 4.239 1.447-.588 2.992-1.258 3.78-2.597.362-.464 1.08.13 1.199.707.119.578.086 1.307.61 1.577l1.377-2.7c.349-.613.607-1.273.767-1.96.075-.639.075-1.284 0-1.922-.174-3.184.158-6.376.983-9.456.375-1.107.589-2.261.637-3.429.318 3.283-.54 6.626-.346 9.931.119 2.046.637 4.061.724 6.107.086 2.047-.313 4.223-1.739 5.681l4.606-2.657c.503-.267.973-.594 1.399-.972.369-.383.694-.807.966-1.263l2.641-4.056c.677 1.75 1.354 3.499 2.03 5.249.438 1.134.783 2.516 1.318 3.699h6.734c.367-1.053.043-2.268-.286-3.359.47.907 1.255 1.611 2.208 1.979s2.007.375 2.965.019c-.654-1.577-1.815-2.883-2.949-4.163l-3.78-4.245c1.62.843 3.327 1.718 4.515 3.127.599.718 1.112 1.62 1.992 1.928 1.34.502 3.192-.421 4.104.68.443.54.422 1.361.881 1.885s1.328.594 2.068.659c1.623.149 3.193.658 4.595 1.49h2.047c-.822-.519-1.561-1.158-2.193-1.895-.54-.659-1.08-1.475-1.9-1.658-.505-.01-1.008-.054-1.507-.13-.697-.243-1.021-1.026-1.566-1.523-.413-.334-.883-.59-1.388-.756l-2.883-1.193c-1.01-.405-2.117-.896-2.571-1.895.594.961 1.858.54 2.776.718 1.118.205 1.863.718 2.846 1.209.734.373 1.62.233 2.376.589.264.189.569.313.891.362-.503-.805-1.08-1.56-1.723-2.257-.583-.632-1.463-.54-2.214-.935-.723-.394-1.369-.915-1.906-1.539-.365-.534-.829-.994-1.366-1.355-.308-.111-.601-.262-.87-.448-.179-.187-.317-.41-.405-.654l-.605-1.382c.353.362.776.648 1.242.842l.265.141c.003.01.003.022 0 .032.23.781.739 1.45 1.431 1.879.907.54 1.728.605 2.581 1.323.427.372.959.602 1.523.659l.113.07c1.421.773 3.24.832 4.86 1.118.388.029.755.187 1.043.448.123.166.223.347.297.54 1.117 2.479 3.979 3.716 5.497 5.94.389.602.814 1.179 1.274 1.728h16.659s-3.143-4.86-9.903-4.136c-6.761.724-6.956-2.581-10.385-6.21s-10.443-1.204-13.5-5.233c-3.056-4.028-6.48-11.377-3.018-15.957.901-1.187 2.215-1.993 3.683-2.257 0-.95.113-2.122-.114-3.045-.248-1.01-.799-1.745-.745-2.862-.043.907-1.237 1.62-1.933 1.944-.443.205-.654.145-.967.507s-.313 1.015-.713 1.437c-.399.421-.874.745-1.242 1.188-.23.297-.429.617-.594.955-.587 1.135-1.059 2.325-1.409 3.554l.016-1.858c-.031-.488.102-.973.378-1.377.567-1.004 1.404-2.095 1.788-3.186.334-.95.091-2.198.129-3.24-.939 1.517-1.917 3.083-3.396 4.088-.376.223-.737.47-1.08.74-.394.438-.755.906-1.08 1.398-.491.499-.935 1.042-1.329 1.62-.583 1.08-.378 2.355-.383 3.564 0 1.62-.416 2.943 0 4.585.366 1.477 1.11 2.834 2.16 3.936.232.21.425.459.572.735.096.264.142.545.135.826.033 1.037.038 2.074 0 3.11 0 .238-.097.54-.329.54-.135 0-.222-.151-.292-.27l-2.916-5.232c-.278-.445-.487-.929-.621-1.437-.216-1.08.135-2.127.205-3.164.007-1.126-.176-2.245-.54-3.31-.501-1.638-.711-3.35-.621-5.06-.108 1.183-.826 2.479-1.036 3.688-.211 1.21-.233 2.5-.54 3.667-.54 1.836.734 3.78.162 5.513-.243.745-1.712-2.43-1.842-2.7-.178-.383-.362-.912-.605-1.361-1.236.357.125 3.651.54 4.261.164.21.312.432.443.664.373.745.211 1.62.394 2.452.208.658.483 1.294.821 1.895.416.913.443 1.869.708 2.797.297 1.043.745 2.042 1.036 3.095.189.702 1.14 6.004 1.799 6.085l-.54-.064c-.422-.054-2.101-5.795-2.382-6.48-.448-1.08-.945-2.096-1.452-3.127-.416-.853-1.08-1.49-1.496-2.344-.103-.216-.351-.475-.54-.307-.044.05-.072.112-.081.178-.358 1.074-.608 2.181-.745 3.305-.065 1.366.102 2.662-.362 3.99-.337.857-.778 1.67-1.312 2.419-.643.989-1.507 2.09-2.7 2.036 1.171-1.382 2.042-2.994 2.556-4.732.514-1.737.66-3.563.43-5.36-.124-.94-.357-1.869-.4-2.814-.086-1.938.6-3.812.886-5.729.21-1.393.038-3.553-.853-4.704-.852-.951-1.434-2.112-1.685-3.364-.304-.977-.781-1.892-1.41-2.7l-2.381-3.467c.837 1.929 1.28 4.006 1.301 6.108-2.381-.853-3.24-3.721-5.065-5.492-1.123-1.08-2.651-1.82-3.445-3.181-.413.513-.788 1.054-1.123 1.62-.272.743-.43 1.522-.47 2.312-.092 1.257.023 2.521.34 3.742.265 1.42-.286 2.91.281 4.287.194.476.513.891.707 1.367.156.398.256.816.297 1.242.428 3.351-.433 6.74-2.408 9.482.713-1.134 1.153-2.418 1.287-3.752.134-1.333-.042-2.679-.515-3.932-.429-1.142-.613-2.362-.54-3.58 0-1.172-.237-2.16-1.182-2.884-2.862-2.192-4.698-5.4-6.48-8.564-.023 1.303-.146 2.603-.368 3.888-.091.405-.129.821-.113 1.236.04.336.118.665.232.983.583 1.8 1.197 3.586 1.842 5.357-2.603-2.387-2.987-6.723-5.967-8.613-.286-.155-.557-.336-.81-.54-.325-.383-.616-.793-.87-1.226-.912-1.21-2.7-1.62-3.45-2.911l-.146 3.78c-1.62-.669-2.203-2.295-3.294-3.504-.54-.6-2.517-2.862-3.3806-1.62-.4428.626 0 2.16.6536 3.677 1.686 1.889 3.671 3.489 5.875 4.736 10.325 5.886 13.192 15.255 3.883 18.9-9.31 3.645-10.3468 8.64-15.0016 8.267-4.6548-.372-13.0734 5.147-13.0734 5.147z"/></g><path d="m134.32 171.171c.048.291.086.583.108.88-.004-.297-.041-.592-.108-.88z" fill="#263238"/><path d="m114.723 188.1c.289-.177.53-.422.702-.713-.251.22-.486.458-.702.713z" fill="#263238"/><path d="m81.5671 148.204h-.27v30.969h.27z" fill="#263238"/><path d="m93.1448 148.204h-.27v30.969h.27z" fill="#263238"/><path d="m105.37 84.5384 14.904 25.2666h66.194l-14.899-25.2666z" fill="#e7a03f"/><path d="m105.37 84.5384 14.904 25.2666h65.2l-14.904-25.2666z" fill="#000" opacity=".3"/><path d="m121.462 109.81h66.221v-1.026h-66.221z" fill="#e7a03f"/><path d="m121.462 109.81h66.221v-1.026h-66.221z" fill="#000" opacity=".3"/><path d="m186.684 109.778h.999v-.999h-.999z" fill="#e7a03f"/><path d="m155.18 87.152v62.57h26.433v-41.1l-12.663-21.47z" fill="#e7a03f"/><path d="m155.18 87.152v62.57h26.433v-41.1l-.988-1.679-.178-.297-.362-.616-.124-.205-.654-1.08-.178-.297-.292-.502-.162-.254-.685-1.166-.179-.297-1.139-2.009-.178-.297-.254-.4374-.054-.0918-.826-1.404-.173-.2916-.351-.5778-.167-.2808-.627-1.08-.173-.297-1.144-1.9386-.173-.297-.594-1.0098-.157-.2646-.394-.6642-.173-.2916-.464-.7884-.114-.1944-.54-.9558-.178-.297-.961-1.62z" fill="#fff" opacity=".5"/><path d="m155.18 105.453h-58.8438v44.269h58.8438z" fill="#e7a03f"/><path d="m155.18 105.453h-58.8438v44.269h58.8438z" fill="#fff" opacity=".7"/><g fill="#000" opacity=".3"><path d="m181.559 111.447h-85.2228v.172h85.2228z"/><path d="m181.559 115.259h-5.135c.453 0 .901.059 1.35.113.841.127 1.693.176 2.543.146-.849.097-1.706.097-2.554 0-.848-.075-1.696-.124-2.544-.124-.847 0-1.701 0-2.554.027l-2.554.086c.848-.086 1.696-.162 2.549-.21h.54-76.8638v-.178h85.2228z"/><path d="m181.559 118.715h-85.2228v.173h85.2228z"/><path d="m181.559 129.612h-85.2228v.173h85.2228z"/><path d="m181.559 133.246h-85.2228v.173h85.2228z"/><path d="m181.559 136.875h-85.2228v.173h85.2228z"/><path d="m181.559 140.509h-85.2228v.173h85.2228z"/><path d="m161.055 119.66c-.552-.068-1.107-.105-1.663-.108-.54 0-1.107.054-1.663.103.54-.076 1.08-.152 1.663-.184.559-.014 1.118.008 1.674.065 1.107.111 2.219.158 3.332.14l3.342-.054c.54 0 1.113 0 1.674.038.562.038 1.113.086 1.664.157-2.225-.179-4.45 0-6.68.027-1.117.009-2.234-.053-3.343-.184z"/><path d="m120.155 121.01c-.551-.074-1.106-.11-1.663-.108-.54 0-1.107.049-1.663.097.54-.075 1.08-.151 1.663-.178.559-.015 1.118.004 1.674.059 1.107.114 2.22.161 3.332.141l3.343-.049c.54 0 1.112 0 1.674.032.561.033 1.112.087 1.663.157-2.225-.178-4.45 0-6.68.027-1.117.014-2.233-.046-3.343-.178z"/><path d="m176.175 118.618c-.58-.07-1.156-.176-1.722-.319-.567-.116-1.146-.159-1.723-.129l-1.744.064c-1.159.044-2.324.078-3.494.103 1.166-.086 2.329-.162 3.488-.227.584-.038 1.161-.065 1.745-.092.587-.035 1.177.003 1.755.114.56.15 1.13.262 1.706.335.579.037 1.16.037 1.739 0l3.483-.211c-1.161.119-2.317.254-3.478.34-.583.053-1.17.06-1.755.022z"/><path d="m174.879 113.947c.576-.084 1.159-.1 1.739-.049.583.049 1.161.13 1.739.211.581.086 1.167.135 1.755.146.507 0 1.004-.06 1.501 0v-.033c-.498-.057-1-.084-1.501-.081-.581-.03-1.159-.089-1.734-.178-.583-.07-1.161-.157-1.755-.173-.586-.04-1.174.013-1.744.157z"/><path d="m176.11 112.743c.691-.049 1.383-.087 2.074-.076-.686.119-1.372.189-2.063.243s-1.377.086-2.074.076c.686-.119 1.372-.184 2.063-.243z"/><path d="m162.254 110.415h-.319c-.102 0-.2.033-.324.038-.243 0-.443-.07-.653-.092-.216-.013-.432-.013-.648 0 .211-.068.431-.104.653-.108.215.005.43.021.643.049.092 0 .205-.033.318 0 .112-.009.224-.009.335 0l.222.032c.143-.798.143-1.615 0-2.414-.135-.813-.191-1.638-.168-2.462.038-.416.119-.821.184-1.22.065-.4.102-.81.129-1.215.054-.816.049-1.62.049-2.457.07.818.097 1.64.081 2.462-.014.412-.052.823-.113 1.231-.06.405-.135.81-.162 1.21-.029.815.013 1.632.124 2.441.116.809.068 1.633-.141 2.424.141 0 .281.043.422.07-.211.016-.422.02-.632.011z"/><path d="m180.22 110.696c.177-.146.393-.238.621-.265.225-.034.456-.002.664.092-.227.027-.432.043-.643.076-.21.032-.415.065-.642.097z"/><path d="m179.599 130.287c-.691 0-1.383-.054-2.068-.135.691-.048 1.382-.043 2.068-.027s1.382.054 2.068.135c-.691.049-1.382.043-2.068.027z"/><path d="m159.478 128.673c-.583 0-1.166.037-1.76.037.577-.133 1.168-.202 1.76-.205.298.002.594.031.886.087.297.054.572.156.864.189-.295.011-.59-.011-.88-.065-.292-.027-.578-.043-.87-.043z"/><path d="m172.077 128.943c.82 0 1.62 0 2.457.048.41.033.815.065 1.22.135s.805.146 1.22.178c.825.025 1.649-.029 2.463-.162.714-.117 1.442-.128 2.16-.032-.719-.151-1.459-.178-2.187-.081-.809.113-1.625.156-2.441.13-.405-.033-.805-.108-1.21-.168-.407-.06-.819-.096-1.231-.108-.817-.025-1.636-.005-2.451.06z"/><path d="m167.271 130.595c-.416-.032-.816-.119-1.221-.184-.405-.064-.81-.097-1.215-.129-.815-.054-1.62-.049-2.457-.049.819-.07 1.641-.097 2.463-.081.412.014.823.051 1.231.114.41.059.81.135 1.215.162.814.028 1.628-.014 2.435-.125.819-.117 1.653-.066 2.452.152-.804-.158-1.629-.167-2.436-.027-.815.137-1.641.193-2.467.167z"/><path d="m178.243 127.479h-.491c-.165-.016-.332-.016-.497 0 .324-.079.655-.125.988-.135.33-.027.659-.038.989-.054.663-.065 1.332-.01 1.976.162-.656-.057-1.315-.057-1.971 0-.329.022-.659.027-.994.027z"/><path d="m157.243 112.759c.604-.067 1.216-.021 1.803.135-.301.032-.605.032-.907 0-.302-.016-.603-.061-.896-.135z"/><path d="m168.086 132.555c.504.004 1.007.04 1.507.108-.503.05-1.008.069-1.512.06-.504-.01-1.007-.046-1.507-.108.502-.053 1.007-.073 1.512-.06z"/><path d="m161.044 123.683c.902-.081 1.804-.097 2.7-.124.897-.027 1.804 0 2.7.048-.901.081-1.803.098-2.7.119-.896.022-1.792.011-2.7-.043z"/><path d="m96.3362 122.36v.173h85.2178v-.173h-.929l-.924-.054c-.27 0-.54-.043-.793-.049-.241-.021-.483.015-.708.103h-12.42c.656-.099 1.319-.144 1.982-.135.726.013 1.451-.06 2.16-.216-.718.059-1.431.038-2.16.049-.702-.019-1.401.084-2.068.302z"/><path d="m158.652 116.42c.534-.103 1.081-.118 1.62-.043.527.063 1.057.088 1.588.075-.529.136-1.079.167-1.62.092-.527-.068-1.057-.11-1.588-.124z"/><path d="m176.083 124.666c.686 0 1.361 0 2.041.027.681.027 1.356.092 2.031.194-.681.027-1.361 0-2.041-.027-.681-.027-1.356-.092-2.031-.194z"/><path d="m96.3362 125.978v.162h35.4238c.432.059.864.113 1.296.135.559.019 1.118-.003 1.674-.065l.81-.07h30.289l-.178.049c.151 0 .297-.033.448-.049h15.465v-.173h-13.5c.648-.048 1.296-.081 1.95-.119-.718-.079-1.441-.09-2.16-.032-.394.032-.783.081-1.172.151h-22.264l.318-.032c-.194 0-.383.027-.577.032h-3.759c-.783-.027-1.56-.048-2.343-.059-.692 0-1.377 0-2.063.059zm35.6398.173h2.16c-.367.039-.737.057-1.107.054-.335 0-.691-.022-1.053-.065z"/><path d="m165.953 112.64c-1.112-.021-2.225.026-3.332.14-.556.055-1.115.075-1.674.06-.54-.027-1.112-.103-1.663-.178.54.048 1.112.097 1.669.097.554.001 1.108-.035 1.657-.108 1.109-.132 2.226-.192 3.343-.178 2.236.027 4.455.205 6.68.027-.54.07-1.107.124-1.663.156-.557.033-1.118.033-1.674.033z"/><path d="m149.85 127.312c-.575.072-1.145.182-1.706.329-.578.113-1.168.151-1.755.114-.583 0-1.167-.054-1.75-.087-1.163-.065-2.324-.14-3.483-.227 1.161 0 2.328.054 3.489.098l1.744.064c.577.032 1.156-.009 1.722-.124.567-.144 1.142-.251 1.723-.318.584-.046 1.171-.046 1.755 0 1.166.086 2.322.216 3.478.34l-3.483-.216c-.578-.032-1.157-.023-1.734.027z"/><path d="m116.673 117.878c-.576.073-1.146.183-1.707.329-.578.113-1.167.153-1.755.119-.583 0-1.161-.054-1.744-.092-1.159-.064-2.322-.14-3.488-.226 1.166.025 2.331.057 3.493.097l1.745.07c.577.03 1.156-.013 1.722-.13.566-.145 1.142-.251 1.723-.318.584-.046 1.171-.046 1.755 0 1.161.086 2.316.216 3.477.34l-3.483-.216c-.579-.032-1.16-.023-1.738.027z"/><path d="m132.5 130.46c-.575.073-1.145.183-1.707.329-.577.114-1.167.152-1.755.114-.583 0-1.161-.054-1.744-.087-1.159-.064-2.32-.14-3.483-.226 1.161 0 2.328.054 3.489.097l1.744.065c.577.032 1.156-.01 1.722-.125.567-.145 1.142-.251 1.723-.318.584-.046 1.171-.046 1.755 0 1.166.086 2.322.216 3.478.34l-3.483-.216c-.58-.032-1.161-.023-1.739.027z"/><path d="m120.89 128.894h1.987c-.655.123-1.32.185-1.987.184-.667.005-1.332-.055-1.987-.179z"/><path d="m126.058 136.173h1.987c-.655.123-1.321.185-1.987.184-.667.005-1.332-.054-1.987-.178z"/><path d="m102.843 119.406h1.987c-.653.123-1.317.185-1.981.184-.669.005-1.336-.054-1.993-.178z"/><path d="m153.684 128.84c.495-.003.989.024 1.48.081-.491.058-.985.087-1.48.086-.493.004-.985-.025-1.474-.086.489-.057.982-.084 1.474-.081z"/><path d="m148.878 130.563c-.853 0-1.706-.022-2.559-.065-.848-.049-1.696-.124-2.549-.211l2.554.081c.853.027 1.706.049 2.554.033.848-.017 1.696-.054 2.544-.125.85-.094 1.709-.094 2.559 0-.85-.027-1.701.022-2.543.146-.85.093-1.705.14-2.56.141z"/><path d="m149.786 132.868c.685.054 1.377.125 2.057.238-.691 0-1.382 0-2.074-.076-.691-.075-1.377-.124-2.057-.237.692-.01 1.384.015 2.074.075z"/><path d="m135.767 139.219c.691.059 1.377.124 2.063.243-.697 0-1.388-.027-2.074-.076-.686-.048-1.377-.124-2.063-.243.697-.011 1.383.027 2.074.076z"/><path d="m130.723 143.479c.216 0 .411-.075.654-.091.124 0 .221.037.324.037h.318.654c-.216.049-.432.081-.648.108-.109.015-.219.024-.33.027-.118 0-.232-.027-.324-.027-.213.029-.427.045-.642.049-.22-.003-.439-.039-.648-.108.214.015.428.017.642.005z"/><path d="m153.241 136.2c.222.033.427.076.637.103.211.027.422.048.643.075-.208.093-.439.124-.664.092-.228-.026-.442-.12-.616-.27z"/><path d="m124.081 141.46c.227.032.427.075.638.102.21.027.421.044.648.071-.21.09-.441.122-.667.091-.226-.03-.44-.122-.619-.264z"/><path d="m151.2 115.626c.691-.086 1.377-.119 2.068-.14.692-.022 1.377 0 2.069.027-.686.086-1.377.119-2.063.14-.686.022-1.393.016-2.074-.027z"/><path d="m143.019 117.208c.589 0 1.177.044 1.755.038.292 0 .584-.016.875-.048.29-.05.585-.07.88-.06-.297.033-.567.135-.864.189-.292.056-.588.085-.886.087-.592-.006-1.182-.075-1.76-.206z"/><path d="m100.343 132.49c.589 0 1.172.044 1.755.038.292 0 .583 0 .869-.043.29-.054.586-.076.881-.065-.292.033-.567.135-.859.189-.294.056-.592.085-.891.087-.591-.003-1.179-.072-1.755-.206z"/><path d="m109.62 127.074c-.405 0-.804.103-1.209.162-.408.062-.819.1-1.232.114-.821.016-1.643-.011-2.462-.081.821 0 1.62 0 2.452-.049.41-.027.815-.065 1.215-.13.399-.064.81-.145 1.225-.183.825-.023 1.649.033 2.463.167.806.14 1.632.131 2.435-.027-.796.22-1.629.272-2.446.151-.809-.111-1.625-.152-2.441-.124z"/><path d="m151.902 118.429c-.331-.01-.661-.055-.983-.135.164.013.328.013.492 0h.497.988c.656.054 1.315.054 1.971 0-.645.167-1.313.221-1.977.162z"/><path d="m139.32 119.579c.724.07 1.442.151 2.16.205s1.442.092 2.16.135c-.718.069-1.442.069-2.16 0-.729-.045-1.452-.159-2.16-.34z"/><path d="m97.551 128.732c.7236.07 1.4418.151 2.16.2.718.048 1.442.097 2.16.14-.717.078-1.441.087-2.16.027-.7299-.054-1.4532-.177-2.16-.367z"/><path d="m152.604 114.546c.293-.079.594-.13.897-.151.301-.032.605-.032.907 0-.588.156-1.199.202-1.804.135z"/><path d="m152.14 112.969c.505-.009 1.01.01 1.512.06-1.001.128-2.014.144-3.019.048.5-.062 1.003-.099 1.507-.108z"/><path d="m134.708 122.095c.902-.059 1.804-.048 2.7-.048.897 0 1.804.043 2.7.124-.901.054-1.809.049-2.7.043-.891-.005-1.803-.038-2.7-.119z"/><path d="m102.125 124.86c.902-.054 1.804-.048 2.7-.043s1.804.038 2.7.119c-.902.054-1.804.048-2.7.043s-1.798-.038-2.7-.119z"/><path d="m141.432 123.564c.726-.018 1.451.054 2.16.216-.719-.065-1.426-.038-2.16-.048-.723.017-1.443-.093-2.128-.324.703.116 1.415.169 2.128.156z"/><path d="m134.638 124.812c.531-.015 1.061-.056 1.588-.125.541-.072 1.091-.04 1.62.092-.53-.013-1.061.013-1.588.076-.538.074-1.086.059-1.62-.043z"/><path d="m112.887 132.447c.531-.014 1.061-.056 1.588-.124.541-.075 1.091-.044 1.62.092-.529-.016-1.058.01-1.582.075-.541.075-1.09.06-1.626-.043z"/><path d="m151.783 123.402c.258.046.521.046.778 0 .254-.032.54-.07.788-.086.529-.038 1.061-.011 1.583.081-.54.032-1.08.048-1.572.081-.264 0-.54.048-.788.048-.269.03-.541-.013-.789-.124z"/><path d="m149.748 121.107c.675-.097 1.35-.151 2.03-.189s1.355-.054 2.036-.027c-.675.103-1.35.151-2.031.195-.68.043-1.355.054-2.035.021z"/><path d="m179.134 104.416.173.297v4.784h-.173z"/><path d="m176.494 99.9446.178.2974v9.255h-.178z"/><path d="m173.864 95.4788.173.297v13.7212h-.173z"/><path d="m171.229 91.0129.173.2916v18.1925h-.173z"/><path d="m168.772 87.152h-.178v22.345h.178z"/><path d="m166.131 87.152h-.173v22.345h.173z"/><path d="m163.501 87.152h-.178v22.345h.178z"/><path d="m160.872 87.152h-.179v22.345h.179z"/><path d="m158.231 87.152h-.173v22.345h.173z"/><path d="m180.447 106.646.178.297v2.554h-.178z"/><path d="m171.812 99.5558c.178-2.2248 0-4.4497-.027-6.6799 0-.3024 0-.6047 0-.9071l.157.2646v.6425l.048 3.3373c0 .54 0 1.1177-.032 1.6739-.033.5562-.076 1.1125-.146 1.6687z"/><path d="m173.178 104.664c-.049.577-.058 1.156-.027 1.734l.216 3.488c-.124-1.161-.254-2.317-.34-3.483-.046-.584-.046-1.171 0-1.755.065-.582.17-1.16.313-1.728.112-.565.153-1.142.124-1.717l-.065-1.7444c-.043-1.1664-.075-2.3274-.097-3.4938.081 1.161.162 2.322.227 3.4884.032.5778.065 1.1608.086 1.7438.036.588-.003 1.177-.113 1.755-.148.563-.256 1.135-.324 1.712z"/><path d="m174.669 97.4551v-.6156l.167.2808v.3186c.001.6649-.061 1.3284-.184 1.9818z"/><path d="m174.717 108.498c-.005-.492.022-.985.081-1.474.115.981.115 1.973 0 2.954-.057-.491-.084-.985-.081-1.48z"/><path d="m176.121 108.795c-.092-.851-.092-1.709 0-2.559.076-.843.124-1.691.13-2.544.005-.853 0-1.701-.033-2.549l-.054-1.733.054.0918c.049.5402.092 1.0802.125 1.6202.046.853.068 1.706.064 2.559-.01.856-.065 1.71-.162 2.56-.117.846-.159 1.701-.124 2.554z"/><path d="m178.675 103.66.162.254c0 .221.043.448.06.669.054.691.086 1.383.075 2.079-.119-.686-.183-1.371-.237-2.063-.027-.313-.044-.599-.06-.939z"/><path d="m180.069 106.727c.008.111.008.223 0 .335-.027.216-.06.432-.108.648 0-.222 0-.438 0-.654v-.318c0-.103-.033-.205-.038-.324 0-.222.065-.405.086-.6l.124.206c0 .129-.037.259-.043.372-.005.114-.016.222-.021.335z"/><path d="m161.379 110.145c-.043-.696-.043-1.382-.027-2.073.016-.692.054-1.377.135-2.069.049.692.043 1.383.033 2.074-.011.691-.06 1.377-.141 2.068z"/><path d="m163.005 101.343c-.013-.295.007-.59.059-.88.032-.292.043-.5833.049-.8695 0-.5832-.038-1.1664-.038-1.7604.131.5777.198 1.1681.2 1.7604 0 .2971-.027.5935-.081.8855-.054.281-.157.567-.189.864z"/><path d="m164.16 107.71c0-.33 0-.659 0-.988v-.497c.016-.164.016-.328 0-.492.082.322.128.651.135.983.027.33.043.659.054.988.064.663.011 1.332-.156 1.977.043-.657.032-1.316-.033-1.971z"/><path d="m165.645 96.2834c-.054-.7236-.129-1.4418-.205-2.16.195.706.319 1.4295.373 2.16.059.7192.05 1.4424-.027 2.16-.044-.7182-.081-1.4634-.141-2.16z"/><path d="m160.278 109.222c-.033-.302-.033-.606 0-.907.015-.304.066-.605.151-.897.03.302.03.606 0 .907-.018.304-.069.604-.151.897z"/><path d="m158.836 106.954c.006-.504.042-1.007.108-1.507.095 1.005.079 2.017-.049 3.019-.049-.503-.069-1.007-.059-1.512z"/><path d="m167.94 92.228c0-.9018 0-1.8036.043-2.7.087.8964.103 1.8036.125 2.7.021.8964 0 1.809-.044 2.7-.124-.891-.124-1.7928-.124-2.7z"/><path d="m169.274 94.1125c.232.6867.341 1.4086.324 2.133 0 .7182 0 1.4256.049 2.16-.163-.7081-.235-1.4338-.216-2.16.009-.7142-.043-1.4278-.157-2.133z"/><path d="m170.64 92.6599c-.135-.5289-.166-1.0791-.092-1.62.033-.3348.076-.6695.097-1.0097l.114.1944c0 .2808 0 .5399-.043.8315-.067.5319-.092 1.0681-.076 1.6038z"/><path d="m169.393 107.386c0 .27-.033.54-.049.788-.038.54-.049 1.042-.081 1.572-.092-.523-.119-1.054-.081-1.583 0-.264.049-.54.086-.788.046-.257.046-.52 0-.778.109.248.152.52.125.789z"/><path d="m166.758 108.628c-.027-.681 0-1.361.027-2.036s.091-1.355.189-2.03c.035.678.035 1.357 0 2.035-.065.681-.114 1.356-.216 2.031z"/></g><path d="m155.666 132.134h-80.3684v.27h80.3684z" fill="#263238"/><path d="m155.666 134.051h-80.3684v.27h80.3684z" fill="#263238"/><path d="m155.666 135.973h-80.3684v.27h80.3684z" fill="#263238"/><path d="m155.666 137.89h-80.3684v.27h80.3684z" fill="#263238"/><path d="m155.666 139.813h-80.3684v.27h80.3684z" fill="#263238"/><path d="m155.666 141.735h-80.3684v.27h80.3684z" fill="#263238"/><path d="m158.485 143.971h19.386v-30.834h-19.386z" fill="#e7a03f"/><path d="m177.223 113.763h-18.096v30.208h18.096z" fill="#000" opacity=".5"/><path d="m74.6011 144.214h1.1394v-28.631h-1.1394z" fill="#e7a03f"/><path d="m156.228 129.655h-1.14v16.325h1.14z" fill="#e7a03f"/><path d="m156.227 129.655h-80.9401v1.14h80.9401z" fill="#e7a03f"/><path d="m170.916 113.763 6.312 22.275v-8.98l-3.769-13.295z" fill="#fff" opacity=".2"/><path d="m168.901 113.763 8.327 29.392v-2.683l-7.565-26.709z" fill="#fff" opacity=".2"/><path d="m166.412 113.763 8.543 30.154h.378l-8.543-30.154z" fill="#fff" opacity=".2"/><path d="m159.133 130.114v8.981l1.361 4.822h2.548z" fill="#fff" opacity=".2"/><path d="m159.133 123.003v2.678l5.162 18.236h.762z" fill="#fff" opacity=".2"/><path d="m159.133 114.217v1.35l8.03 28.35h.378z" fill="#fff" opacity=".2"/><path d="m171.078 143.971h.291v-30.834h-.291z" fill="#e7a03f"/><path d="m164.981 143.971h.291v-30.834h-.291z" fill="#e7a03f"/><path d="m168.178 98.6053 4.282 7.3337h-8.559z" fill="#e7a03f"/><path d="m164.959 105.328h6.437l-.491-.847-2.727-4.666-.773 1.323-.842 1.447-.513.875z" fill="#000" opacity=".5"/><path d="m167.406 101.138 1.188 4.19h2.548l-.237-.847-2.727-4.666z" fill="#fff" opacity=".2"/><path d="m166.05 103.46.529 1.868h.762l-.778-2.743z" fill="#fff" opacity=".2"/><path d="m168.324 99.5449h-.292v6.0701h.292z" fill="#e7a03f"/><path d="m136.906 126.48h13.29v-13.338h-13.29z" fill="#e7a03f"/><path d="m149.542 113.763h-11.999v12.026h11.999z" fill="#000" opacity=".5"/><path d="m143.694 113.239h-.291v12.939h.291z" fill="#e7a03f"/><path d="m146.248 113.763 3.3 11.643v-8.981l-.756-2.662z" fill="#fff" opacity=".2"/><path d="m144.229 113.763 3.413 12.026h.756l-3.408-12.026z" fill="#fff" opacity=".2"/><path d="m141.745 113.763 3.407 12.026h.378l-3.407-12.026z" fill="#fff" opacity=".2"/><path d="m137.543 125.103v.686h.195z" fill="#fff" opacity=".2"/><path d="m132.716 113.137h-13.289v13.338h13.289z" fill="#e7a03f"/><path d="m132.073 113.828h-11.999v12.026h11.999z" fill="#000" opacity=".5"/><path d="m126.22 113.439h-.292v12.939h.292z" fill="#e7a03f"/><path d="m123.374 125.854-3.3-11.643v8.981l.756 2.662z" fill="#fff" opacity=".2"/><path d="m125.388 125.854-3.407-12.026h-.762l3.408 12.026z" fill="#fff" opacity=".2"/><path d="m127.877 125.854-3.412-12.026h-.378l3.412 12.026z" fill="#fff" opacity=".2"/><path d="m132.073 114.514v-.686h-.194z" fill="#fff" opacity=".2"/><path d="m101.952 126.48h13.289v-13.338h-13.289z" fill="#e7a03f"/><path d="m114.594 113.763h-11.999v12.026h11.999z" fill="#000" opacity=".5"/><path d="m108.74 113.239h-.292v12.939h.292z" fill="#e7a03f"/><path d="m111.294 113.763 3.3 11.643v-8.981l-.756-2.662z" fill="#fff" opacity=".2"/><path d="m109.28 113.763 3.407 12.026h.762l-3.408-12.026z" fill="#fff" opacity=".2"/><path d="m106.791 113.763 3.412 12.026h.378l-3.412-12.026z" fill="#fff" opacity=".2"/><path d="m102.595 125.103v.686h.194z" fill="#fff" opacity=".2"/><path d="m140.843 129.655h-1.14v16.325h1.14z" fill="#e7a03f"/><path d="m123.428 145.98h1.139v-16.325h-1.139z" fill="#e7a03f"/><path d="m107.152 145.98h1.14v-16.325h-1.14z" fill="#e7a03f"/><path d="m90.8767 145.98h1.1394v-16.325h-1.1394z" fill="#e7a03f"/><path d="m140.271 129.655v16.325h.572v-15.185h14.245v15.185h1.139v-16.325z" fill="#000" opacity=".2"/><path d="m199.768 132.134h-15.239v.27h15.239z" fill="#263238"/><path d="m199.768 134.051h-15.239v.27h15.239z" fill="#263238"/><path d="m199.768 135.973h-15.239v.27h15.239z" fill="#263238"/><path d="m199.768 137.89h-15.239v.27h15.239z" fill="#263238"/><path d="m199.768 139.813h-15.239v.27h15.239z" fill="#263238"/><path d="m199.768 141.735h-15.239v.27h15.239z" fill="#263238"/><path d="m200.329 129.655h-1.139v16.325h1.139z" fill="#e7a03f"/><path d="m200.329 129.655h-16.524v1.14h16.524z" fill="#e7a03f"/><path d="m184.945 129.655h-1.14v16.325h1.14z" fill="#e7a03f"/><path d="m184.378 129.655v16.325h.567v-15.185h14.245v15.185h1.139v-16.325z" fill="#000" opacity=".2"/><path d="m202.435 143.733h-129.6267v6.032h129.6267z" fill="#e7a03f"/><path d="m202.435 143.733h-129.6267v6.032h129.6267z" fill="#000" opacity=".2"/><path d="m202.435 143.733h-62.213v6.032h62.213z" fill="#000" opacity=".2"/><path d="m71.9336 144.419h131.1664v-.896h-131.1664z" fill="#e7a03f"/><path d="m203.094 143.523h-62.823v.896h62.823z" fill="#000" opacity=".2"/><path d="m90.4932 109.843h66.1988l14.898-25.2776h-66.193z" fill="#e7a03f"/><path d="m90.4932 109.843h65.1998l14.904-25.2776h-65.2z" fill="#fff" opacity=".2"/><path d="m68.8933 116.803h66.4197l21.6-6.976h-66.4197l-21.6 6.312z" fill="#e7a03f"/><path d="m68.8933 116.803h66.4197l21.6-6.976h-66.4197l-21.6 6.312z" fill="#fff" opacity=".2"/><path d="m105.37 84.5384h66.221v-1.026h-66.221z" fill="#e7a03f"/><path d="m170.592 84.506h.999v-.999h-.999z" fill="#fff" opacity=".2"/><g fill="#000"><path d="m164.635 84.02c-.113.2804-.248.5512-.405.81l-.453.7884-.918 1.5714-1.842 3.1374-3.682 6.2748-3.64 6.296-1.804 3.159-1.771 3.165c.648-1.026 1.275-2.063 1.917-3.094l1.885-3.111c1.247-2.079 2.473-4.174 3.704-6.2584s2.43-4.2012 3.618-6.318l1.761-3.1806.858-1.62c.291-.5232.549-1.0643.772-1.62z" opacity=".2"/><path d="m157.988 84.02c-.117.2795-.254.5502-.41.81l-.449.7884-.923 1.5714-1.841 3.1374-3.705 6.264-3.639 6.2968-1.761 3.159-1.776 3.175c.648-1.026 1.279-2.063 1.917-3.094l1.884-3.111c1.248-2.079 2.473-4.174 3.705-6.2584 1.231-2.0844 2.43-4.2012 3.618-6.318l1.765-3.1806.854-1.62c.285-.5246.539-1.0655.761-1.62z" opacity=".2"/><path d="m151.335 84.02c-.117.2795-.254.5502-.41.81l-.449.7884-.918 1.5714-1.846 3.1374-3.683 6.2748-3.629 6.286-1.804 3.159-1.776 3.175c.648-1.026 1.28-2.063 1.917-3.094l1.884-3.111c1.248-2.079 2.474-4.174 3.705-6.2584s2.43-4.2012 3.618-6.318l1.766-3.1806.853-1.62c.289-.5243.547-1.0653.772-1.62z" opacity=".2"/><path d="m144.682 84.02c-.117.2795-.254.5502-.41.81l-.448.7884-.918 1.5714-1.847 3.1374-3.683 6.2748-3.639 6.296-1.804 3.159-1.793 3.165c.648-1.026 1.28-2.063 1.917-3.094l1.885-3.111c1.247-2.079 2.473-4.174 3.704-6.2584s2.43-4.2012 3.618-6.318l1.782-3.1806.853-1.62c.295-.523.557-1.0641.783-1.62z" opacity=".2"/><path d="m138.029 84.02c-.117.2795-.254.5502-.41.81l-.448.7884-.918 1.5714-1.847 3.1374-3.683 6.2748-3.639 6.296-1.804 3.149-1.777 3.175c.648-1.026 1.28-2.063 1.917-3.094l1.885-3.111c1.247-2.079 2.473-4.174 3.704-6.2584 1.232-2.0844 2.436-4.2012 3.618-6.318l1.766-3.1806.853-1.62c.297-.5219.559-1.0631.783-1.62z" opacity=".2"/><path d="m131.377 84.02c-.117.2795-.254.5502-.411.81l-.448.7884-.918 1.5714-1.847 3.1374-3.682 6.2748-3.651 6.286-1.803 3.159-1.777 3.175c.648-1.026 1.28-2.063 1.917-3.094l1.885-3.111c1.247-2.079 2.473-4.174 3.704-6.2584s2.435-4.2012 3.618-6.318l1.766-3.1806.853-1.62c.301-.5216.566-1.0628.794-1.62z" opacity=".2"/><path d="m124.74 84.02c-.115.2805-.252.5514-.41.81l-.448.7884-.918 1.5714-1.847 3.1374-3.683 6.2748-3.64 6.296-1.803 3.159-1.777 3.176c.648-1.026 1.28-2.063 1.917-3.095l1.885-3.11c1.247-2.079 2.473-4.1742 3.71-6.2586 1.236-2.0844 2.43-4.2012 3.612-6.318l1.766-3.1806.853-1.62c.297-.5254.559-1.0702.783-1.6308z" opacity=".2"/><path d="m118.071 84.02c-.115.2805-.252.5514-.41.81l-.449.7884-.918 1.5714-1.814 3.1266-3.683 6.2748-3.645 6.2968-1.852 3.159-1.777 3.175c.648-1.026 1.28-2.063 1.917-3.094l1.885-3.111c1.253-2.079 2.473-4.174 3.71-6.2584 1.236-2.0844 2.43-4.2012 3.612-6.318l1.766-3.1806.853-1.62c.305-.5213.574-1.0625.805-1.62z" opacity=".2"/><path d="m111.418 84.02c-.115.2805-.252.5514-.41.81l-.448.7884-.918 1.5714-1.842 3.1374-3.682 6.2748-3.645 6.296-1.8041 3.159-1.7766 3.176c.648-1.026 1.2798-2.063 1.917-3.095l1.8847-3.11c1.253-2.079 2.473-4.1742 3.71-6.2586 1.236-2.0844 2.43-4.2012 3.612-6.318l1.766-3.1914.853-1.62c.297-.5219.559-1.0631.783-1.62z" opacity=".2"/></g><path d="m103.513 87.665h66.22v-1.026h-66.22z" fill="#e7a03f"/><path d="m168.734 87.6326h.999v-.999h-.999z" fill="#fff" opacity=".2"/><path d="m101.655 90.7916h66.22v-1.026h-66.22z" fill="#e7a03f"/><path d="m166.876 90.7592h.999v-.999h-.999z" fill="#fff" opacity=".2"/><path d="m99.7976 93.9182h66.2204v-1.0261h-66.2204z" fill="#e7a03f"/><path d="m165.019 93.8858h.999v-.999h-.999z" fill="#fff" opacity=".2"/><path d="m97.9346 97.0448h66.2204v-1.026h-66.2204z" fill="#e7a03f"/><path d="m163.161 97.0125h.999v-.9991h-.999z" fill="#fff" opacity=".2"/><path d="m96.0769 100.171h66.2201v-1.0256h-66.2201z" fill="#e7a03f"/><path d="m161.303 100.144h.999v-.9986h-.999z" fill="#fff" opacity=".2"/><path d="m94.2246 103.298h66.2204v-1.026h-66.2204z" fill="#e7a03f"/><path d="m159.44 103.271h.999v-.999h-.999z" fill="#fff" opacity=".2"/><path d="m92.3672 106.425h66.2198v-1.026h-66.2198z" fill="#e7a03f"/><path d="m157.583 106.398h.999v-.999h-.999z" fill="#fff" opacity=".2"/><path d="m89.6076 109.81h69.2064v-1.026h-69.2064z" fill="#e7a03f"/><path d="m157.815 109.778h.999v-.999h-.999z" fill="#fff" opacity=".2"/><path d="m68.8933 116.139h66.4197l21.6-6.977h-66.4197z" fill="#e7a03f"/><path d="m72.7166 115.588h62.3704l1.814-.583.643-.21 3.191-1.032 1.933-.626 8.608-2.781h-62.3756z" fill="#fff" opacity=".5"/><path d="m136.901 113.137v1.868l.642-.21 3.192-1.032 1.933-.626z" fill="#e7a03f" opacity=".5"/><path d="m137.543 113.763v1.032l3.192-1.032z" fill="#000" opacity=".2"/><path d="m132.716 113.137h-13.289v2.451h13.289z" fill="#e7a03f" opacity=".5"/><path d="m132.079 113.828h-5.859v1.76h5.859z" fill="#000" opacity=".2"/><path d="m125.928 113.828h-5.854v1.76h5.854z" fill="#000" opacity=".2"/><path d="m115.242 113.137h-13.29v2.451h13.29z" fill="#e7a03f" opacity=".5"/><path d="m114.599 113.763h-5.854v1.825h5.854z" fill="#000" opacity=".2"/><path d="m108.454 113.763h-5.859v1.825h5.859z" fill="#000" opacity=".2"/><path d="m72.7166 115.588h23.6195v-5.232h-7.4357z" fill="#fff" opacity=".5"/><path d="m143.942 109.557-18.821 6.086.166.514 18.821-6.086z" fill="#e7a03f"/><path d="m134.764 109.552-18.82 6.086.166.514 18.821-6.087z" fill="#e7a03f"/><path d="m125.571 109.555-18.82 6.087.166.513 18.82-6.086z" fill="#e7a03f"/><path d="m116.384 109.554-18.821 6.086.1661.514 18.8209-6.086z" fill="#e7a03f"/><path d="m107.195 109.556-18.8202 6.086.1661.514 18.8211-6.086z" fill="#e7a03f"/><path d="m98.0079 109.554-18.8206 6.086.1661.514 18.8206-6.086z" fill="#e7a03f"/><path d="m147.053 111.76h-64.0928v.54h64.0928z" fill="#e7a03f"/><path d="m141.523 113.558h-64.4324v.54h64.4324z" fill="#e7a03f"/><path d="m163.258 169.27.562.578 22.448-23.258.777.75-22.475 23.285 21.395 22.167-.777.751-22.702-23.523z" fill="#263238"/><path d="m141.658 169.27.562.578 22.448-23.258.777.75-22.474 23.285 21.394 22.167-.777.751-22.702-23.523z" fill="#263238"/><g fill="#fff" opacity=".5"><path d="m163.258 169.27.562.578 22.448-23.258.777.75-22.475 23.285 21.395 22.167-.777.751-22.702-23.523z"/><path d="m141.658 169.27.562.578 22.448-23.258.777.75-22.474 23.285 21.394 22.167-.777.751-22.702-23.523z"/></g><path d="m125.534 171.095h29.684v-2.473h-29.684z" fill="#e7a03f"/><path d="m146.351 171.095h8.872v-2.473h-8.872z" fill="#000" opacity=".2"/><path d="m124.157 169.475h31.622v-.853h-31.622z" fill="#e7a03f"/><path d="m124.157 169.475h31.622v-.853h-31.622z" fill="#fff" opacity=".7"/><path d="m145.573 169.475h10.206v-.853h-10.206z" fill="#000" opacity=".2"/><path d="m154.537 153.599h29.684v-2.473h-29.684z" fill="#e7a03f"/><path d="m175.349 153.599h8.872v-2.473h-8.872z" fill="#000" opacity=".2"/><path d="m153.15 151.984h31.622v-.853h-31.622z" fill="#e7a03f"/><path d="m153.15 151.984h31.622v-.853h-31.622z" fill="#fff" opacity=".7"/><path d="m174.566 151.984h10.206v-.853h-10.206z" fill="#000" opacity=".2"/><path d="m149.137 159.323h29.684v-2.473h-29.684z" fill="#e7a03f"/><path d="m169.949 159.323h8.872v-2.473h-8.872z" fill="#000" opacity=".2"/><path d="m147.75 157.708h31.622v-.853h-31.622z" fill="#e7a03f"/><path d="m147.75 157.708h31.622v-.853h-31.622z" fill="#fff" opacity=".7"/><path d="m169.166 157.708h10.206v-.853h-10.206z" fill="#000" opacity=".2"/><path d="m143.737 165.047h29.684v-2.473h-29.684z" fill="#e7a03f"/><path d="m164.549 165.047h8.872v-2.473h-8.872z" fill="#000" opacity=".2"/><path d="m142.35 163.427h31.622v-.853h-31.622z" fill="#e7a03f"/><path d="m142.35 163.427h31.622v-.853h-31.622z" fill="#fff" opacity=".7"/><path d="m163.766 163.427h10.206v-.853h-10.206z" fill="#000" opacity=".2"/><path d="m172.595 174.27h-29.684v2.473h29.684z" fill="#e7a03f"/><path d="m151.783 176.738h20.812v-2.473h-20.812z" fill="#000" opacity=".2"/><path d="m173.977 174.27h-31.622v.853h31.622z" fill="#e7a03f"/><path d="m173.977 174.27h-31.622v.853h31.622z" fill="#fff" opacity=".7"/><path d="m152.561 175.118h21.416v-.853h-21.416z" fill="#000" opacity=".2"/><path d="m201.571 145.731h-29.683v2.473h29.683z" fill="#e7a03f"/><path d="m180.76 148.199h20.811v-2.473h-20.811z" fill="#000" opacity=".2"/><path d="m202.954 145.731h-31.622v.853h31.622z" fill="#e7a03f"/><path d="m202.954 145.731h-31.622v.853h31.622z" fill="#fff" opacity=".7"/><path d="m181.537 146.584h21.417v-.853h-21.417z" fill="#000" opacity=".2"/><path d="m188.795 191.199h-29.684v2.473h29.684z" fill="#e7a03f"/><path d="m167.983 193.667h20.812v-2.473h-20.812z" fill="#000" opacity=".2"/><path d="m190.177 191.199h-31.622v.853h31.622z" fill="#e7a03f"/><path d="m190.177 191.199h-31.622v.853h31.622z" fill="#fff" opacity=".7"/><path d="m168.761 192.047h21.416v-.853h-21.416z" fill="#000" opacity=".2"/><path d="m183.395 185.556h-29.684v2.473h29.684z" fill="#e7a03f"/><path d="m162.583 188.024h20.812v-2.473h-20.812z" fill="#000" opacity=".2"/><path d="m184.777 185.556h-31.622v.853h31.622z" fill="#e7a03f"/><path d="m184.777 185.556h-31.622v.853h31.622z" fill="#fff" opacity=".7"/><path d="m163.361 186.404h21.416v-.853h-21.416z" fill="#000" opacity=".2"/><path d="m177.995 179.913h-29.684v2.473h29.684z" fill="#e7a03f"/><path d="m157.183 182.381h20.812v-2.473h-20.812z" fill="#000" opacity=".2"/><path d="m179.377 179.913h-31.622v.853h31.622z" fill="#e7a03f"/><path d="m179.377 179.913h-31.622v.853h31.622z" fill="#fff" opacity=".7"/><path d="m157.961 180.761h21.416v-.853h-21.416z" fill="#000" opacity=".2"/><path d="m167.195 168.627h-29.684v2.473h29.684z" fill="#e7a03f"/><path d="m146.383 171.095h20.812v-2.473h-20.812z" fill="#000" opacity=".2"/><path d="m168.577 168.627h-31.622v.853h31.622z" fill="#e7a03f"/><path d="m168.577 168.627h-31.622v.853h31.622z" fill="#fff" opacity=".7"/><path d="m147.161 169.475h21.416v-.853h-21.416z" fill="#000" opacity=".2"/><path d="m159.937 148.199h29.684v-2.473h-29.684z" fill="#e7a03f"/><path d="m180.749 148.199h8.872v-2.473h-8.872z" fill="#000" opacity=".2"/><path d="m158.549 146.584h31.623v-.853h-31.623z" fill="#e7a03f"/><path d="m158.549 146.584h31.623v-.853h-31.623z" fill="#fff" opacity=".7"/><path d="m179.966 146.584h10.206v-.853h-10.206z" fill="#000" opacity=".2"/><path d="m96.3362 178.623h-19.2456v2.143h19.2456z" fill="#e7a03f"/><path d="m96.3362 178.623h-19.2456v2.143h19.2456z" fill="#fff" opacity=".7"/><path d="m96.3361 178.623h-6.453v2.143h6.453z" fill="#000" opacity=".2"/></svg>