<svg fill="none" height="24" viewBox="0 0 24 24" width="24" xmlns="http://www.w3.org/2000/svg"><path d="m10.7 17.2748c.2-.2.296-.4417.288-.725s-.1123-.525-.313-.725l-2.825-2.825h11.15c.2833 0 .521-.096.713-.288s.2877-.4293.287-.712c0-.2833-.096-.521-.288-.713s-.4293-.2877-.712-.287h-11.15l2.85-2.85c.2-.2.3-.43766.3-.713 0-.27533-.1-.51266-.3-.712-.2-.2-.4377-.3-.713-.3-.27534 0-.51267.1-.712.3l-4.575 4.575c-.1.1-.171.2083-.213.325s-.06267.2417-.062.375c0 .1333.021.2583.063.375s.11266.225.212.325l4.6 4.6c.18333.1833.41233.275.687.275.2747 0 .5123-.1.713-.3z" fill="#fff"/></svg>