<svg fill="none" height="32" viewBox="0 0 32 32" width="32" xmlns="http://www.w3.org/2000/svg"><path d="m19.9996 9.99997-10.41253 10.58753c-.34472.3804-.52994.8789-.5173 1.3921s.22216 1.002.58518 1.365c.36305.363.85175.5725 1.36495.5852.5133.0126 1.0117-.1726 1.3922-.5173l12.4125-12.5875c.6894-.7609 1.0598-1.75782 1.0346-2.78429-.0253-1.02648-.4444-2.00393-1.1704-2.72998-.726-.72604-1.7035-1.14508-2.73-1.17036-1.0264-.02527-2.0233.34516-2.7842 1.0346l-12.41253 12.58753c-1.12386 1.1238-1.75523 2.6481-1.75523 4.2375 0 1.5893.63137 3.1136 1.75523 4.2375 1.12385 1.1238 2.64813 1.7552 4.23753 1.7552 1.5893 0 3.1136-.6314 4.2375-1.7552l10.2625-10.2375" stroke="#ababab" stroke-linecap="round" stroke-linejoin="round" stroke-width="2"/></svg>