<svg fill="none" height="25" viewBox="0 0 24 25" width="24" xmlns="http://www.w3.org/2000/svg"><path d="m7 7.46592v-.5199c0-2.14589 0-3.21884.6896-3.81692.68959-.59809 1.75176-.44635 3.8761-.14287l4.2828.61183c2.4562.35088 3.6842.52631 4.4179 1.37221.7336.84589.7336 2.08642.7336 4.56749v5.59244c0 2.4811 0 3.7216-.7336 4.5675-.7337.8459-1.9617 1.0213-4.4179 1.3722l-4.2828.6118c-2.12434.3035-3.18651.4553-3.8761-.1428-.6896-.5981-.6896-1.6711-.6896-3.817v-.3219" stroke="#fff" stroke-width="2"/><path d="m16 12.333.7809-.6247.4997.6247-.4997.6247zm-12 1c-.55229 0-1-.4477-1-1s.44771-1 1-1zm8.7809-6.62469 4 4.99999-1.5618 1.2494-4-5zm4 6.24939-4 5-1.5618-1.2494 4-5zm-.7809.3753h-12v-2h12z" fill="#fff"/></svg>