<svg fill="none" height="32" viewBox="0 0 32 32" width="32" xmlns="http://www.w3.org/2000/svg"><path d="m16 28c6.6274 0 12-5.3726 12-12 0-6.62742-5.3726-12-12-12-6.62742 0-12 5.37258-12 12 0 6.6274 5.37258 12 12 12z" stroke="#ababab" stroke-linecap="round" stroke-linejoin="round" stroke-width="2"/><path d="m11.5 15c.8284 0 1.5-.6716 1.5-1.5s-.6716-1.5-1.5-1.5-1.5.6716-1.5 1.5.6716 1.5 1.5 1.5z" fill="#ababab"/><path d="m20.5 15c.8284 0 1.5-.6716 1.5-1.5s-.6716-1.5-1.5-1.5-1.5.6716-1.5 1.5.6716 1.5 1.5 1.5z" fill="#ababab"/><path d="m21.1998 19c-.5286.9107-1.2872 1.6667-2.1998 2.1922-.9126.5254-1.9471.802-3.0002.802-1.053 0-2.0876-.2766-3.0002-.802-.9126-.5255-1.6712-1.2815-2.1998-2.1922" stroke="#ababab" stroke-linecap="round" stroke-linejoin="round" stroke-width="2"/></svg>