<svg fill="none" height="25" viewBox="0 0 24 25" width="24" xmlns="http://www.w3.org/2000/svg"><path d="m2 12.333-.78087-.6247-.499755.6247.499755.6247zm9 1c.5523 0 1-.4477 1-1s-.4477-1-1-1zm-5.78087-6.62469-4 4.99999 1.56174 1.2494 4-5zm-4 6.24939 4 5 1.56174-1.2494-4-5zm.78087.3753h9v-2h-9z" fill="#fff"/><path d="m10 8.46592v-.74343c0-1.61834 0-2.42751.474-2.987.4739-.55949 1.2721-.69252 2.8684-.95857l1.6712-.27854c3.2431-.54051 4.8646-.81077 5.9255.08793 1.0609.89869 1.0609 2.54261 1.0609 5.83044v5.83445c0 3.2879 0 4.9318-1.0609 5.8305s-2.6824.6284-5.9255.0879l-1.6712-.2785c-1.5963-.2661-2.3945-.3991-2.8684-.9586-.474-.5595-.474-1.3687-.474-2.987v-.5455" stroke="#fff" stroke-width="2"/></svg>