<svg width="124" height="69" viewBox="0 0 124 69" fill="none" xmlns="http://www.w3.org/2000/svg">
<path d="M15.7033 80.3351C14.3253 80.3386 12.95 80.2158 11.5944 79.9683C7.28009 79.1648 3.74352 76.8829 1.88719 73.7059C-1.15411 68.4891 0.786597 61.8599 4.02967 57.6006C8.16056 52.2003 14.3862 49.0673 19.9332 46.7121C30.5723 42.1996 41.8423 39.3014 52.7529 36.4986C55.8712 35.6988 59.0959 34.8697 62.2583 34.0149C63.8358 33.5893 65.4464 33.1711 67.0752 32.7492C78.6204 29.7519 91.7065 26.3548 100.361 17.8252C106.627 11.6509 111.275 4.47135 113.792 -2.93196C114.887 -6.01579 115.499 -9.25077 115.604 -12.5218C115.726 -16.0361 115.472 -19.5535 114.848 -23.0141L114.61 -23.1939C109.312 -27.1963 103.409 -29.636 98.4164 -29.8891C90.4628 -30.2853 74.6547 -27.4715 66.1838 -18.1642L65.8169 -17.7606C62.2001 -13.258 59.0313 -8.41324 56.3555 -3.29516C56.3149 -3.20573 56.2568 -3.12535 56.1846 -3.0588C56.1124 -2.99224 56.0275 -2.94086 55.9351 -2.90769C55.8427 -2.87452 55.7445 -2.86025 55.6465 -2.86571C55.5484 -2.87117 55.4525 -2.89626 55.3643 -2.93948C55.2761 -2.98271 55.1975 -3.0432 55.1332 -3.11736C55.0688 -3.19153 55.02 -3.27786 54.9896 -3.37124C54.9592 -3.46462 54.9479 -3.56315 54.9563 -3.66099C54.9646 -3.75883 54.9926 -3.854 55.0384 -3.94084C56.4797 -6.74772 58.0832 -9.46834 59.8407 -12.0889C59.7876 -12.2071 59.7668 -12.3373 59.7803 -12.4661C59.7938 -12.595 59.8412 -12.718 59.9177 -12.8226C61.3037 -14.7316 62.7865 -16.5683 64.3605 -18.3256C64.7298 -18.7927 65.1076 -19.2599 65.4941 -19.727C71.617 -27.1266 81.46 -36.2359 93.5702 -37.7033C101.337 -38.6352 107.005 -37.3768 110.893 -33.8586C113.462 -31.5327 115.208 -28.2529 116.173 -23.8249C122.042 -19.0886 124.339 -13.1014 122.985 -6.01729C120.949 4.62177 115.358 12.546 108.799 21.0609C91.3543 43.7001 72.3617 60.209 52.3603 70.0336C43.1012 74.5891 33.2396 77.801 23.0736 79.5721C20.6434 80.0382 18.1774 80.2935 15.7033 80.3351ZM116.591 -21.521C116.996 -18.5271 117.157 -15.5051 117.071 -12.4851C116.963 -9.06311 116.325 -5.67853 115.182 -2.45137C112.588 5.16839 107.819 12.5424 101.392 18.8781C92.4549 27.6828 79.1671 31.1314 67.4458 34.1763C65.8206 34.5982 64.2137 35.0164 62.6435 35.4383C59.4702 36.2968 56.2417 37.1259 53.1051 37.9293C42.2496 40.7175 31.0235 43.6011 20.4945 48.0695C15.1273 50.3514 9.12175 53.3706 5.1853 58.4994C2.2247 62.3698 0.445415 68.346 3.14553 72.9722C4.78542 75.7824 7.95879 77.8074 11.8512 78.5338C15.5199 79.2125 19.2802 78.7356 22.8094 78.1229C32.8381 76.378 42.5664 73.2106 51.7 68.7166C71.2318 59.1084 90.5729 42.3244 107.636 20.1585C114.078 11.794 119.57 4.01645 121.544 -6.29977C122.681 -12.243 121.015 -17.3497 116.591 -21.521ZM98.2293 -36.5404C96.7307 -36.5324 95.2338 -36.4368 93.7463 -36.2542C85.4295 -35.2563 78.1399 -30.4688 72.259 -24.8374C81.0638 -30.0102 92.1687 -31.6684 98.4898 -31.3456C104.928 -31.0191 110.809 -27.6769 114.313 -25.2189C113.373 -28.4804 111.917 -30.964 109.91 -32.78C107.126 -35.2967 103.27 -36.5404 98.2293 -36.5404Z" fill="#263238"/>
<path d="M34.1089 13.1953L44.1794 84.055C44.2512 84.5502 44.5161 84.9968 44.9161 85.2972C45.3162 85.5976 45.819 85.7274 46.3145 85.6582L89.1936 79.5609C89.6891 79.4901 90.1363 79.2254 90.4369 78.8251C90.7375 78.4247 90.8669 77.9215 90.7968 77.4258L80.7227 6.56969C80.688 6.32446 80.6054 6.08845 80.4795 5.87515C80.3536 5.66186 80.187 5.47545 79.989 5.32657C79.7911 5.1777 79.5658 5.06927 79.3259 5.00749C79.0861 4.9457 78.8364 4.93178 78.5912 4.9665L35.7085 11.0491C35.4619 11.0837 35.2247 11.1668 35.0105 11.2936C34.7963 11.4205 34.6094 11.5886 34.4607 11.7882C34.3119 11.9879 34.2042 12.215 34.1438 12.4565C34.0835 12.698 34.0716 12.9491 34.1089 13.1953ZM62.1557 11.9699L53.4427 13.2063C53.257 13.2325 53.0679 13.2219 52.8862 13.1751C52.7046 13.1283 52.534 13.0462 52.3841 12.9334C52.2342 12.8207 52.108 12.6795 52.0126 12.5179C51.9173 12.3564 51.8547 12.1777 51.8285 11.9919C51.8022 11.8062 51.8128 11.6171 51.8596 11.4355C51.9064 11.2539 51.9886 11.0832 52.1013 10.9333C52.2141 10.7835 52.3553 10.6572 52.5168 10.5619C52.6783 10.4666 52.8571 10.404 53.0428 10.3777L61.7521 9.13774C61.9402 9.10655 62.1326 9.11327 62.3181 9.15748C62.5035 9.2017 62.6782 9.28253 62.832 9.39522C62.9857 9.50791 63.1154 9.6502 63.2134 9.81371C63.3114 9.97723 63.3758 10.1587 63.4027 10.3474C63.4296 10.5361 63.4185 10.7283 63.37 10.9127C63.3216 11.0971 63.2368 11.2699 63.1206 11.4211C63.0045 11.5723 62.8593 11.6987 62.6936 11.7929C62.5279 11.8872 62.345 11.9473 62.1557 11.9699Z" fill="white"/>
<path d="M46.0396 85.8566C45.5416 85.8554 45.0606 85.6749 44.6846 85.3482C44.3087 85.0215 44.063 84.5703 43.9925 84.0773L33.9331 13.2212C33.8576 12.6781 34 12.1271 34.3293 11.6886C34.6585 11.2501 35.1478 10.9596 35.6904 10.8806L78.5731 4.78697C79.1164 4.71049 79.6678 4.85252 80.1066 5.18191C80.5453 5.51131 80.8355 6.00122 80.9137 6.54425L90.9841 77.3967C91.0235 77.6659 91.0092 77.9402 90.942 78.2039C90.8749 78.4675 90.7562 78.7153 90.5928 78.9329C90.4295 79.1505 90.2247 79.3335 89.9902 79.4716C89.7558 79.6097 89.4963 79.7 89.2268 79.7373L46.3404 85.8345C46.2409 85.8494 46.1403 85.8568 46.0396 85.8566ZM78.8482 5.1465C78.7689 5.14119 78.6892 5.14119 78.6098 5.1465L35.7344 11.2438C35.513 11.2753 35.3 11.3501 35.1075 11.4639C34.915 11.5778 34.7468 11.7284 34.6126 11.9073C34.4784 12.0862 34.3807 12.2897 34.3252 12.5064C34.2696 12.723 34.2573 12.9484 34.289 13.1698L44.363 84.0259C44.4276 84.4726 44.6665 84.8756 45.0275 85.1465C45.3885 85.4174 45.8421 85.5342 46.2891 85.4713L89.1681 79.3741C89.3896 79.3435 89.6028 79.2694 89.7955 79.1561C89.9882 79.0427 90.1566 78.8924 90.2909 78.7137C90.4253 78.535 90.5229 78.3315 90.5783 78.1149C90.6337 77.8983 90.6457 77.6729 90.6136 77.4517L80.5432 6.59561C80.4842 6.18978 80.2813 5.81866 79.9715 5.54995C79.6617 5.28124 79.2657 5.13284 78.8556 5.13182L78.8482 5.1465ZM53.2338 13.4193C52.8283 13.4147 52.4394 13.2577 52.1444 12.9794C51.8494 12.7011 51.6699 12.322 51.6417 11.9174C51.6135 11.5129 51.7386 11.1125 51.9922 10.796C52.2457 10.4795 52.6091 10.27 53.01 10.2092L61.7194 8.97289C61.929 8.94191 62.1426 8.95288 62.3479 9.00515C62.5532 9.05742 62.7461 9.14996 62.9154 9.27739C63.0853 9.40427 63.2286 9.56348 63.3369 9.74588C63.4451 9.92828 63.5163 10.1303 63.5463 10.3402C63.5763 10.5502 63.5645 10.7641 63.5117 10.9695C63.4588 11.1749 63.3659 11.3679 63.2382 11.5373C62.9809 11.8732 62.601 12.0935 62.1816 12.1499L53.4686 13.3899C53.3932 13.4003 53.3172 13.4052 53.2412 13.4046L53.2338 13.4193ZM61.9505 9.32141C61.8907 9.3161 61.8305 9.3161 61.7707 9.32141L53.0614 10.5577C52.8993 10.5818 52.7435 10.6376 52.6029 10.7219C52.4624 10.8062 52.3398 10.9174 52.2422 11.049C52.1446 11.1807 52.0739 11.3303 52.0341 11.4893C51.9943 11.6483 51.9862 11.8136 52.0103 11.9757C52.0344 12.1378 52.0902 12.2936 52.1745 12.4341C52.2588 12.5747 52.3699 12.6973 52.5016 12.7949C52.6333 12.8925 52.7829 12.9632 52.9419 13.003C53.1009 13.0427 53.2661 13.0508 53.4283 13.0267L62.1303 11.7831C62.2927 11.7614 62.4491 11.7074 62.5902 11.6242C62.7314 11.541 62.8544 11.4304 62.952 11.2988C63.1495 11.0338 63.2351 10.7018 63.1905 10.3743C63.1474 10.0777 62.9993 9.80641 62.7731 9.60981C62.5468 9.4132 62.2576 9.30435 61.9578 9.30307L61.9505 9.32141Z" fill="#263238"/>
<path d="M79.2924 13.0896L37.2869 19.0604L46.3724 82.9786L88.378 77.0078L79.2924 13.0896Z" fill="#037BE2"/>
<path d="M46.3767 83.16C46.3328 83.1596 46.2905 83.1434 46.2575 83.1145C46.2246 83.0855 46.203 83.0457 46.1969 83.0023L37.1097 19.0872C37.1063 19.0627 37.1078 19.0378 37.1141 19.0139C37.1204 18.9899 37.1313 18.9675 37.1464 18.9478C37.1603 18.929 37.1779 18.9131 37.198 18.9011C37.2182 18.8892 37.2406 18.8813 37.2638 18.8781L79.2734 12.9056C79.2973 12.9025 79.3216 12.9041 79.3449 12.9104C79.3682 12.9167 79.39 12.9275 79.4091 12.9423C79.429 12.9559 79.4457 12.9739 79.4577 12.9949C79.4698 13.0158 79.477 13.0392 79.4788 13.0633L88.566 76.9784C88.5697 77.0022 88.5686 77.0266 88.5628 77.05C88.557 77.0734 88.5467 77.0955 88.5324 77.1149C88.5181 77.1343 88.5 77.1507 88.4794 77.1632C88.4587 77.1756 88.4358 77.1839 88.4119 77.1875L46.406 83.16H46.3767ZM37.4986 19.2156L46.5344 82.7711L88.1771 76.85L79.1413 13.2945L37.4986 19.2156Z" fill="#263238"/>
<path d="M51.1758 -5.77158L53.5567 10.9794C53.5684 11.0639 53.5967 11.1452 53.64 11.2187C53.6833 11.2922 53.7407 11.3563 53.8089 11.4075C53.8771 11.4587 53.9548 11.4958 54.0375 11.5168C54.1201 11.5378 54.2061 11.5422 54.2905 11.5297L60.8463 10.5979C60.9308 10.5862 61.0121 10.5579 61.0856 10.5146C61.159 10.4713 61.2232 10.4139 61.2744 10.3457C61.3255 10.2775 61.3627 10.1998 61.3837 10.1172C61.4046 10.0345 61.409 9.94853 61.3966 9.86417L59.0157 -6.88684L51.1758 -5.77158ZM55.7102 -2.00755C55.4373 -1.96897 55.1591 -2.01217 54.9107 -2.13168C54.6623 -2.25119 54.4549 -2.44164 54.3148 -2.67898C54.1746 -2.91631 54.1079 -3.18987 54.1232 -3.46508C54.1384 -3.74029 54.2349 -4.00481 54.4005 -4.22519C54.566 -4.44558 54.7932 -4.61194 55.0533 -4.70326C55.3133 -4.79458 55.5946 -4.80676 55.8616 -4.73825C56.1286 -4.66974 56.3693 -4.52363 56.5532 -4.31837C56.7372 -4.11312 56.8562 -3.85793 56.8952 -3.58507C56.9468 -3.22105 56.8529 -2.85137 56.6338 -2.55609C56.4148 -2.26082 56.0882 -2.06374 55.7249 -2.00755H55.7102Z" fill="white"/>
<path d="M54.2132 11.7207C54.0103 11.7195 53.8149 11.6442 53.6636 11.5091C53.5123 11.374 53.4155 11.1884 53.3914 10.987L51.0068 -5.76404C51.0014 -5.81244 51.0148 -5.86107 51.0441 -5.89995C51.0734 -5.93883 51.1165 -5.96501 51.1645 -5.97315L59.0044 -7.07374C59.0527 -7.07887 59.1011 -7.06579 59.1402 -7.03705C59.1598 -7.02274 59.1764 -7.00467 59.189 -6.98389C59.2016 -6.9631 59.2099 -6.94002 59.2135 -6.91599L61.5945 9.83502C61.61 9.94344 61.604 10.0539 61.5768 10.1599C61.5497 10.266 61.5018 10.3657 61.436 10.4533C61.3703 10.5409 61.2879 10.6146 61.1936 10.6703C61.0992 10.726 60.9949 10.7626 60.8864 10.7779L54.3306 11.7097L54.2132 11.7207ZM51.3957 -5.61729L53.7436 10.954C53.7609 11.0759 53.8258 11.1861 53.9241 11.2604C54.0224 11.3346 54.1461 11.3669 54.2682 11.3502L60.8241 10.4183C60.9469 10.4 61.0575 10.3341 61.1322 10.2349C61.169 10.1861 61.1957 10.1305 61.2108 10.0713C61.2259 10.0121 61.2291 9.95049 61.2203 9.89005L58.8797 -6.67753L51.3957 -5.61729ZM55.5265 -1.81291C55.1208 -1.8419 54.7422 -2.02719 54.4704 -2.32976C54.1986 -2.63234 54.0548 -3.02859 54.0693 -3.43508C54.0838 -3.84157 54.2554 -4.22656 54.5481 -4.509C54.8408 -4.79144 55.2317 -4.94927 55.6384 -4.94927C56.0452 -4.94927 56.4361 -4.79144 56.7287 -4.509C57.0214 -4.22656 57.1931 -3.84157 57.2076 -3.43508C57.2221 -3.02859 57.0783 -2.63234 56.8065 -2.32976C56.5347 -2.02719 56.156 -1.8419 55.7503 -1.81291C55.6758 -1.80745 55.601 -1.80745 55.5265 -1.81291ZM55.5302 -4.59741H55.3578C55.2006 -4.57566 55.0494 -4.52297 54.9127 -4.44236C54.7761 -4.36176 54.6567 -4.25485 54.5617 -4.12782C54.3687 -3.87063 54.2856 -3.54739 54.3306 -3.22901C54.3523 -3.07185 54.405 -2.92057 54.4856 -2.78392C54.5662 -2.64727 54.6731 -2.52796 54.8002 -2.43291C55.0573 -2.2399 55.3806 -2.15678 55.699 -2.20179C55.9356 -2.23574 56.1569 -2.33898 56.3349 -2.49849C56.5129 -2.658 56.6398 -2.86665 56.6994 -3.09813C56.759 -3.32961 56.7488 -3.57357 56.67 -3.79925C56.5912 -4.02493 56.4474 -4.22223 56.2566 -4.36629C56.0463 -4.52074 55.7911 -4.60193 55.5302 -4.59741Z" fill="#263238"/>
<path d="M52.207 1.38989L60.0488 0.27524L61.4046 9.81321C61.4308 9.99816 61.3826 10.186 61.2704 10.3354C61.1582 10.4847 60.9913 10.5834 60.8063 10.6097L54.3593 11.5261C54.1743 11.5524 53.9865 11.5041 53.8371 11.3919C53.6878 11.2798 53.5891 11.1128 53.5628 10.9279L52.207 1.38989Z" fill="white"/>
<path d="M54.2606 11.7133C54.047 11.7122 53.8407 11.6346 53.6793 11.4946C53.5178 11.3547 53.4117 11.1616 53.3802 10.9502L52.0264 1.41178C52.0224 1.3881 52.0232 1.36384 52.0289 1.3405C52.0346 1.31715 52.045 1.29522 52.0595 1.27604C52.0738 1.2564 52.0918 1.2398 52.1126 1.22721C52.1334 1.21461 52.1565 1.20627 52.1805 1.20267L60.0241 0.102078C60.0721 0.0967928 60.1202 0.110253 60.1585 0.139651C60.1968 0.169049 60.2222 0.212108 60.2295 0.259826L61.5869 9.79829C61.6194 10.0317 61.5581 10.2685 61.4165 10.4569C61.2749 10.6452 61.0644 10.7699 60.8312 10.8035L54.3854 11.7207L54.2606 11.7133ZM52.4263 1.54018L53.7434 10.8989C53.7633 11.0356 53.8368 11.1588 53.9475 11.2413C54.0583 11.3239 54.1973 11.359 54.334 11.3391L60.7798 10.4256C60.8478 10.4162 60.9133 10.3934 60.9725 10.3585C61.0316 10.3237 61.0833 10.2775 61.1246 10.2226C61.1659 10.1677 61.1958 10.1052 61.2129 10.0387C61.2299 9.97217 61.2336 9.90293 61.2237 9.83498L59.892 0.476275L52.4263 1.54018Z" fill="#263238"/>
<path d="M57.9625 3.56574C57.9227 3.28555 57.8006 3.02347 57.6118 2.81265C57.423 2.60183 57.1759 2.45174 56.9018 2.38136C56.6277 2.31099 56.3388 2.3235 56.0718 2.4173C55.8048 2.51109 55.5716 2.68197 55.4017 2.90832C55.2318 3.13467 55.1329 3.40631 55.1174 3.6889C55.1019 3.97148 55.1706 4.25232 55.3147 4.49587C55.4588 4.73943 55.672 4.93478 55.9271 5.05719C56.1823 5.17961 56.468 5.2236 56.7482 5.1836C57.1233 5.12908 57.4616 4.92831 57.6891 4.62516C57.9166 4.32201 58.0149 3.94114 57.9625 3.56574Z" fill="white"/>
<path d="M56.5433 5.38131C56.195 5.38212 55.8561 5.26871 55.5785 5.05847C55.3222 4.86808 55.1283 4.60583 55.0214 4.30503C54.9145 4.00423 54.8995 3.67845 54.9781 3.36906C55.0567 3.05966 55.2255 2.78061 55.463 2.56734C55.7006 2.35407 55.9961 2.21621 56.3122 2.17125C56.5227 2.1391 56.7375 2.14911 56.9441 2.2007C57.1506 2.25228 57.3449 2.34441 57.5156 2.47173C57.6863 2.59906 57.8299 2.75904 57.9382 2.94237C58.0466 3.1257 58.1173 3.32872 58.1465 3.53965C58.1776 3.75002 58.1669 3.96446 58.1149 4.17066C58.0629 4.37687 57.9707 4.57077 57.8435 4.74122C57.7164 4.91167 57.5568 5.05532 57.374 5.1639C57.1911 5.27249 56.9886 5.34388 56.7781 5.37397C56.7001 5.38204 56.6217 5.38449 56.5433 5.38131ZM56.5433 2.51977C56.4835 2.51418 56.4233 2.51418 56.3635 2.51977C56.1188 2.55338 55.8896 2.65913 55.7052 2.82352C55.5208 2.98791 55.3895 3.20349 55.3281 3.44279C55.2667 3.68208 55.278 3.93424 55.3605 4.16711C55.4429 4.39998 55.5929 4.60301 55.7912 4.7503C55.9886 4.89758 56.2251 4.98313 56.4711 4.99619C56.717 5.00925 56.9612 4.94922 57.1731 4.82368C57.3849 4.69814 57.5549 4.51269 57.6615 4.29072C57.7682 4.06875 57.8067 3.82018 57.7723 3.57634C57.7308 3.27972 57.5836 3.00805 57.3578 2.81125C57.132 2.61445 56.8428 2.50574 56.5433 2.5051V2.51977Z" fill="#263238"/>
<path d="M57.0711 3.7122C57.0468 3.57693 56.9711 3.45632 56.8598 3.37566C56.7485 3.29499 56.6103 3.26053 56.4742 3.27951C56.338 3.29848 56.2145 3.36941 56.1295 3.47743C56.0445 3.58545 56.0046 3.72217 56.0182 3.85895C56.0253 3.93022 56.0467 3.99933 56.0812 4.06213C56.1156 4.12494 56.1624 4.18014 56.2186 4.22443C56.2749 4.26872 56.3396 4.30118 56.4087 4.31988C56.4779 4.33857 56.5501 4.34312 56.621 4.33323C56.6919 4.32334 56.7602 4.29923 56.8216 4.26234C56.8829 4.22545 56.9363 4.17655 56.9783 4.11855C57.0203 4.06056 57.0502 3.99468 57.0662 3.92485C57.0821 3.85503 57.0838 3.7827 57.0711 3.7122Z" fill="white"/>
<path d="M56.5464 4.48229C56.4039 4.48641 56.2633 4.44892 56.1418 4.37441C56.0202 4.2999 55.923 4.19159 55.862 4.06273C55.801 3.93387 55.7789 3.79003 55.7984 3.6488C55.8178 3.50757 55.878 3.37506 55.9715 3.26747C56.065 3.15988 56.1879 3.08187 56.325 3.04297C56.4622 3.00408 56.6077 3.00598 56.7438 3.04845C56.8799 3.09092 57.0007 3.17212 57.0914 3.28212C57.1821 3.39212 57.2387 3.52616 57.2545 3.66785C57.2788 3.85485 57.2302 4.04403 57.1187 4.19614C57.0624 4.27179 56.9915 4.33542 56.9102 4.3833C56.829 4.43118 56.739 4.46234 56.6455 4.47495L56.5464 4.48229ZM56.5464 3.41838H56.4951C56.4064 3.43611 56.3273 3.486 56.2731 3.55845C56.219 3.63091 56.1935 3.72082 56.2016 3.81093C56.2185 3.90032 56.2681 3.98022 56.3406 4.03513C56.4131 4.09005 56.5035 4.11605 56.5941 4.10809C56.6855 4.09361 56.7681 4.04513 56.8252 3.97235C56.8785 3.89797 56.9021 3.80638 56.8913 3.71554C56.8757 3.63441 56.8331 3.56094 56.7705 3.50701C56.7079 3.45308 56.629 3.42185 56.5464 3.41838Z" fill="#263238"/>
<path d="M72.869 16.7381L44.4839 20.7728L50.3958 62.3644L78.7809 58.3296L72.869 16.7381Z" fill="white"/>
<path d="M50.3977 62.5452C50.3567 62.546 50.3167 62.5331 50.2839 62.5085C50.2465 62.4782 50.2217 62.4351 50.2142 62.3875L44.3004 20.7961C44.2941 20.7475 44.3071 20.6984 44.3366 20.6593C44.3661 20.6202 44.4097 20.5943 44.4581 20.587L72.8424 16.5515C72.891 16.5452 72.9401 16.5582 72.9792 16.5877C73.0183 16.6172 73.0442 16.6608 73.0515 16.7092L78.9654 58.3006C78.9705 58.3488 78.9574 58.3973 78.9287 58.4363C78.9144 58.456 78.8963 58.4726 78.8755 58.4852C78.8547 58.4978 78.8316 58.5061 78.8076 58.5097L50.4233 62.5452H50.3977ZM44.6893 20.9245L50.5591 62.1563L78.5838 58.1722L72.714 16.944L44.6893 20.9245Z" fill="#263238"/>
<path d="M50.3976 62.362C55.8125 61.6283 72.9047 59.0602 78.7818 58.3265C78.2976 54.9293 77.6592 50.5123 77.5822 48.3955C76.8154 47.8452 75.4764 47.372 73.5467 46.3521C70.52 44.7562 65.6077 41.4031 65.6077 41.4031L63.612 41.6159L63.5937 41.4985L61.9978 41.7846L60.3799 41.9534V42.0708L58.4025 42.4376C58.4025 42.4376 54.6202 47.0271 52.1658 49.408C50.5443 50.9746 49.5318 51.6899 48.9705 52.453C49.0145 52.5814 49.8473 58.4366 50.3976 62.362Z" fill="white"/>
<path d="M50.394 62.5016C50.3606 62.501 50.3285 62.4885 50.3036 62.4662C50.2787 62.444 50.2626 62.4136 50.2582 62.3805C49.7043 58.4221 48.8825 52.622 48.8495 52.4752C48.8451 52.4561 48.8451 52.4363 48.8495 52.4172C48.854 52.3981 48.8628 52.3803 48.8751 52.3651C49.3286 51.812 49.8375 51.3067 50.394 50.8573C50.8525 50.4501 51.4249 49.9438 52.0852 49.3018C54.5138 46.9612 58.2815 42.3975 58.3219 42.3498C58.343 42.3237 58.3731 42.3067 58.4063 42.3021L60.2406 41.9719C60.2389 41.9554 60.2407 41.9388 60.2458 41.923C60.2508 41.9072 60.259 41.8926 60.2699 41.8802C60.2807 41.8656 60.2945 41.8535 60.3103 41.8447C60.3261 41.8358 60.3436 41.8304 60.3617 41.8288L61.9795 41.6601L63.568 41.3739C63.5858 41.3701 63.6041 41.3701 63.6218 41.3739C63.6395 41.3777 63.6562 41.3852 63.6708 41.3959C63.6985 41.4151 63.7181 41.4438 63.7258 41.4766L65.5895 41.2785C65.6216 41.2761 65.6537 41.2838 65.6812 41.3005C65.7325 41.3372 70.6228 44.6683 73.6055 46.2422C74.4456 46.6861 75.161 47.0199 75.8066 47.3134C76.4553 47.5864 77.0788 47.9154 77.6703 48.2966C77.6879 48.3084 77.7024 48.3242 77.7126 48.3427C77.7228 48.3612 77.7284 48.3819 77.729 48.403C77.7987 50.4098 78.3857 54.5186 78.8553 57.8204L78.925 58.3193C78.9282 58.3373 78.9276 58.3558 78.9232 58.3735C78.9188 58.3912 78.9106 58.4078 78.8993 58.4221C78.8765 58.451 78.8439 58.4706 78.8076 58.4771C75.1023 58.9283 67.112 60.095 60.0608 61.1222C55.963 61.7202 52.4264 62.2228 50.4233 62.5089L50.394 62.5016ZM49.1283 52.4715C49.2347 53.1429 50.0271 58.7412 50.5114 62.2081C52.5365 61.9293 56.0143 61.423 60.0131 60.8397C66.9836 59.8235 74.8601 58.6752 78.6278 58.2093L78.5765 57.8424C78.1105 54.57 77.5309 50.5051 77.4502 48.4617C76.8845 48.1122 76.2934 47.8056 75.6819 47.5446C75.0509 47.2511 74.3318 46.9135 73.4807 46.466C70.6338 44.9655 66.0591 41.8692 65.5711 41.539L63.6267 41.7444C63.5953 41.7464 63.564 41.7382 63.5376 41.721C63.5112 41.7038 63.491 41.6786 63.48 41.6491L62.0125 41.9132L60.5267 42.0709C60.5262 42.1024 60.5144 42.1326 60.4936 42.1561C60.4727 42.1797 60.4442 42.195 60.413 42.1993L58.487 42.5442C58.1201 42.9991 54.5835 47.2437 52.2503 49.4816C51.5863 50.1273 51.0103 50.6372 50.548 51.0444C50.0335 51.4771 49.5583 51.9547 49.1283 52.4715Z" fill="#263238"/>
<path d="M77.5902 48.3955C76.8412 47.9342 76.0574 47.5319 75.246 47.1922L75.0442 47.0968L74.7764 46.9684L74.4095 46.7886L74.1931 46.6786C73.9876 46.5759 73.7785 46.4695 73.5584 46.3521C70.5318 44.7562 65.6194 41.4031 65.6194 41.4031L63.6237 41.6159L63.6054 41.4985L62.0095 41.7846L60.3916 41.9534V42.0708L58.4142 42.4376C58.4142 42.4376 54.6319 47.0271 52.1776 49.408C52.0125 49.5695 51.8547 49.7199 51.697 49.8666C50.3542 51.1176 49.4958 51.767 48.9822 52.453C48.9822 52.5044 49.0922 53.2051 49.2463 54.2617L77.715 50.2262C77.6489 49.5034 77.5902 48.8871 77.5902 48.3955Z" fill="#263238"/>
<path d="M78.0781 53.2386L49.6792 57.2742C49.8259 58.3197 49.9837 59.4276 50.1341 60.4879L78.5147 56.4524C78.3643 55.3885 78.2139 54.2879 78.0781 53.2386Z" fill="#263238"/>
<path d="M62.9441 49.115L64.008 55.9093L65.7102 55.6672L64.0667 48.8582C64.0667 48.8582 63.0798 48.7114 62.9441 49.115Z" fill="white"/>
<path d="M64.016 56.0448C63.9837 56.0445 63.9525 56.033 63.9277 56.0123C63.903 55.9915 63.8862 55.9628 63.8802 55.9311L62.8163 49.1368C62.8109 49.1151 62.8109 49.0924 62.8163 49.0707C62.9814 48.5718 63.9756 48.7039 64.0894 48.7222C64.116 48.7261 64.1408 48.738 64.1604 48.7564C64.1801 48.7747 64.1937 48.7986 64.1994 48.8249L65.8503 55.6339C65.8555 55.6525 65.8565 55.672 65.8533 55.691C65.8501 55.71 65.8429 55.7281 65.832 55.744C65.821 55.7598 65.8068 55.7732 65.7904 55.7833C65.774 55.7934 65.7557 55.8 65.7366 55.8027L64.0343 56.0448H64.016ZM63.0951 49.1331L64.1297 55.7367L65.5495 55.5349L63.9646 48.968C63.6234 48.9497 63.1832 48.9717 63.0878 49.1331H63.0951Z" fill="#263238"/>
<path d="M64.0931 50.968C64.0881 50.9325 64.0762 50.8984 64.058 50.8676C64.0399 50.8367 64.0157 50.8098 63.9871 50.7883C63.9585 50.7668 63.9258 50.7512 63.8911 50.7424C63.8564 50.7336 63.8203 50.7317 63.7849 50.7369C63.7319 50.7446 63.6823 50.7679 63.6425 50.8038C63.6026 50.8397 63.5743 50.8866 63.5611 50.9385C63.5479 50.9905 63.5504 51.0452 63.5682 51.0958C63.586 51.1464 63.6184 51.1905 63.6613 51.2227C63.7042 51.2548 63.7557 51.2736 63.8092 51.2766C63.8627 51.2795 63.916 51.2666 63.9621 51.2393C64.0083 51.2121 64.0454 51.1718 64.0687 51.1235C64.092 51.0752 64.1005 51.0211 64.0931 50.968Z" fill="white"/>
<path d="M63.8255 51.4048C63.7364 51.4048 63.6499 51.3751 63.5797 51.3204C63.4933 51.2553 63.4354 51.1594 63.4182 51.0526C63.411 50.999 63.4144 50.9445 63.4283 50.8923C63.4421 50.84 63.4661 50.791 63.499 50.7481C63.5468 50.682 63.6135 50.6318 63.6902 50.604C63.767 50.5762 63.8503 50.5722 63.9294 50.5923C64.0085 50.6125 64.0797 50.656 64.1338 50.7171C64.1879 50.7782 64.2223 50.8542 64.2327 50.9352C64.2415 50.9885 64.2392 51.0431 64.2259 51.0955C64.2127 51.1479 64.1888 51.197 64.1556 51.2397C64.1238 51.2825 64.0837 51.3185 64.0377 51.3456C63.9917 51.3727 63.9407 51.3903 63.8878 51.3974L63.8255 51.4048ZM63.8255 50.8581H63.8071C63.7896 50.8598 63.7726 50.8652 63.7574 50.8741C63.7422 50.883 63.7291 50.895 63.7191 50.9095C63.7078 50.9231 63.6997 50.9391 63.6953 50.9562C63.6908 50.9733 63.6902 50.9912 63.6934 51.0086C63.695 51.0261 63.7005 51.043 63.7094 51.0582C63.7182 51.0734 63.7303 51.0865 63.7448 51.0966C63.7733 51.1174 63.8087 51.1266 63.8438 51.1223C63.8613 51.1206 63.8783 51.1152 63.8935 51.1063C63.9087 51.0974 63.9218 51.0854 63.9319 51.0709C63.953 51.0425 63.9622 51.007 63.9575 50.9719C63.9502 50.9425 63.9332 50.9164 63.9092 50.8977C63.8853 50.8791 63.8558 50.8691 63.8255 50.8691V50.8581Z" fill="#263238"/>
<path d="M64.8264 54.1996C64.8241 54.1621 64.8141 54.1255 64.797 54.0921C64.7798 54.0587 64.756 54.0293 64.7269 54.0056C64.6978 53.9819 64.6641 53.9645 64.6279 53.9544C64.5918 53.9444 64.5539 53.942 64.5168 53.9473C64.4796 53.9527 64.444 53.9657 64.4121 53.9855C64.3803 54.0053 64.3528 54.0315 64.3316 54.0624C64.3104 54.0934 64.2958 54.1284 64.2887 54.1652C64.2817 54.2021 64.2824 54.24 64.2908 54.2766C64.2953 54.3119 64.3068 54.346 64.3246 54.3768C64.3424 54.4076 64.3662 54.4345 64.3945 54.4561C64.4229 54.4776 64.4552 54.4932 64.4897 54.5021C64.5242 54.511 64.56 54.5129 64.5953 54.5077C64.6307 54.5028 64.6649 54.4909 64.6957 54.4727C64.7265 54.4545 64.7535 54.4304 64.775 54.4017C64.7964 54.3731 64.812 54.3405 64.8209 54.3058C64.8297 54.2711 64.8316 54.235 64.8264 54.1996Z" fill="white"/>
<path d="M64.5591 54.6473C64.4581 54.6478 64.3606 54.6103 64.2859 54.5424C64.2112 54.4745 64.1647 54.381 64.1555 54.2805C64.1456 54.2277 64.1473 54.1735 64.1606 54.1215C64.1739 54.0695 64.1985 54.0211 64.2326 53.9796C64.2804 53.9135 64.3471 53.8633 64.4238 53.8356C64.5006 53.8078 64.5839 53.8037 64.663 53.8239C64.7421 53.8441 64.8133 53.8876 64.8674 53.9487C64.9215 54.0098 64.9559 54.0858 64.9663 54.1667C64.9751 54.2201 64.9728 54.2746 64.9595 54.327C64.9463 54.3794 64.9224 54.4285 64.8892 54.4712C64.8238 54.5566 64.7278 54.6131 64.6214 54.629L64.5591 54.6473ZM64.5591 54.1044H64.5407C64.5185 54.1071 64.4972 54.1153 64.4789 54.1282C64.4605 54.1411 64.4457 54.1584 64.4356 54.1784C64.4256 54.1985 64.4207 54.2207 64.4214 54.2431C64.422 54.2656 64.4282 54.2875 64.4394 54.3069C64.4506 54.3263 64.4665 54.3427 64.4856 54.3545C64.5046 54.3663 64.5263 54.3732 64.5487 54.3746C64.5711 54.376 64.5935 54.3718 64.6139 54.3624C64.6342 54.353 64.652 54.3387 64.6655 54.3208C64.6765 54.3071 64.6845 54.2911 64.6889 54.2741C64.6933 54.257 64.6941 54.2392 64.6911 54.2218C64.6875 54.1893 64.672 54.1594 64.6476 54.1377C64.6232 54.1161 64.5917 54.1042 64.5591 54.1044Z" fill="#263238"/>
<path d="M58.7111 40.3613C58.7111 40.3613 57.6105 40.8052 57.306 42.6836C57.0015 44.5619 57.273 49.2468 57.1372 50.3253C57.0015 51.4039 57.3133 51.5543 58.0287 51.1655C58.7441 50.7766 59.4081 49.3311 60.5417 49.166C61.5402 49.0854 62.5442 49.1038 63.539 49.2211C63.539 49.2211 65.1899 47.926 66.3235 47.7536C67.4571 47.5812 69.1704 49.4705 69.6253 49.4045C70.0802 49.3385 68.9539 45.369 67.9157 42.801C66.8775 40.2329 65.0945 39.2461 63.1098 39.5285C61.125 39.811 58.7111 40.3613 58.7111 40.3613Z" fill="white"/>
<path d="M57.464 51.4992C57.3729 51.5015 57.2834 51.4759 57.2072 51.4258C56.9871 51.2754 56.9247 50.9306 57.0018 50.3069C57.0531 49.885 57.0421 48.8761 57.0274 47.7095C57.0054 45.9669 56.9798 43.7987 57.1705 42.6578C57.4897 40.7281 58.6123 40.2512 58.66 40.2328H58.682C58.7077 40.2328 61.14 39.6899 63.1101 39.411C65.3112 39.0992 67.0538 40.2915 68.0627 42.7678C68.8808 44.7783 70.1759 48.8431 69.831 49.4411C69.8147 49.4723 69.7912 49.4991 69.7625 49.5195C69.7338 49.5399 69.7007 49.5533 69.6659 49.5585C69.4348 49.5915 69.123 49.3751 68.5433 48.9568C67.883 48.4762 66.9731 47.8196 66.3421 47.9113C65.2599 48.0654 63.642 49.3237 63.6237 49.3384C63.5956 49.3605 63.5602 49.371 63.5246 49.3677C62.5408 49.2514 61.548 49.2317 60.5603 49.309C59.9073 49.4044 59.4011 49.9804 58.9535 50.4903C58.7133 50.8024 58.4233 51.0726 58.095 51.2901C57.9046 51.4095 57.6881 51.4813 57.464 51.4992ZM58.7554 40.4933C58.6527 40.5447 57.7208 41.0289 57.442 42.6945C57.2549 43.7951 57.2843 45.9632 57.3026 47.6948C57.3026 48.8725 57.3319 49.896 57.2732 50.3326C57.1962 50.9709 57.2953 51.1397 57.3613 51.1874C57.4273 51.2351 57.5851 51.2387 57.963 51.0333C58.2597 50.8291 58.5243 50.5818 58.748 50.2996C59.225 49.7566 59.7679 49.1366 60.5237 49.0302C61.5146 48.9461 62.5115 48.9633 63.4989 49.0816C63.7777 48.8651 65.2379 47.7829 66.3054 47.6141C67.0392 47.5114 67.9673 48.1754 68.7047 48.7147C68.9745 48.942 69.2761 49.1287 69.5999 49.2687C69.7796 48.8615 68.9028 45.545 67.8059 42.8522C66.8521 40.5043 65.2012 39.3707 63.1467 39.6642C61.2647 39.943 58.9535 40.4456 58.7554 40.4896V40.4933Z" fill="#263238"/>
<path d="M50.9519 53.6058C50.1704 52.2338 49.4844 52.4172 49.0515 52.8721C49.2606 54.3176 49.9283 59.0244 50.3942 62.3519H50.5006C51.3738 62.2345 52.5294 62.0694 53.8794 61.875L53.9418 61.8419C53.0797 59.0281 51.814 55.1393 50.9519 53.6058Z" fill="white"/>
<path d="M50.3942 62.4946C50.3608 62.494 50.3288 62.4815 50.3038 62.4593C50.2789 62.4371 50.2628 62.4066 50.2584 62.3736C49.8182 59.2295 49.1358 54.4016 48.9157 52.8938C48.9122 52.8727 48.9136 52.8511 48.92 52.8307C48.9264 52.8103 48.9375 52.7917 48.9524 52.7764C49.0607 52.6492 49.1977 52.5496 49.352 52.4858C49.5064 52.422 49.6737 52.3959 49.8402 52.4095C50.2621 52.4682 50.6767 52.8498 51.0692 53.5431C51.9277 55.0546 53.1787 58.8627 54.0738 61.7902C54.0845 61.8243 54.0817 61.8612 54.066 61.8933C54.0503 61.9254 54.0229 61.9502 53.9894 61.9627L53.9344 61.9884H53.9014C52.5477 62.1828 51.392 62.3552 50.5189 62.4653H50.4052L50.3942 62.4946ZM49.1982 52.9231C49.422 54.486 50.0787 59.1085 50.5116 62.2085L53.7693 61.7462C52.8815 58.8517 51.6635 55.1427 50.8344 53.6752C50.4859 53.0589 50.141 52.725 49.8072 52.6773C49.6937 52.6696 49.5799 52.6877 49.4745 52.7303C49.369 52.7728 49.2745 52.8388 49.1982 52.9231Z" fill="#263238"/>
<path d="M75.5644 58.7416C76.624 58.5258 77.6943 58.3666 78.7708 58.2647C78.3489 55.2894 77.8096 51.5657 77.6335 49.2802C75.2893 50.2487 75.2783 55.282 75.5644 58.7416Z" fill="white"/>
<path d="M75.5646 58.8629C75.5352 58.8621 75.5069 58.8518 75.4839 58.8336C75.4682 58.8228 75.4551 58.8086 75.4456 58.7921C75.4361 58.7756 75.4303 58.7572 75.4288 58.7382C75.1096 54.9045 75.2234 50.1279 77.5823 49.1374C77.6016 49.1274 77.623 49.1222 77.6447 49.1222C77.6664 49.1222 77.6878 49.1274 77.707 49.1374C77.7253 49.1499 77.7407 49.1662 77.7521 49.1852C77.7635 49.2042 77.7706 49.2254 77.7731 49.2474C77.9382 51.4156 78.4408 54.9448 78.8443 57.777L78.9067 58.2173C78.9095 58.2361 78.9084 58.2552 78.9033 58.2736C78.8983 58.2919 78.8894 58.3089 78.8773 58.3236C78.8665 58.3382 78.8528 58.3503 78.837 58.3591C78.8212 58.368 78.8037 58.3734 78.7856 58.375C77.714 58.4769 76.6485 58.6361 75.5939 58.8519L75.5646 58.8629ZM77.5126 49.4749C75.4068 50.6195 75.4508 55.5575 75.6783 58.5584C76.5918 58.375 77.553 58.2319 78.6132 58.1219L78.5728 57.8247C78.1803 55.0732 77.696 51.6651 77.5126 49.4749Z" fill="#263238"/>
<path d="M66.1327 30.7751C66.1327 30.7751 66.2794 27.7155 67.7359 29.825C69.1923 31.9344 66.6169 35.1959 66.2684 34.6676C65.9199 34.1393 66.1327 30.7751 66.1327 30.7751Z" fill="white"/>
<path d="M66.3673 34.8621C66.3225 34.8634 66.2782 34.8533 66.2384 34.8328C66.1986 34.8123 66.1647 34.782 66.1398 34.7447C65.773 34.1944 65.9711 31.1238 65.9968 30.7679C65.9968 30.5918 66.0922 29.1427 66.7305 28.9629C67.0607 28.8712 67.4312 29.1244 67.8604 29.7444C68.7042 30.966 68.2273 32.4261 67.8604 33.1855C67.4385 34.077 66.7855 34.8291 66.393 34.8621H66.3673ZM66.8552 29.2197H66.7965C66.4517 29.3188 66.2939 30.3203 66.2719 30.7752C66.1765 32.0556 66.1215 34.2238 66.3673 34.5796C66.4297 34.5796 66.7672 34.3925 67.1817 33.7909C67.9155 32.7453 68.4548 31.0944 67.622 29.8911C67.3175 29.4582 67.046 29.2197 66.8552 29.2197Z" fill="#263238"/>
<path d="M66.3087 32.5405H66.2831C66.2651 32.5375 66.2479 32.5308 66.2326 32.521C66.2172 32.5111 66.204 32.4983 66.1938 32.4832C66.1835 32.4681 66.1763 32.4511 66.1728 32.4333C66.1692 32.4154 66.1693 32.397 66.173 32.3791C66.2317 32.0636 66.5582 30.4751 66.9838 30.2183C67.0407 30.1782 67.1065 30.1526 67.1755 30.1437C67.2446 30.1348 67.3147 30.1427 67.38 30.1669C67.4716 30.2185 67.5515 30.2884 67.6146 30.3724C67.6778 30.4564 67.7228 30.5526 67.7469 30.6549C67.7546 30.6903 67.7482 30.7274 67.729 30.7583C67.7098 30.7891 67.6794 30.8112 67.6441 30.82C67.6268 30.8249 67.6086 30.8262 67.5907 30.8238C67.5728 30.8214 67.5556 30.8154 67.5402 30.8061C67.5247 30.7969 67.5113 30.7845 67.5008 30.7698C67.4903 30.7552 67.4829 30.7385 67.479 30.7209C67.457 30.6402 67.3873 30.4604 67.2883 30.4237C67.2883 30.4237 67.2296 30.3981 67.1415 30.4531C66.9067 30.5962 66.5986 31.6968 66.4592 32.4305C66.4514 32.4638 66.4319 32.4932 66.4043 32.5134C66.3767 32.5336 66.3428 32.5432 66.3087 32.5405Z" fill="#263238"/>
<path d="M67.2262 32.5296C67.2039 32.5299 67.1818 32.5247 67.162 32.5145C67.1422 32.5043 67.1252 32.4893 67.1125 32.4709C67.0926 32.4406 67.0853 32.4037 67.0921 32.3681C67.099 32.3325 67.1194 32.3009 67.1492 32.2801C67.2228 32.2243 67.2777 32.1473 67.3066 32.0595C67.3354 31.9717 67.3368 31.8772 67.3106 31.7885C67.307 31.7717 67.2994 31.756 67.2886 31.7426C67.2777 31.7292 67.2639 31.7186 67.2482 31.7115C67.016 31.676 66.7786 31.7145 66.5695 31.8216C66.5532 31.8289 66.5355 31.8329 66.5176 31.8333C66.4997 31.8337 66.4818 31.8306 66.4651 31.8242C66.4484 31.8177 66.4331 31.808 66.4202 31.7955C66.4073 31.7831 66.3969 31.7683 66.3898 31.7518C66.3819 31.7356 66.3775 31.7178 66.3768 31.6998C66.3761 31.6817 66.3791 31.6637 66.3856 31.6469C66.3922 31.63 66.4021 31.6147 66.4148 31.6018C66.4275 31.589 66.4427 31.5788 66.4595 31.5721C66.7386 31.4325 67.0574 31.3936 67.362 31.462C67.4143 31.4843 67.4608 31.5184 67.4978 31.5617C67.5347 31.605 67.561 31.6563 67.5747 31.7115C67.617 31.8557 67.6139 32.0093 67.566 32.1517C67.5181 32.294 67.4277 32.4183 67.3069 32.5076C67.2825 32.5221 67.2546 32.5297 67.2262 32.5296Z" fill="#263238"/>
<path d="M54.8442 32.3822C54.8442 32.3822 53.85 29.4803 53.0392 31.9126C52.2284 34.3449 55.6072 36.7588 55.8127 36.1535C56.0181 35.5482 54.8442 32.3822 54.8442 32.3822Z" fill="white"/>
<path d="M55.6547 36.3846C55.5707 36.3818 55.4878 36.3657 55.4089 36.3369C54.5137 36.0397 52.2062 33.9779 52.9105 31.8685C53.149 31.1531 53.4352 30.8046 53.7763 30.8046C54.4294 30.8046 54.9173 32.1693 54.9723 32.3344C55.097 32.6719 56.1536 35.5591 55.9445 36.1938C55.9243 36.2533 55.8848 36.3044 55.8323 36.3389C55.7798 36.3735 55.7173 36.3895 55.6547 36.3846ZM53.78 31.0797C53.5746 31.0797 53.3618 31.3915 53.171 31.9565C52.7088 33.3469 53.6956 34.7777 54.6825 35.5811C55.2475 36.0434 55.629 36.1424 55.6914 36.1021C55.8234 35.6985 55.1631 33.6331 54.7155 32.4334C54.5247 31.8648 54.1102 31.0797 53.78 31.0797Z" fill="#263238"/>
<path d="M55.1342 34.1289C55.1084 34.1285 55.0832 34.1211 55.0612 34.1076C55.0393 34.094 55.0214 34.0748 55.0095 34.0519C54.6683 33.3842 54.0666 32.4157 53.7988 32.3423C53.6998 32.3166 53.6631 32.3423 53.6521 32.3423C53.5677 32.4047 53.5494 32.5954 53.553 32.6798C53.554 32.7162 53.5408 32.7515 53.5161 32.7782C53.4914 32.8049 53.4573 32.821 53.421 32.8229C53.4028 32.8239 53.3847 32.8212 53.3676 32.8151C53.3505 32.8089 53.3348 32.7994 53.3215 32.7871C53.3082 32.7748 53.2974 32.7599 53.2899 32.7434C53.2824 32.7268 53.2783 32.709 53.2779 32.6908C53.2698 32.5877 53.2836 32.4841 53.3184 32.3868C53.3532 32.2894 53.4081 32.2005 53.4796 32.1258C53.5345 32.0831 53.5992 32.0549 53.6679 32.044C53.7365 32.0331 53.8068 32.0398 53.8722 32.0635C54.3528 32.1919 55.1085 33.6263 55.2553 33.8978C55.271 33.93 55.2736 33.9671 55.2627 34.0013C55.2518 34.0354 55.2281 34.0641 55.1966 34.0812C55.1804 34.1024 55.1588 34.1188 55.1342 34.1289Z" fill="#263238"/>
<path d="M54.2466 34.3746C54.2321 34.3782 54.217 34.3782 54.2025 34.3746C54.0614 34.3228 53.9396 34.2288 53.8537 34.1054C53.7677 33.9821 53.7217 33.8353 53.7219 33.6849C53.7214 33.6285 53.7333 33.5726 53.7567 33.5213C53.7802 33.4699 53.8147 33.4243 53.8577 33.3878C54.1318 33.238 54.4489 33.1862 54.7565 33.241C54.7744 33.2433 54.7917 33.2491 54.8073 33.2581C54.8229 33.2671 54.8366 33.2791 54.8475 33.2935C54.8585 33.3078 54.8664 33.3242 54.8709 33.3416C54.8755 33.3591 54.8765 33.3773 54.8739 33.3951C54.8721 33.4132 54.8667 33.4308 54.8578 33.4467C54.849 33.4625 54.8369 33.4764 54.8225 33.4875C54.808 33.4985 54.7914 33.5064 54.7738 33.5107C54.7561 33.515 54.7377 33.5156 54.7198 33.5125C54.4891 33.4686 54.2505 33.4981 54.0374 33.5969C54.0248 33.6079 54.0147 33.6214 54.0078 33.6366C54.0008 33.6517 53.9972 33.6682 53.9971 33.6849C53.9963 33.7779 54.024 33.8689 54.0765 33.9456C54.1289 34.0224 54.2037 34.0812 54.2906 34.1142C54.3256 34.1259 54.3545 34.151 54.371 34.184C54.3875 34.217 54.3902 34.2552 54.3786 34.2903C54.3672 34.3157 54.3486 34.3372 54.3252 34.3521C54.3017 34.3671 54.2744 34.3749 54.2466 34.3746Z" fill="#263238"/>
<path d="M57.864 38.4541C57.864 38.4541 59.4525 44.0084 59.7607 45.0357C60.1276 46.2353 62.2701 49.1152 63.367 48.6713C64.4639 48.2274 64.6657 44.9146 64.8124 43.9314C64.9592 42.9482 64.6693 37.4893 64.6693 37.4893L57.864 38.4541Z" fill="white"/>
<path d="M63.1166 48.8546C62.923 48.8492 62.7334 48.799 62.5626 48.7079C61.3996 48.1539 59.9358 46.0811 59.6277 45.0722C59.3195 44.0634 57.7457 38.5494 57.7273 38.4944C57.7191 38.4765 57.7148 38.4571 57.7148 38.4375C57.7148 38.4179 57.7191 38.3985 57.7273 38.3806C57.7381 38.3643 57.7521 38.3503 57.7685 38.3395C57.785 38.3288 57.8034 38.3216 57.8227 38.3183L64.6317 37.3534C64.6505 37.3498 64.6699 37.3506 64.6883 37.3557C64.7068 37.3608 64.7238 37.37 64.7381 37.3828C64.7531 37.3945 64.7652 37.4096 64.7734 37.4268C64.7817 37.4439 64.7859 37.4628 64.7858 37.4818C64.7858 37.7056 65.0793 42.9628 64.9289 43.9496C64.9068 44.1 64.8848 44.2982 64.8555 44.5366C64.6354 46.4003 64.3235 48.4217 63.388 48.7959C63.3019 48.832 63.2099 48.8519 63.1166 48.8546ZM58.0355 38.5641C58.296 39.4629 59.6167 44.067 59.8918 44.9879C60.167 45.9087 61.5977 47.9228 62.68 48.4547C62.7739 48.511 62.8784 48.5473 62.987 48.5612C63.0956 48.5751 63.2059 48.5663 63.311 48.5354C64.1658 48.1869 64.4593 45.6959 64.6024 44.4999C64.6317 44.2615 64.6537 44.056 64.6757 43.9056C64.8078 43.0361 64.584 38.5237 64.54 37.6432L58.0355 38.5641Z" fill="#263238"/>
<path d="M54.0222 25.6944C54.0222 25.6944 54.3414 31.0029 55.453 34.7559C56.5646 38.509 59.8884 41.5099 61.6126 41.4109C63.3369 41.3118 66.602 36.792 66.4039 34.3561C66.2058 31.9201 66.6313 25.7825 65.4353 23.4896C64.2394 21.1967 62.5811 20.7124 59.1546 21.0536C55.7281 21.3948 53.3949 23.3208 54.0222 25.6944Z" fill="white"/>
<path d="M61.5285 41.5502C59.6502 41.5502 56.3924 38.4355 55.3249 34.7962C54.2573 31.1569 53.9051 26.0172 53.8868 25.7163C53.7702 25.2935 53.7499 24.8499 53.8274 24.4182C53.9048 23.9865 54.0781 23.5776 54.3343 23.2217C55.2001 21.9743 56.9501 21.1342 59.1403 20.9178C62.7722 20.5509 64.3901 21.1892 65.5604 23.4271C66.4298 25.0963 66.4518 28.6769 66.4702 31.5568C66.4702 32.6867 66.4702 33.6589 66.5399 34.345C66.672 35.9298 65.3879 38.3181 64.0526 39.8479C63.5243 40.4569 62.5044 41.4878 61.6202 41.5392L61.5285 41.5502ZM60.8828 21.0938C60.3692 21.0938 59.8006 21.1269 59.1659 21.1892C57.0895 21.3983 55.3652 22.2165 54.5618 23.3904C54.3274 23.7153 54.1691 24.0888 54.0986 24.4831C54.0281 24.8775 54.0472 25.2827 54.1546 25.6686C54.1563 25.6771 54.1563 25.6859 54.1546 25.6943C54.1546 25.7493 54.4884 31.0359 55.5817 34.7265C56.6823 38.4759 60.0317 41.3814 61.6019 41.2824C62.1705 41.2493 62.9886 40.666 63.8398 39.6865C65.1385 38.1934 66.3858 35.8895 66.2611 34.3817C66.2024 33.6846 66.1987 32.7051 66.1914 31.5715C66.173 28.7209 66.151 25.177 65.3109 23.5665C64.3827 21.7946 63.2271 21.0938 60.8828 21.0938Z" fill="#263238"/>
<path d="M54.5246 31.9897C54.5246 31.9897 55.1079 31.7843 54.9721 30.8194C54.8364 29.8546 54.631 29.2712 54.9721 29.0401C55.3133 28.809 55.8306 28.6109 55.8086 27.5727C55.7866 26.5344 54.4659 25.9218 54.7447 24.8395C54.9285 24.2699 55.3017 23.7802 55.8022 23.4519C56.3027 23.1236 56.9004 22.9763 57.4962 23.0346C58.7398 23.1666 59.0737 25.0817 61.0584 26.0905C63.0431 27.0994 65.3801 26.7032 65.3801 26.7032C65.273 26.8717 65.2244 27.0707 65.2416 27.2696C65.2588 27.4685 65.341 27.6562 65.4755 27.8038C65.7269 28.0984 65.8853 28.461 65.9304 28.8457C65.9304 28.8457 66.0991 30.9075 66.4623 30.8561C66.8255 30.8047 66.6458 26.1052 66.543 25.3825C66.4403 24.6598 66.5724 21.7138 64.3418 20.7233C62.1113 19.7328 58.9012 20.0226 56.9679 20.6646C55.0345 21.3066 54.033 22.3742 53.5964 24.1535C53.1598 25.9328 54.5246 31.9897 54.5246 31.9897Z" fill="#263238"/>
<path d="M54.5246 32.1257C54.5029 32.1309 54.4803 32.1309 54.4586 32.1257C54.4255 32.1041 54.4009 32.0717 54.3889 32.034C54.3339 31.7846 53.0352 25.9147 53.4607 24.1244C53.8863 22.3341 54.9612 21.1895 56.9203 20.5402C58.9894 19.8505 62.2214 19.6524 64.3933 20.5989C66.3927 21.4757 66.5578 23.8346 66.6385 24.9719C66.6385 25.137 66.6568 25.2727 66.6715 25.3681C66.7265 25.735 66.7926 27.1107 66.8072 28.3727C66.8293 30.9408 66.6238 30.9738 66.4734 30.9958C66.4401 31.0011 66.406 30.9989 66.3737 30.9894C66.3413 30.9798 66.3115 30.9632 66.2863 30.9408C65.9598 30.6803 65.8204 29.2825 65.7874 28.8606C65.738 28.5039 65.5893 28.1683 65.3581 27.8921C65.2449 27.7538 65.1661 27.5905 65.1285 27.4157C65.0909 27.2409 65.0954 27.0596 65.1417 26.8869C63.7231 27.0498 62.2869 26.8215 60.9888 26.2266C60.1437 25.7604 59.4179 25.1049 58.8683 24.3115C58.4024 23.7172 58.0319 23.244 57.4742 23.1889C56.9117 23.134 56.3472 23.2722 55.8737 23.581C55.4002 23.8898 55.0461 24.3506 54.8695 24.8875C54.7338 25.4158 55.0346 25.834 55.3501 26.2743C55.6745 26.6316 55.8819 27.0797 55.9444 27.5583C55.9701 28.5562 55.5078 28.8496 55.1703 29.0661L55.0493 29.1431C54.8695 29.2679 54.9172 29.5944 55.0236 30.2107C55.0529 30.3868 55.0859 30.5776 55.1153 30.7904C55.2657 31.8506 54.6054 32.0964 54.5797 32.1074C54.5632 32.118 54.5442 32.1243 54.5246 32.1257ZM60.7907 20.221C59.5079 20.2152 58.232 20.4083 57.0083 20.7933C55.1226 21.4206 54.1431 22.4332 53.7286 24.1795C53.3617 25.7313 54.3926 30.7243 54.6164 31.7735C54.7268 31.6519 54.8054 31.5048 54.8451 31.3454C54.8848 31.186 54.8843 31.0193 54.8438 30.8601C54.8145 30.6509 54.7814 30.4602 54.7521 30.2841C54.6347 29.6201 54.5613 29.1835 54.8952 28.945L55.0199 28.8643C55.3354 28.6625 55.6913 28.4388 55.6693 27.595C55.6127 27.1642 55.4258 26.761 55.1336 26.4393C54.7961 25.9661 54.4439 25.4782 54.609 24.8215C54.9062 23.6585 56.2342 22.7854 57.5072 22.9175C58.1823 22.9872 58.6078 23.5264 59.0921 24.1464C59.6168 24.9071 60.3113 25.5351 61.1209 25.9808C63.0432 26.9566 65.3361 26.5861 65.3581 26.5824C65.385 26.5765 65.413 26.5794 65.4381 26.5906C65.4632 26.6019 65.484 26.6208 65.4975 26.6448C65.5137 26.6672 65.5223 26.6942 65.5223 26.7218C65.5223 26.7495 65.5137 26.7764 65.4975 26.7989C65.4109 26.9431 65.3734 27.1115 65.3906 27.2788C65.4078 27.4462 65.4788 27.6035 65.5929 27.727C65.8634 28.0438 66.031 28.4353 66.0735 28.8496C66.0994 29.4765 66.2231 30.0954 66.4404 30.684C66.6458 30.0566 66.5284 26.1715 66.422 25.4048C66.422 25.3057 66.3964 25.1627 66.3854 24.9902C66.3083 23.8896 66.1542 21.6591 64.3052 20.852C63.1883 20.4066 61.9928 20.192 60.7907 20.221Z" fill="#263238"/>
<path d="M57.6579 34.191C56.9596 34.1921 56.2883 33.9219 55.7854 33.4374C55.2826 32.953 54.9876 32.2922 54.9627 31.5944C54.9377 30.8966 55.1848 30.2164 55.6518 29.6973C56.1188 29.1782 56.7691 28.8608 57.4657 28.812C58.1622 28.7632 58.8505 28.9869 59.3852 29.4359C59.92 29.8849 60.2594 30.5241 60.3319 31.2185C60.4045 31.913 60.2044 32.6085 59.7739 33.1582C59.3435 33.708 58.7163 34.0691 58.0247 34.1653C57.9032 34.1822 57.7806 34.1907 57.6579 34.191ZM57.6579 29.0549C57.5414 29.0549 57.425 29.0623 57.3094 29.0769C56.7529 29.1556 56.2409 29.4248 55.8607 29.8386C55.4805 30.2525 55.2556 30.7854 55.2244 31.3466C55.1931 31.9077 55.3574 32.4623 55.6893 32.9159C56.0212 33.3694 56.5001 33.6938 57.0444 33.8338C57.5887 33.9737 58.1647 33.9206 58.6742 33.6834C59.1837 33.4462 59.5952 33.0397 59.8385 32.5331C60.0818 32.0265 60.1419 31.4512 60.0085 30.9052C59.8751 30.3593 59.5565 29.8765 59.107 29.5391C58.6905 29.2291 58.1844 29.063 57.6652 29.0659L57.6579 29.0549Z" fill="#263238"/>
<path d="M63.4951 33.3623C62.8116 33.3611 62.154 33.1008 61.6549 32.6338C61.1558 32.1668 60.8524 31.5279 60.8058 30.846C60.7593 30.1641 60.9731 29.49 61.4041 28.9595C61.8351 28.429 62.4512 28.0817 63.1282 27.9877C63.4794 27.9374 63.8371 27.9568 64.1809 28.0449C64.5246 28.1329 64.8476 28.2878 65.1314 28.5008C65.4152 28.7137 65.6543 28.9805 65.8349 29.2859C66.0156 29.5913 66.1343 29.9293 66.1842 30.2806C66.2401 30.6639 66.2127 31.0547 66.1039 31.4264C65.995 31.7981 65.8072 32.142 65.5533 32.4345C65.2995 32.727 64.9855 32.9613 64.6328 33.1214C64.2801 33.2815 63.8971 33.3637 63.5097 33.3623H63.4951ZM63.4951 28.2262C63.381 28.2263 63.267 28.2337 63.1539 28.2482C62.5264 28.3331 61.9564 28.6582 61.5639 29.1551C61.1715 29.6521 60.9873 30.2819 61.0502 30.912C61.113 31.5421 61.418 32.1231 61.9009 32.5327C62.3838 32.9423 63.0068 33.1485 63.6387 33.1077C64.2706 33.0669 64.862 32.7824 65.2882 32.3142C65.7145 31.846 65.9423 31.2305 65.9237 30.5976C65.905 29.9647 65.6414 29.3637 65.1884 28.9213C64.7353 28.4789 64.1283 28.2297 63.4951 28.2262Z" fill="#263238"/>
<path d="M58.2671 31.549C58.3258 31.9636 58.201 32.3268 57.9846 32.3561C57.7681 32.3855 57.5444 32.0737 57.4857 31.6591C57.427 31.2445 57.5554 30.8814 57.7718 30.852C57.9883 30.8227 58.2084 31.1345 58.2671 31.549Z" fill="#263238"/>
<path d="M63.2017 30.8594C63.2604 31.274 63.1356 31.6335 62.9192 31.6665C62.7027 31.6996 62.4789 31.384 62.4202 30.9695C62.3616 30.5549 62.4863 30.1917 62.7027 30.1624C62.9192 30.133 63.143 30.4302 63.2017 30.8594Z" fill="#263238"/>
<path d="M60.7325 29.4476C60.7316 30.7293 60.8113 32.0097 60.971 33.2814C61.1911 34.4186 61.4149 35.1157 60.6922 35.2257C59.9695 35.3358 59.9805 34.0995 59.9805 34.0995" fill="white"/>
<path d="M60.6112 35.3681C60.4649 35.3698 60.3234 35.3161 60.215 35.2177C59.8482 34.8949 59.8481 34.1171 59.8481 34.0951C59.8491 34.0594 59.8637 34.0254 59.8889 34.0002C59.9142 33.9749 59.9482 33.9603 59.9839 33.9594C60.0209 33.9594 60.0563 33.9741 60.0825 34.0002C60.1086 34.0264 60.1233 34.0618 60.1233 34.0988C60.1063 34.426 60.2036 34.7489 60.3984 35.0123C60.4363 35.045 60.481 35.0689 60.5292 35.0822C60.5774 35.0955 60.628 35.0979 60.6773 35.0893C60.735 35.0862 60.7916 35.0713 60.8433 35.0454C60.8951 35.0195 60.9409 34.9833 60.9781 34.9389C61.1285 34.7261 61.0258 34.2419 60.901 33.6255L60.8387 33.3064C60.6772 32.0275 60.5963 30.7397 60.5965 29.4506C60.5965 29.4136 60.6112 29.3782 60.6374 29.352C60.6635 29.3259 60.699 29.3112 60.736 29.3112C60.7539 29.3107 60.7718 29.3139 60.7885 29.3205C60.8052 29.3272 60.8204 29.3371 60.8331 29.3498C60.8458 29.3625 60.8557 29.3777 60.8624 29.3944C60.869 29.4111 60.8722 29.429 60.8717 29.4469C60.8715 30.72 60.9511 31.9919 61.1102 33.255L61.1725 33.5705C61.3156 34.2786 61.422 34.7885 61.2019 35.1003C61.1438 35.1751 61.0707 35.2369 60.9873 35.2818C60.9039 35.3267 60.812 35.3536 60.7176 35.3608L60.6112 35.3681Z" fill="#263238"/>
<path d="M58.605 36.0727C58.605 36.0727 60.6998 37.4338 63.2972 35.405L58.605 36.0727Z" fill="white"/>
<path d="M60.3729 36.6528C59.7316 36.6617 59.0991 36.5023 58.5386 36.1905C58.5232 36.1808 58.5099 36.1682 58.4995 36.1532C58.4891 36.1383 58.4818 36.1215 58.478 36.1037C58.4743 36.0859 58.4741 36.0675 58.4776 36.0497C58.4811 36.0318 58.4881 36.0148 58.4983 35.9997C58.5076 35.9845 58.5199 35.9712 58.5345 35.9609C58.5491 35.9505 58.5657 35.9432 58.5832 35.9394C58.6007 35.9357 58.6187 35.9355 58.6363 35.9389C58.6539 35.9423 58.6706 35.9493 58.6854 35.9594C58.7697 36.0107 60.7361 37.2361 63.2198 35.299C63.234 35.2879 63.2503 35.2798 63.2676 35.275C63.285 35.2702 63.3032 35.2688 63.321 35.2711C63.3389 35.2733 63.3562 35.279 63.3719 35.2879C63.3876 35.2968 63.4013 35.3087 63.4124 35.3229C63.4235 35.3371 63.4317 35.3533 63.4365 35.3707C63.4413 35.3881 63.4426 35.4062 63.4404 35.4241C63.4382 35.442 63.4324 35.4593 63.4235 35.4749C63.4147 35.4906 63.4028 35.5044 63.3886 35.5155C62.5425 36.2275 61.4785 36.6288 60.3729 36.6528Z" fill="#263238"/>
<path d="M60.2592 31.0026C60.226 31.0037 60.1935 30.9922 60.1683 30.9705C60.1432 30.9487 60.1271 30.9182 60.1235 30.8852C60.1209 30.8673 60.1219 30.8491 60.1264 30.8317C60.1309 30.8142 60.1389 30.7978 60.1498 30.7835C60.1608 30.7692 60.1744 30.7571 60.1901 30.7481C60.2057 30.7391 60.223 30.7333 60.2409 30.7311L60.9746 30.6284C60.9928 30.6247 61.0115 30.6249 61.0296 30.6289C61.0477 30.633 61.0648 30.6408 61.0797 30.6519C61.0945 30.6629 61.1069 30.677 61.116 30.6932C61.1251 30.7094 61.1307 30.7273 61.1323 30.7458C61.1366 30.7817 61.1267 30.8178 61.1048 30.8465C61.0829 30.8753 61.0507 30.8944 61.0149 30.8998L60.2812 31.0026H60.2592Z" fill="#263238"/>
<path d="M54.4298 31.8945C54.3965 31.8918 54.3653 31.8772 54.3419 31.8534C54.3184 31.8296 54.3043 31.7982 54.3021 31.7649C54.2998 31.7315 54.3097 31.6985 54.3297 31.6718C54.3498 31.6451 54.3788 31.6265 54.4115 31.6194L54.9544 31.5423C54.9891 31.541 55.023 31.5527 55.0496 31.575C55.0761 31.5974 55.0934 31.6288 55.098 31.6632C55.1025 31.6976 55.0941 31.7325 55.0744 31.761C55.0546 31.7896 55.0249 31.8097 54.9911 31.8175L54.4518 31.8945H54.4298Z" fill="#263238"/>
<path d="M66.041 30.2435C66.0081 30.2431 65.9765 30.231 65.9517 30.2096C65.9269 30.1881 65.9104 30.1585 65.9052 30.1261C65.9 30.0897 65.9094 30.0526 65.9314 30.023C65.9534 29.9935 65.9862 29.9738 66.0226 29.9684L66.5656 29.8913C66.6003 29.89 66.6342 29.9017 66.6607 29.924C66.6873 29.9464 66.7045 29.9778 66.7091 30.0122C66.7137 30.0466 66.7053 30.0815 66.6855 30.11C66.6658 30.1386 66.6361 30.1587 66.6023 30.1665L66.063 30.2435H66.041Z" fill="#263238"/>
<path d="M55.9004 29.5206C55.8391 29.5199 55.7788 29.5048 55.7243 29.4766C55.6821 29.4532 55.645 29.4218 55.615 29.3841C55.5849 29.3464 55.5627 29.3031 55.5494 29.2568C55.5361 29.2104 55.5321 29.1619 55.5375 29.114C55.543 29.0662 55.5578 29.0198 55.5812 28.9777C55.9481 28.3173 57.078 27.2937 58.7876 28.1302C58.8752 28.173 58.9422 28.2489 58.9738 28.341C59.0055 28.4332 58.9992 28.5342 58.9564 28.6218C58.9136 28.7094 58.8377 28.7763 58.7455 28.808C58.6533 28.8396 58.5523 28.8334 58.4648 28.7906C56.9496 28.0568 56.2636 29.2785 56.2232 29.3298C56.1916 29.3877 56.1449 29.436 56.088 29.4696C56.0312 29.5032 55.9664 29.5208 55.9004 29.5206Z" fill="#263238"/>
<path d="M61.6791 28.6991C61.6154 28.6992 61.5527 28.6828 61.4972 28.6513C61.4417 28.6199 61.3954 28.5745 61.3628 28.5197C61.3302 28.4649 61.3125 28.4025 61.3113 28.3388C61.3102 28.275 61.3257 28.2121 61.3563 28.1561C61.7232 27.4958 62.8568 26.4722 64.5627 27.3087C64.6475 27.3526 64.7118 27.4279 64.742 27.5186C64.7722 27.6092 64.7658 27.708 64.7242 27.794C64.6826 27.8801 64.6092 27.9465 64.5194 27.9791C64.4296 28.0118 64.3307 28.0082 64.2435 27.969C62.7284 27.2353 62.0423 28.4569 61.9983 28.5083C61.9669 28.5657 61.9208 28.6136 61.8647 28.6471C61.8086 28.6807 61.7445 28.6986 61.6791 28.6991Z" fill="#263238"/>
<path d="M57.4633 32.9362C57.4307 32.9309 57.401 32.9141 57.3796 32.8889C57.3582 32.8637 57.3464 32.8317 57.3464 32.7986C57.3464 32.7656 57.3582 32.7336 57.3796 32.7084C57.401 32.6832 57.4307 32.6664 57.4633 32.6611L58.6666 32.4923C58.6845 32.4892 58.7029 32.4898 58.7206 32.4941C58.7382 32.4984 58.7548 32.5063 58.7693 32.5174C58.7837 32.5284 58.7958 32.5423 58.8046 32.5582C58.8135 32.5741 58.8189 32.5916 58.8207 32.6097C58.8233 32.6275 58.8223 32.6457 58.8177 32.6632C58.8132 32.6806 58.8053 32.697 58.7943 32.7114C58.7834 32.7257 58.7697 32.7377 58.7541 32.7467C58.7385 32.7557 58.7212 32.7615 58.7033 32.7638L57.5 32.9362H57.4633Z" fill="#263238"/>
<path d="M62.3979 32.2358C62.3649 32.2361 62.3329 32.2243 62.3079 32.2027C62.2829 32.1811 62.2666 32.1511 62.2622 32.1184C62.2569 32.0819 62.2663 32.0448 62.2883 32.0153C62.3103 31.9857 62.3431 31.9661 62.3796 31.9606L63.5829 31.7919C63.6184 31.7866 63.6545 31.7956 63.6834 31.8169C63.7123 31.8382 63.7315 31.8701 63.737 31.9056C63.7422 31.9421 63.7328 31.9791 63.7108 32.0087C63.6888 32.0383 63.656 32.0579 63.6196 32.0633L62.4163 32.2321L62.3979 32.2358Z" fill="#263238"/>
<path d="M86.3344 62.6123L44.3289 68.5831L46.3754 82.9809L88.381 77.0101L86.3344 62.6123Z" fill="#263238"/>
<path d="M71.8115 66.8874L59.1687 68.6753L59.2714 69.4017L71.9142 67.6138L71.8115 66.8874Z" fill="white"/>
<path d="M73.896 68.5647L57.6394 70.8636L57.7421 71.59L73.9987 69.2911L73.896 68.5647Z" fill="white"/>
</svg>
