<svg width="122" height="69" viewBox="0 0 122 69" fill="none" xmlns="http://www.w3.org/2000/svg">
<path d="M107.321 19.252C106.665 17.1189 105.808 15.0529 104.762 13.0818C99.3652 3.05268 89.9015 -4.5138 79.55 -8.9902C71.3313 -12.5391 61.1682 -14.3941 52.4486 -11.1974C48.0391 -9.58044 43.8876 -6.4854 41.5242 -2.3562C38.444 3.03532 38.7342 9.70404 36.2889 15.3708C34.3049 19.9564 29.3746 22.7116 25.5108 25.5388C19.4819 29.9334 13.5423 35.129 11.4517 42.5616C8.66415 52.4692 9.48999 64.264 15.132 73.0755C19.348 79.65 26.5648 81.624 34.0122 81.7555C41.0406 81.882 49.6362 80.1063 56.1958 83.3129C67.3707 88.7689 82.1168 94.8945 94.621 90.5768C107.517 86.1252 113.834 77.4552 115.701 66.2084C117.568 54.9616 112.422 45.5921 110.781 36.6964C109.759 31.0692 109.082 24.8568 107.321 19.252Z" fill="#037BE2"/>
<path opacity="0.8" d="M107.321 19.252C106.665 17.1189 105.808 15.0529 104.762 13.0818C99.3652 3.05268 89.9015 -4.5138 79.55 -8.9902C71.3313 -12.5391 61.1682 -14.3941 52.4486 -11.1974C48.0391 -9.58044 43.8876 -6.4854 41.5242 -2.3562C38.444 3.03532 38.7342 9.70404 36.2889 15.3708C34.3049 19.9564 29.3746 22.7116 25.5108 25.5388C19.4819 29.9334 13.5423 35.129 11.4517 42.5616C8.66415 52.4692 9.48999 64.264 15.132 73.0755C19.348 79.65 26.5648 81.624 34.0122 81.7555C41.0406 81.882 49.6362 80.1063 56.1958 83.3129C67.3707 88.7689 82.1168 94.8945 94.621 90.5768C107.517 86.1252 113.834 77.4552 115.701 66.2084C117.568 54.9616 112.422 45.5921 110.781 36.6964C109.759 31.0692 109.082 24.8568 107.321 19.252Z" fill="white"/>
<path d="M13.2992 53.0194C13.2347 52.3027 13.2198 51.643 13.2124 51.0577C13.2124 50.7254 13.2124 50.4253 13.2124 50.1451C13.4604 49.9343 14.4945 49.0787 14.7797 48.5009C15.0649 47.923 15.2584 47.1369 14.9558 46.5317C14.8907 46.3874 14.7961 46.2583 14.6781 46.1527C14.5601 46.0472 14.4213 45.9674 14.2707 45.9186C14.1201 45.8698 13.9609 45.853 13.8035 45.8693C13.646 45.8857 13.4936 45.9347 13.3562 46.0134C12.5552 46.5094 12.4882 48.2231 12.704 49.0489C12.7213 49.1209 13.1405 50.2021 13.1529 50.1922L13.1702 50.1798C13.1578 50.4501 13.1454 50.7403 13.1405 51.0553C13.1405 51.6405 13.1405 52.2953 13.1851 53.0244C13.1851 53.1434 13.2025 53.2724 13.2124 53.3939C13.3017 53.5278 13.3513 53.6146 13.3513 53.6146C13.3413 53.4137 13.3165 53.2104 13.2992 53.0194Z" fill="#BABABA"/>
<path d="M10.7225 51.2016C9.64614 51.3776 9.50726 52.387 10.5117 53.0318C11.3623 53.5774 12.8156 53.6146 13.2397 53.6146C13.2397 53.5402 13.2397 53.4658 13.2223 53.3939C12.8156 52.7714 11.6053 51.0552 10.7225 51.2016Z" fill="#BABABA"/>
<path d="M32.1372 46.4648C31.1873 46.4351 30.1854 47.809 29.9052 48.6075C29.8804 48.677 29.6373 49.8029 29.6572 49.8004H29.677C29.5158 50.0162 29.3472 50.2493 29.181 50.5097C28.8537 50.9908 28.4891 51.5364 28.1345 52.1564L28.0105 52.3722C27.9931 52.5458 27.9782 52.65 27.9782 52.65L27.8939 52.5805C27.5943 53.1128 27.322 53.6599 27.078 54.2198C26.7257 55.0115 26.4452 55.8332 26.2397 56.675C26.2397 56.675 26.2397 56.6948 26.2397 56.7047C26.2199 56.427 26.1356 55.6508 26.1232 55.5937C25.9372 54.7604 25.094 53.2551 24.1392 53.1534C23.9826 53.1402 23.8249 53.1605 23.6768 53.213C23.5287 53.2656 23.3934 53.349 23.2801 53.4579C23.1667 53.5668 23.0779 53.6986 23.0195 53.8445C22.9611 53.9904 22.9344 54.1471 22.9413 54.3041C22.9413 54.9762 23.4919 55.6086 24.0003 55.993C24.5757 56.4295 26.0909 56.7791 26.21 56.8064C26.0235 57.6707 25.8942 58.5464 25.8231 59.4278C25.7785 59.9411 25.7512 60.4595 25.7289 60.9827C25.7016 60.7347 25.6793 60.5264 25.6718 60.4867C25.4858 59.6559 24.6426 58.1506 23.6878 58.0489C23.5313 58.0357 23.3738 58.056 23.2258 58.1085C23.0778 58.1611 22.9427 58.2446 22.8295 58.3535C22.7163 58.4624 22.6277 58.5943 22.5696 58.7402C22.5115 58.8861 22.4852 59.0427 22.4925 59.1996C22.4925 59.8717 23.043 60.5016 23.5514 60.8885C24.0598 61.2754 25.3544 61.6052 25.6966 61.6846C25.6966 61.8855 25.6817 62.0839 25.6768 62.2847C25.6495 63.2445 25.6247 64.2018 25.5751 65.1417C25.5577 65.4715 25.528 65.7964 25.4982 66.1213C25.4759 65.908 25.4561 65.7295 25.4486 65.7022C25.2651 64.8714 24.4194 63.366 23.4646 63.2643C23.308 63.2507 23.1503 63.2707 23.0021 63.3231C22.8539 63.3755 22.7187 63.459 22.6054 63.568C22.4922 63.677 22.4036 63.809 22.3456 63.9551C22.2876 64.1012 22.2616 64.2581 22.2693 64.4151C22.2693 65.0871 22.8173 65.7171 23.3257 66.104C23.8341 66.4908 25.0047 66.7859 25.4089 66.8851C25.3817 67.1133 25.3544 67.3415 25.3221 67.5647C25.466 67.6068 25.6123 67.6415 25.7636 67.6713C25.8181 67.2398 25.8603 66.8008 25.895 66.3569C26.2472 66.4561 27.507 66.7909 28.127 66.6991C28.747 66.6074 29.5208 66.3172 29.8357 65.727C29.9135 65.5893 29.9616 65.4369 29.9772 65.2796C29.9928 65.1222 29.9754 64.9633 29.9261 64.8131C29.8769 64.6628 29.7969 64.5245 29.6913 64.4068C29.5856 64.2892 29.4566 64.1949 29.3125 64.1299C28.4296 63.7579 26.9961 64.673 26.4505 65.3153C26.4183 65.355 26.0785 65.8609 25.8975 66.1411C25.9198 65.8163 25.9421 65.4939 25.9521 65.1665C25.9843 64.2167 25.9868 63.2544 25.9917 62.2972C25.9917 62.002 25.9917 61.7094 25.9917 61.4167C26.1182 61.4539 27.6062 61.883 28.3105 61.7788C28.938 61.6871 29.7043 61.3969 30.0193 60.8092C30.0973 60.6714 30.1456 60.5188 30.1612 60.3613C30.1768 60.2037 30.1593 60.0446 30.1098 59.8942C30.0603 59.7439 29.9799 59.6055 29.8738 59.488C29.7676 59.3705 29.6381 59.2765 29.4935 59.212C28.6131 58.84 27.1797 59.7527 26.6341 60.395C26.5944 60.4446 26.1083 61.1712 25.9942 61.3622C25.9942 60.7174 26.019 60.0751 26.0587 59.4427C26.1098 58.5886 26.2158 57.7386 26.3761 56.8982C26.4357 56.9155 27.9881 57.3694 28.7073 57.2652C29.3348 57.1735 30.1036 56.8808 30.4161 56.2931C30.4938 56.1554 30.5419 56.003 30.5575 55.8456C30.5731 55.6883 30.5557 55.5294 30.5065 55.3792C30.4572 55.2289 30.3772 55.0906 30.2716 54.9729C30.1659 54.8553 30.0369 54.761 29.8928 54.696C29.0124 54.324 27.5765 55.2391 27.0309 55.8814C26.9887 55.931 26.4679 56.7147 26.3811 56.8734C26.3811 56.8238 26.396 56.7717 26.4059 56.7246C26.591 55.8887 26.8508 55.0712 27.1821 54.2818C27.3582 53.8428 27.5517 53.4361 27.7501 53.0418C28.0303 53.1559 29.3199 53.6643 29.9821 53.642C30.6442 53.6196 31.413 53.4163 31.79 52.8657C31.8828 52.7377 31.9478 52.5916 31.9807 52.437C32.0136 52.2823 32.0137 52.1224 31.981 51.9677C31.9482 51.813 31.8834 51.6669 31.7907 51.5388C31.698 51.4107 31.5795 51.3034 31.4428 51.224C30.607 50.7577 29.0769 51.5067 28.4668 52.0845C28.4345 52.1143 28.132 52.4739 27.9137 52.7367C28.0055 52.5607 28.0973 52.3771 28.189 52.211C28.5313 51.5835 28.8834 51.0305 29.1984 50.5444C29.3794 50.2691 29.5505 50.0236 29.7117 49.8004C30.0416 49.7707 31.3783 49.6293 31.9437 49.3044C32.5092 48.9795 33.0969 48.4439 33.1837 47.7792C33.2074 47.6233 33.1986 47.4642 33.1579 47.3118C33.1172 47.1594 33.0455 47.017 32.9473 46.8937C32.849 46.7703 32.7264 46.6685 32.587 46.5947C32.4476 46.5209 32.2945 46.4767 32.1372 46.4648Z" fill="#BABABA"/>
<path d="M19.0999 66.9397C19.1644 67.0662 19.2264 67.1877 19.2884 67.3216L19.7124 67.1828C19.5512 66.8628 19.3851 66.5429 19.2164 66.228C19.5612 66.1164 20.7863 65.7022 21.2525 65.2781C21.7188 64.854 22.1924 64.1844 22.128 63.5173C22.1174 63.3591 22.0741 63.2048 22.0009 63.0641C21.9277 62.9235 21.8262 62.7995 21.7027 62.7C21.5792 62.6005 21.4364 62.5277 21.2834 62.4861C21.1304 62.4445 20.9704 62.4351 20.8136 62.4584C19.8811 62.632 19.2016 64.1944 19.1073 65.0351C19.1073 65.0896 19.1073 65.7022 19.1073 66.0271C18.9436 65.7444 18.7849 65.4592 18.6113 65.1764C18.1153 64.358 17.5846 63.5471 17.0588 62.7361L16.5827 61.9921C16.7067 61.9549 18.1724 61.4961 18.6956 61.0175C19.1619 60.5959 19.6356 59.9263 19.5711 59.2592C19.5608 59.1008 19.5178 58.9463 19.4447 58.8055C19.3716 58.6646 19.2701 58.5405 19.1465 58.4409C19.023 58.3413 18.8801 58.2685 18.7269 58.2271C18.5737 58.1857 18.4136 58.1765 18.2567 58.2002C17.3242 58.3738 16.6447 59.9362 16.5504 60.7769C16.5504 60.8414 16.5504 61.7218 16.5504 61.9475C16.2008 61.3969 15.8585 60.8464 15.5436 60.2908C15.1148 59.5427 14.7337 58.7683 14.4028 57.972C14.4598 57.9547 15.9924 57.476 16.5281 56.9924C16.9944 56.5708 17.468 55.9012 17.4036 55.2316C17.393 55.0735 17.3497 54.9193 17.2765 54.7787C17.2033 54.6382 17.1017 54.5143 16.9782 54.415C16.8546 54.3157 16.7118 54.2431 16.5588 54.2019C16.4058 54.1606 16.2459 54.1515 16.0892 54.1752C15.1567 54.3488 14.4772 55.9112 14.3829 56.7519C14.3829 56.8188 14.3829 57.7662 14.3829 57.9398C14.3656 57.8927 14.3408 57.8456 14.3234 57.8009C14.0152 56.9965 13.7779 56.1667 13.6141 55.3209C13.5174 54.8547 13.4529 54.4033 13.3984 53.9619C13.6935 53.9048 15.0376 53.6196 15.5708 53.2377C16.104 52.8558 16.6248 52.2457 16.6348 51.586C16.6414 51.4275 16.6151 51.2693 16.5575 51.1214C16.5 50.9736 16.4124 50.8392 16.3003 50.7269C16.1882 50.6146 16.0541 50.5267 15.9063 50.4689C15.7586 50.411 15.6004 50.3844 15.4419 50.3907C14.4945 50.4601 13.6464 51.9357 13.4579 52.7616C13.4579 52.8062 13.3934 53.2749 13.3587 53.6172H13.2372C13.2843 54.1677 13.3512 54.748 13.4604 55.3532C13.605 56.2161 13.8267 57.0643 14.1225 57.8877C14.1251 57.8974 14.1293 57.9066 14.1349 57.915C13.9638 57.6918 13.4678 57.0842 13.4256 57.042C12.8131 56.4444 11.2879 55.6408 10.4496 56.0773C10.3126 56.1548 10.1935 56.2604 10.1002 56.3872C10.0068 56.514 9.94138 56.6591 9.90812 56.813C9.87486 56.9669 9.87454 57.1261 9.90717 57.2801C9.93981 57.4341 10.0047 57.5795 10.0975 57.7067C10.4744 58.2696 11.2705 58.5028 11.9029 58.5449C12.6172 58.597 14.0605 58.0489 14.1746 58.0117C14.4957 58.8435 14.8718 59.6529 15.3005 60.4347C15.5485 60.8935 15.8089 61.3473 16.0792 61.7987C15.9255 61.6102 15.7866 61.4416 15.7643 61.4217C15.1542 60.8216 13.6265 60.018 12.7883 60.4545C12.6509 60.532 12.5314 60.6377 12.4378 60.7647C12.3443 60.8917 12.2787 61.0371 12.2454 61.1913C12.2121 61.3455 12.2119 61.505 12.2448 61.6593C12.2777 61.8136 12.3429 61.9591 12.4361 62.0864C12.8106 62.6493 13.6092 62.88 14.2416 62.9246C14.874 62.9692 16.1239 62.5278 16.4537 62.4038C16.5604 62.5749 16.662 62.7485 16.7687 62.9196C17.2647 63.743 17.7855 64.5639 18.2567 65.3823C18.4228 65.6724 18.5791 65.9626 18.7328 66.2528C18.5964 66.0841 18.4848 65.9452 18.4625 65.9254C17.85 65.3277 16.3223 64.5242 15.4865 64.9607C15.3493 65.038 15.2299 65.1434 15.1364 65.2701C15.0428 65.3968 14.9771 65.5419 14.9436 65.6958C14.9101 65.8497 14.9095 66.0089 14.942 66.1631C14.9745 66.3172 15.0392 66.4627 15.1319 66.59C15.5064 67.153 16.3049 67.3861 16.9373 67.4308C17.5697 67.4754 18.7056 67.0786 19.0999 66.9397Z" fill="#BABABA"/>
<path d="M27.4475 49.1084C26.5027 48.5653 25.7562 49.2622 26.1282 50.3956C26.4456 51.3652 27.5691 52.325 27.8865 52.578L28.0031 52.3696C28.0824 51.6157 28.2188 49.5499 27.4475 49.1084Z" fill="#BABABA"/>
<path d="M81.1346 13.0817L81.2983 14.0613L82.3895 14.1581L82.7168 13.2305C83.0746 13.1984 83.427 13.1217 83.7659 13.0024L84.4553 13.7017L85.4027 13.1536L85.1423 12.2112C85.4165 11.9779 85.6606 11.7113 85.8689 11.4176L86.8311 11.5962L87.2949 10.6042L86.5385 9.98173C86.6282 9.63333 86.6741 9.27509 86.6749 8.91533L87.5727 8.50861L87.3817 7.42981L86.3897 7.35293C86.2638 7.02113 86.0972 6.70624 85.8937 6.41549L86.4046 5.55245L85.6308 4.77869L84.7628 5.29453C84.2625 4.95672 83.6976 4.7262 83.1037 4.61749L82.8557 3.62549H81.7596L81.5116 4.61749C81.1694 4.68075 80.8362 4.78569 80.5196 4.92997L79.7384 4.25293L78.8406 4.88037L79.2101 5.84757C78.9689 6.0933 78.7582 6.36726 78.5827 6.66349L77.551 6.55685L77.1765 7.58605L78.0296 8.16389C77.9896 8.40402 77.9697 8.64708 77.9701 8.89053C77.9701 8.99469 77.9701 9.09637 77.9701 9.19805L77.0748 9.69405L77.3576 10.7505L78.3719 10.7381C78.5226 11.054 78.7099 11.3512 78.9299 11.6235L78.4909 12.5361L79.3291 13.238L80.1575 12.68M84.7058 7.56621C84.9993 8.08843 85.1128 8.69275 85.0287 9.28588C84.9446 9.87902 84.6676 10.428 84.2405 10.848C83.8133 11.2681 83.2598 11.5358 82.6654 11.61C82.0709 11.6841 81.4686 11.5605 80.9513 11.2582C80.4341 10.956 80.0308 10.4919 79.8036 9.93759C79.5763 9.38328 79.5379 8.76959 79.6942 8.19127C79.8505 7.61295 80.1928 7.10215 80.6682 6.73773C81.1437 6.37331 81.7259 6.17553 82.325 6.17493C82.4562 6.17469 82.5872 6.18464 82.7168 6.20469M83.6419 6.51221C83.8517 6.62827 84.0452 6.77172 84.2172 6.93877" stroke="black" stroke-width="0.248" stroke-miterlimit="10"/>
<path d="M83.7187 68.9412L83.8823 69.9208L84.9735 70.0175L85.3009 69.09C85.6587 69.0579 86.0111 68.9812 86.35 68.8619L87.0394 69.5612L87.9867 69.0131L87.7387 68.0707C88.013 67.8374 88.2571 67.5708 88.4654 67.2771L89.4276 67.4557L89.8914 66.4637L89.1474 65.8412C89.2371 65.4928 89.2829 65.1346 89.2838 64.7748L90.1815 64.3681L89.9906 63.2893L88.9986 63.2124C88.8737 62.8802 88.707 62.5652 88.5026 62.275L89.0135 61.4119L88.2397 60.6382L87.3717 61.154C86.8713 60.8162 86.3064 60.5857 85.7126 60.477L85.4646 59.485H84.3684L84.1204 60.477C83.7782 60.5402 83.4451 60.6452 83.1284 60.7895L82.3398 60.1199L81.442 60.7473L81.8115 61.7145C81.5703 61.9602 81.3597 62.2342 81.1841 62.5304L80.1524 62.4238L79.778 63.453L80.6311 64.0308C80.591 64.271 80.5711 64.514 80.5715 64.7575C80.5715 64.8616 80.5715 64.9633 80.5715 65.065L79.6763 65.561L79.959 66.6175L80.9733 66.6051C81.1241 66.921 81.3113 67.2181 81.5313 67.4904L81.0998 68.408L81.938 69.1099L82.7515 68.5295M87.2998 63.4158C87.5933 63.938 87.7068 64.5423 87.6227 65.1355C87.5386 65.7286 87.2616 66.2775 86.8345 66.6976C86.4073 67.1176 85.8538 67.3854 85.2594 67.4595C84.6649 67.5337 84.0626 67.4101 83.5453 67.1078C83.0281 66.8056 82.6248 66.3415 82.3975 65.7872C82.1703 65.2329 82.1319 64.6192 82.2882 64.0409C82.4445 63.4625 82.7868 62.9517 83.2622 62.5873C83.7377 62.2229 84.3199 62.0251 84.919 62.0245C85.0502 62.0243 85.1812 62.0342 85.3108 62.0543M86.2359 62.3618C86.4457 62.4778 86.6392 62.6213 86.8112 62.7883" stroke="black" stroke-width="0.248" stroke-miterlimit="10"/>
<path d="M89.0359 1.33153L89.1798 1.70849C89.1079 1.78041 89.0384 1.85729 88.9715 1.93417M88.6069 2.43017C88.5871 2.45993 88.5697 2.48969 88.5523 2.51945L87.5207 2.41529L87.1462 3.44201L87.9993 4.01985C87.9586 4.25992 87.9378 4.50297 87.9373 4.74648C87.9373 4.85064 87.9373 4.95233 87.9373 5.05401L87.0396 5.55001L87.3247 6.60648H88.3391C88.4883 6.924 88.6757 7.22215 88.8971 7.49432L88.4581 8.40448L89.2963 9.10881L90.1098 8.52601C90.4174 8.70327 90.7456 8.84235 91.0869 8.94017L91.2506 9.91976L92.3393 10.014L92.6691 9.08648C93.0269 9.05517 93.3793 8.97936 93.7182 8.86081L94.4051 9.55769L95.3525 9.01209L95.1045 8.06969C95.3782 7.83577 95.6222 7.56926 95.8311 7.27609L96.7934 7.45217L97.2571 6.46017L96.5007 5.8352C96.5892 5.48742 96.635 5.13015 96.6371 4.77129L97.5349 4.36209L97.3439 3.28577L96.3519 3.20888C96.2255 2.87653 96.059 2.56089 95.8559 2.26896L96.3668 1.40841L95.5931 0.634646L94.7251 1.15049C94.2258 0.810608 93.6605 0.579902 93.0659 0.473445L92.8179 -0.518555H91.7243L91.4763 0.473445C91.1344 0.53788 90.8014 0.642778 90.4843 0.785926L89.7006 0.108885L88.8053 0.736325L88.9194 1.03393M94.9582 5.30945C94.9212 5.4892 94.8655 5.66458 94.792 5.83273M94.5862 6.21713C94.2338 6.77089 93.6935 7.17901 93.0644 7.36661C92.4354 7.55422 91.7598 7.50872 91.1616 7.23848C90.5634 6.96824 90.0828 6.49137 89.8077 5.89535C89.5327 5.29934 89.4818 4.62415 89.6644 3.99364C89.847 3.36314 90.2508 2.81961 90.8017 2.46275C91.3526 2.1059 92.0137 1.95966 92.6638 2.05086C93.3138 2.14206 93.9092 2.46458 94.3406 2.95926C94.7721 3.45394 95.0107 4.0876 95.0127 4.74401C95.0127 4.81014 95.0127 4.8771 95.0127 4.94488" stroke="black" stroke-width="0.248" stroke-miterlimit="10"/>
<path d="M23.6209 35.0719L22.8 36.7757L24.3674 38.0901L25.8852 37.0013C26.4608 37.3341 27.0756 37.594 27.7154 37.7751L28.018 39.6053L30.0565 39.7839L30.6691 38.0479C31.3382 37.9882 31.9972 37.8449 32.6308 37.6213L33.9154 38.9283L35.6861 37.9065L35.1901 36.1457C35.7033 35.7075 36.1606 35.2078 36.5516 34.6577L38.3496 34.9876L39.2152 33.135L37.804 31.9694C37.9685 31.3209 38.0518 30.6545 38.052 29.9854L39.7285 29.2216L39.3739 27.2078L37.5238 27.064C37.2873 26.4443 36.9767 25.8556 36.5988 25.3106L37.5511 23.6986L36.1052 22.2528L34.4808 23.2175C33.5478 22.5828 32.4916 22.1518 31.3808 21.9527L30.9121 20.0977H28.8661L28.3949 21.9626C27.7612 22.0839 27.1443 22.2804 26.5572 22.5479L25.094 21.2831L23.42 22.4561L24.1095 24.2641C23.6597 24.7235 23.266 25.2347 22.9364 25.7868L21.0095 25.5884L20.3101 27.5104L21.9048 28.5917C21.829 29.0407 21.7908 29.4953 21.7907 29.9507C21.7907 30.1441 21.7981 30.3351 21.813 30.5236L20.134 31.461L20.6648 33.445L22.562 33.4227C22.7717 33.8696 23.0207 34.297 23.306 34.6999M28.2015 25.1469C28.4243 25.0688 28.6521 25.0058 28.8835 24.9585M30.1433 24.8593C31.3927 24.9169 32.5773 25.4315 33.4721 26.3052C34.367 27.179 34.9097 28.351 34.9971 29.5987C35.0845 30.8463 34.7105 32.0825 33.9463 33.0725C33.182 34.0625 32.0807 34.7373 30.8516 34.9686C29.6225 35.1999 28.3512 34.9716 27.2794 34.3271C26.2076 33.6826 25.4098 32.6668 25.0378 31.4727C24.6657 30.2787 24.7453 28.9895 25.2613 27.8503C25.7774 26.711 26.694 25.8011 27.8369 25.2933" stroke="black" stroke-width="0.248" stroke-miterlimit="10"/>
<path d="M49.822 29.5662L47.7933 28.2567" stroke="#263238" stroke-width="0.744" stroke-linecap="round" stroke-linejoin="round"/>
<path d="M53.3459 25.6279L52.8202 25.189" stroke="#263238" stroke-width="0.744" stroke-linecap="round" stroke-linejoin="round"/>
<path d="M47.4237 37.1749L43.2251 36.1234" stroke="#263238" stroke-width="0.744" stroke-linecap="round" stroke-linejoin="round"/>
<path d="M70.1159 62.9817C70.0849 62.9815 70.0541 62.9773 70.0241 62.9694C69.9274 62.9441 69.8445 62.8817 69.7935 62.7957C69.6645 62.5701 69.5951 62.4486 70.6416 61.2482C68.3848 62.6296 68.1443 62.5725 68.0128 62.5403C67.9099 62.5099 67.8217 62.4429 67.7648 62.3518C67.5565 61.9922 67.5168 61.9203 71.6932 58.5029C71.0236 58.9369 70.3267 59.4031 69.7092 59.8148C66.0338 62.2675 64.8905 62.9644 64.3846 62.8478C64.3233 62.8339 64.2655 62.8075 64.2148 62.7704C64.164 62.7333 64.1214 62.6863 64.0895 62.6321C63.8663 62.2452 63.8663 62.2452 68.8015 58.679L69.7786 57.9746C69.2082 58.3541 68.6403 58.741 68.1195 59.0956C64.2358 61.7368 62.4676 62.8776 61.8054 62.7288C61.7363 62.7132 61.6713 62.683 61.6148 62.6403C61.5584 62.5975 61.5117 62.5431 61.478 62.4808C61.23 62.0617 61.1804 61.9674 68.3576 57.0917L58.9187 62.5477C58.8346 62.5946 58.7356 62.6065 58.6428 62.581C58.55 62.5555 58.471 62.4946 58.4227 62.4114C58.2565 62.1237 58.3855 61.7715 59.0675 61.1714C57.9812 61.7963 57.3513 62.0468 57.0413 61.9749C56.9768 61.96 56.9159 61.9324 56.8623 61.8936C56.8086 61.8549 56.7632 61.8058 56.7288 61.7492C56.523 61.3921 56.6024 61.0622 59.2287 59.2965C56.5205 60.9903 55.5211 61.4888 55.1317 61.397C55.0738 61.3834 55.0194 61.3582 54.9716 61.3228C54.9238 61.2874 54.8838 61.2426 54.854 61.1912C54.6729 60.8812 54.8416 60.7696 55.464 60.3579L56.8355 59.4626L58.9336 58.1061C56.6222 59.3064 56.275 59.2245 56.0816 59.1774C56.0164 59.1626 55.9549 59.1347 55.9008 59.0955C55.8467 59.0563 55.801 59.0066 55.7666 58.9493C55.7209 58.8652 55.7092 58.7668 55.7342 58.6744C55.7591 58.5821 55.8187 58.5029 55.9005 58.4533C63.1793 54.1381 74.4162 47.2164 77.1244 44.9273C74.4236 46.1549 66.3488 51.1695 61.7484 54.0339C55.8236 57.7167 55.7964 57.7093 55.5484 57.6448C55.4971 57.6333 55.4487 57.6115 55.4061 57.5809C55.3635 57.5502 55.3275 57.5112 55.3004 57.4662C55.0995 57.119 55.1094 56.8958 57.4803 55.4277C56.3891 55.941 55.6699 56.1717 55.3524 56.0973C55.283 56.081 55.2176 56.0506 55.1604 56.008C55.1032 55.9653 55.0555 55.9113 55.0201 55.8493C54.9726 55.7668 54.9588 55.6693 54.9814 55.5769C55.0041 55.4845 55.0614 55.4044 55.1416 55.3533C62.4874 50.6735 72.8216 44.047 77.0376 41.247C75.8645 41.8447 74.2897 42.735 72.5388 43.7841C71.1228 44.6942 69.4438 45.7532 67.4573 46.9882C64.8335 48.6225 62.1799 50.242 59.9702 51.5812C54.6332 54.949 54.5688 54.9342 54.3084 54.8697C54.2571 54.8574 54.2088 54.835 54.1663 54.8039C54.1237 54.7729 54.0877 54.7337 54.0604 54.6886C54.0146 54.6046 54.003 54.5062 54.0279 54.4138C54.0529 54.3214 54.1125 54.2422 54.1943 54.1926C55.8013 53.2378 57.5745 52.1739 59.4147 51.0579L60.3819 50.4478C56.528 52.6526 54.3976 53.6173 53.7702 53.4635C53.6977 53.4494 53.629 53.4199 53.5687 53.3772C53.5084 53.3344 53.4579 53.2793 53.4205 53.2155C53.1899 52.8187 53.5172 52.3128 56.2353 50.5371C54.482 51.606 53.7876 51.9234 53.4924 51.8515C53.4362 51.8388 53.3831 51.8147 53.3366 51.7805C53.2901 51.7464 53.2511 51.703 53.2221 51.6531C53.0659 51.3828 52.9394 51.1571 54.7548 49.8402C53.7776 50.3362 53.1601 50.5371 52.865 50.4652C52.7981 50.4507 52.7349 50.4225 52.6794 50.3824C52.6239 50.3423 52.5773 50.2911 52.5426 50.2321C52.5177 50.1894 52.5015 50.1422 52.4951 50.0932C52.4887 50.0443 52.4922 49.9945 52.5054 49.9469C52.5315 49.8518 52.5939 49.7708 52.679 49.7212C60.7266 45.1456 72.9133 37.899 76.6234 34.9751C72.5537 37.222 61.3342 43.8089 53.5048 48.4514C53.4626 48.4764 53.4157 48.4927 53.3671 48.4995C53.3185 48.5062 53.269 48.5033 53.2215 48.4909C53.174 48.4784 53.1295 48.4567 53.0904 48.4269C53.0514 48.3972 53.0186 48.36 52.994 48.3175C52.9559 48.2494 52.9321 48.1743 52.924 48.0967C52.9159 48.0191 52.9237 47.9406 52.9468 47.8662C53.0849 47.5517 53.2937 47.2733 53.5569 47.0527C52.9791 47.2883 52.5922 47.3751 52.3715 47.3205C52.3028 47.3038 52.2384 47.2732 52.1821 47.2305C52.1257 47.1879 52.0788 47.1341 52.0441 47.0725C51.8209 46.6881 52.2475 46.3905 52.8923 45.9417C53.3883 45.6069 54.0901 45.1431 55.0722 44.5281C56.9049 43.3823 59.4196 41.8645 62.0832 40.26C65.0765 38.4545 68.6328 36.3093 71.4576 34.5337C65.4138 38.0057 55.8956 43.5658 51.3249 46.2393C51.2383 46.2884 51.136 46.3017 51.0397 46.2765C50.9924 46.264 50.9481 46.2423 50.9094 46.2124C50.8706 46.1826 50.8382 46.1454 50.814 46.1029C50.6231 45.7705 50.566 45.6738 53.852 43.6055C52.5649 44.3123 51.7515 44.6174 51.3373 44.5206C51.2591 44.5043 51.1852 44.4719 51.1203 44.4253C51.0553 44.3788 51.0009 44.3192 50.9604 44.2503C50.7124 43.8237 50.7124 43.8237 56.6792 40.3592C59.4395 38.7571 62.7329 36.8425 65.7635 35.0024C68.308 33.311 70.2994 32.0264 71.8097 31.1336C72.6019 30.6066 73.3538 30.0214 74.0591 29.3827C70.9616 30.774 58.7302 38.1693 50.9951 42.9805C50.9115 43.0332 50.8105 43.0505 50.7143 43.0286C50.618 43.0067 50.5343 42.9475 50.4817 42.864C50.4291 42.7805 50.4118 42.6794 50.4337 42.5832C50.4555 42.4869 50.5147 42.4033 50.5983 42.3506L52.9989 40.823C51.0149 41.8422 50.2709 42.0133 49.9659 41.9365C49.8967 41.9203 49.8316 41.89 49.7748 41.8473C49.718 41.8046 49.6708 41.7505 49.636 41.6885C49.5879 41.6062 49.5737 41.5084 49.5964 41.4159C49.6191 41.3233 49.6769 41.2432 49.7576 41.1925L55.0424 37.8048C50.7223 40.2451 50.3726 40.1583 50.1593 40.1037C50.1026 40.0905 50.0492 40.0659 50.0023 40.0314C49.9554 39.9968 49.916 39.9531 49.8865 39.9029C49.8401 39.8197 49.8274 39.7219 49.8509 39.6297C49.8744 39.5374 49.9324 39.4576 50.013 39.4069C55.5831 35.9621 63.4968 30.9749 68.117 27.8476C64.3846 29.9978 58.941 33.192 55.1119 35.4438L50.8438 37.9238C49.8964 38.4769 49.4376 38.7472 49.1921 38.8712L49.1276 38.9109C48.9565 38.9927 48.9144 38.9803 48.8424 38.9605C48.7724 38.9418 48.7094 38.9031 48.6611 38.8491C48.6128 38.7951 48.5814 38.7281 48.5706 38.6565C48.5598 38.5849 48.5701 38.5116 48.6004 38.4458C48.6306 38.38 48.6794 38.3244 48.7408 38.2859C54.6481 34.6329 63.3728 29.1273 67.2812 26.4191C65.2005 27.6244 62.0931 29.6059 59.5932 31.2055C52.5848 35.6695 50.4544 36.9542 49.8369 36.8004C49.7782 36.7865 49.7229 36.7608 49.6743 36.725C49.6258 36.6892 49.5849 36.644 49.5542 36.5921C49.4004 36.3218 49.2888 36.1308 51.6176 34.4518C50.9827 34.7321 50.5536 34.8387 50.3032 34.7792C50.2323 34.7631 50.1655 34.7328 50.1067 34.6902C50.0479 34.6476 49.9983 34.5935 49.9609 34.5312C49.9149 34.4482 49.9021 34.3508 49.9251 34.2587C49.9481 34.1667 50.0052 34.0868 50.0849 34.0352C54.6605 31.1559 61.6144 26.6423 64.0052 24.7749C61.912 25.7991 57.3439 28.7429 54.6556 30.464C50.2635 33.2639 50.0998 33.3334 49.8196 33.2639C49.7682 33.252 49.7197 33.2298 49.6771 33.1987C49.6345 33.1676 49.5986 33.1282 49.5716 33.0829C49.3732 32.7431 49.1996 32.4405 53.4999 29.4844C52.9692 29.8217 52.426 30.1714 51.8705 30.5285C51.8246 30.5657 51.7708 30.5919 51.7132 30.6052C51.6557 30.6186 51.5958 30.6186 51.5382 30.6054C51.4893 30.5937 51.4434 30.572 51.4032 30.5417C51.3631 30.5114 51.3297 30.4731 51.3051 30.4293C51.0397 29.9705 51.4216 29.5762 54.4398 27.2623C54.3844 27.2506 54.3322 27.2273 54.2865 27.1939C54.2407 27.1606 54.2026 27.118 54.1744 27.0689C54.1284 26.9833 54.1175 26.8833 54.1439 26.7898C54.1702 26.6963 54.2319 26.6168 54.3158 26.5679C54.3854 26.5297 54.4649 26.5133 54.544 26.5208C54.9363 26.293 55.3162 26.0447 55.6823 25.7768C56.8925 24.9262 57.2348 24.7228 57.5299 24.7848C57.5875 24.7974 57.6419 24.8217 57.6897 24.8563C57.7375 24.8908 57.7776 24.9349 57.8076 24.9857C58.0209 25.3577 57.8548 25.5809 55.8236 27.1532C56.3891 26.8035 56.9719 26.4414 57.5596 26.0843C63.2934 22.5776 63.7373 22.6817 64.0076 22.7462C64.0671 22.759 64.1233 22.7842 64.1724 22.8201C64.2215 22.856 64.2626 22.9018 64.2928 22.9545C64.3395 23.0374 64.3526 23.135 64.3296 23.2272C64.3065 23.3195 64.249 23.3994 64.1688 23.4505C61.3714 25.1865 58.4648 27.0664 56.027 28.6908C61.6864 25.0774 64.4069 23.4828 65.1732 23.6762C65.2397 23.691 65.3024 23.7194 65.3575 23.7595C65.4125 23.7996 65.4587 23.8506 65.4932 23.9094C65.7288 24.3186 65.8999 24.6162 58.0705 29.7696L56.9446 30.5136C58.5219 29.5216 60.119 28.48 61.4086 27.6368C66.4306 24.3781 67.244 23.8994 67.6235 23.9887C67.6755 24.0023 67.7242 24.0262 67.7668 24.059C67.8094 24.0918 67.845 24.1329 67.8715 24.1797C67.919 24.2621 67.9328 24.3597 67.9102 24.452C67.8876 24.5444 67.8302 24.6245 67.75 24.6757C62.8941 27.7707 55.8013 32.391 52.2946 34.8734C54.1794 33.7624 56.8504 32.0586 59.1766 30.5756C66.5496 25.8636 68.9552 24.4376 69.6348 24.6013C69.6955 24.6158 69.7527 24.6424 69.803 24.6794C69.8533 24.7165 69.8956 24.7633 69.9274 24.817C70.1084 25.132 70.2399 25.3552 65.9272 28.2345C71.9709 24.7278 72.0875 24.7625 72.2784 24.8071C72.327 24.8196 72.3726 24.8416 72.4126 24.8718C72.4526 24.902 72.4863 24.9399 72.5116 24.9832C72.7596 25.4122 72.9356 25.7272 61.5326 33.0134C60.7043 33.5442 59.8735 34.0724 59.0526 34.5882C63.5662 31.9197 68.9453 28.6362 73.02 26.0918C73.0626 26.0657 73.11 26.0484 73.1594 26.0407C73.2087 26.0331 73.2591 26.0352 73.3076 26.0471C73.4052 26.072 73.489 26.1344 73.5408 26.2207C73.7168 26.5282 73.4564 26.7167 73.1812 26.9052C73.0125 27.0218 72.7645 27.1904 72.4372 27.4012C71.837 27.8005 70.9492 28.3932 69.8034 29.1372C67.874 30.3946 65.1782 32.138 61.7905 34.3204C58.5268 36.4209 55.2384 38.5364 52.984 39.9773C55.9625 38.4025 61.7558 34.9999 72.9158 27.8699C74.5228 26.8457 74.5228 26.8457 74.6865 26.8779C74.7356 26.89 74.7817 26.9118 74.8222 26.942C74.8627 26.9723 74.8967 27.0104 74.9221 27.054C75.0139 27.2127 75.066 27.302 74.7684 27.5674C74.3716 27.9146 73.3845 28.5593 71.1327 30.0225C74.322 28.2741 74.6196 28.3461 74.813 28.3957C74.8693 28.4084 74.9224 28.4325 74.9689 28.4667C75.0154 28.5008 75.0543 28.5442 75.0833 28.5941C75.2172 28.8272 75.2495 29.1074 74.7535 29.6629C74.9491 29.6019 75.1561 29.5866 75.3586 29.6183C75.4395 29.6352 75.516 29.6688 75.583 29.7171C75.6501 29.7654 75.7063 29.8272 75.748 29.8985C75.996 30.3251 76.12 30.5434 68.7519 35.1909C76.554 30.6723 76.6308 30.6922 76.8168 30.7418C76.8646 30.7539 76.9094 30.7755 76.9486 30.8054C76.9878 30.8352 77.0206 30.8726 77.045 30.9154C77.293 31.327 76.8466 31.7412 75.7802 32.5199C75.0932 33.0159 74.1236 33.6706 72.824 34.5039C77.1566 31.7982 78.2428 31.2378 78.6297 31.332C78.6845 31.3453 78.7359 31.3695 78.7811 31.4032C78.8263 31.4368 78.8642 31.4793 78.8926 31.5279C78.9175 31.5701 78.9336 31.6169 78.94 31.6655C78.9464 31.7141 78.9429 31.7634 78.9298 31.8106C78.9172 31.8585 78.8952 31.9034 78.8649 31.9426C78.8347 31.9818 78.7969 32.0145 78.7537 32.0388C76.2241 33.4722 73.6524 34.9553 71.1674 36.4185L68.5932 38.0454C63.5315 41.2495 59.8388 43.5534 57.2472 45.0613C56.4263 45.6242 55.7244 46.1252 55.1615 46.5493C57.4679 45.1853 61.3962 42.8665 65.3295 40.5725C77.7295 33.316 77.918 33.3681 78.1536 33.4301C78.2021 33.4426 78.2477 33.4646 78.2877 33.4948C78.3278 33.525 78.3614 33.5629 78.3867 33.6062C78.4226 33.6696 78.4452 33.7397 78.4533 33.8121C78.4614 33.8846 78.4548 33.9579 78.4338 34.0278C78.3607 34.2679 78.2204 34.4822 78.0296 34.6453C78.8802 34.2212 79.4134 34.0476 79.6763 34.1096C79.7402 34.1243 79.8005 34.1518 79.8534 34.1907C79.9062 34.2295 79.9506 34.2787 79.9838 34.3353C80.1822 34.6775 79.9044 34.8635 79.2919 35.2702C78.9224 35.5182 78.3768 35.863 77.6204 36.3342L77.474 36.4259C78.6297 35.8729 79.4407 35.6125 79.8474 35.7117C79.9305 35.7288 80.0091 35.763 80.0782 35.8121C80.1474 35.8612 80.2056 35.9241 80.2492 35.9969C80.5914 36.5896 80.2492 36.9666 68.1492 44.1238C63.0677 47.1519 56.3544 51.1199 54.5241 52.6079C55.5335 52.2533 58.0482 51.0381 64.2978 47.2561C69.3917 44.1734 75.0015 40.575 77.6898 38.8464C79.5572 37.6486 79.5548 37.651 79.7209 37.6907C79.8197 37.7159 79.9044 37.7792 79.9565 37.8668C80.1078 38.1297 80.2616 38.395 78.2205 39.9153C78.5087 39.785 78.8254 39.7304 79.1406 39.7565C79.21 39.7729 79.2753 39.8034 79.3325 39.8461C79.3897 39.8887 79.4375 39.9427 79.4729 40.0045C79.6912 40.384 79.6912 40.384 75.6785 43.0128C73.6945 44.3073 70.9417 46.0954 67.4697 48.3274C64.1217 50.4801 60.7464 52.6401 58.4351 54.1157C63.1173 51.606 71.8916 46.0409 75.7951 43.5658C79.2671 41.371 79.2671 41.371 79.4556 41.4182C79.5041 41.4306 79.5497 41.4526 79.5897 41.4829C79.6298 41.5131 79.6634 41.5509 79.6887 41.5942C79.954 42.0555 79.5324 42.7102 77.9006 43.923C77.9483 43.9162 77.9967 43.9162 78.0444 43.923C78.1052 43.9375 78.1624 43.9641 78.2127 44.0011C78.2629 44.0382 78.3052 44.085 78.3371 44.1387C78.5975 44.5901 78.8926 45.1009 67.8864 51.9929C71.0508 50.0436 74.3344 47.9703 76.9855 46.2517C77.0279 46.224 77.0755 46.2053 77.1254 46.1967C77.1753 46.1881 77.2264 46.1898 77.2756 46.2016C77.3248 46.2135 77.3711 46.2352 77.4116 46.2656C77.4522 46.2959 77.486 46.3342 77.5112 46.3782C77.6923 46.6956 77.4418 46.8741 77.0152 47.1717C76.7672 47.3478 76.3928 47.6057 75.9017 47.9331C75.4107 48.2605 74.8006 48.6771 74.064 49.1533C75.0908 48.6325 75.7256 48.4217 76.048 48.501C76.118 48.5168 76.1839 48.547 76.2416 48.5897C76.2992 48.6324 76.3474 48.6867 76.3828 48.749C76.5912 49.1086 76.544 49.245 74.0343 50.867C74.5625 50.6413 74.937 50.5594 75.1776 50.619C75.2523 50.635 75.3229 50.6665 75.3848 50.7113C75.4467 50.7561 75.4986 50.8134 75.5372 50.8793C75.8298 51.3753 75.6091 51.6085 68.8883 55.6782C66.9638 56.8438 64.5408 58.3094 62.5792 59.5742L75.7752 51.9582C75.8174 51.9331 75.8642 51.9169 75.9128 51.9105C75.9614 51.9042 76.0108 51.9077 76.058 51.921C76.1527 51.9462 76.2337 52.0077 76.2836 52.0921C76.4672 52.412 76.2068 52.603 75.7752 52.9204C75.5148 53.1114 75.1329 53.3817 74.6072 53.7437C73.6276 54.4233 72.266 55.3434 70.8252 56.3205C69.1462 57.4563 67.0332 58.8873 65.3022 60.0901C66.0983 59.5643 66.9266 59.0014 67.6632 58.5004C71.4997 55.8914 73.1192 54.8474 73.7516 54.9862C73.8178 55.0008 73.8804 55.0287 73.9354 55.0684C73.9905 55.1081 74.0368 55.1586 74.0715 55.2169C74.2872 55.5938 74.2972 55.6112 69.8976 58.798C73.0894 56.6751 74.1335 56.07 74.6096 56.1766C74.6709 56.1906 74.7287 56.2169 74.7795 56.254C74.8302 56.2911 74.8729 56.3382 74.9048 56.3924C75.0784 56.695 75.0784 56.695 72.8588 58.5078C72.1892 59.0534 71.2592 59.8123 70.4209 60.5142C71.1004 60.095 71.8494 59.6189 72.5612 59.1576C72.6036 59.13 72.6512 59.1113 72.7011 59.1027C72.751 59.0941 72.8021 59.0957 72.8513 59.1076C72.9005 59.1194 72.9468 59.1412 72.9873 59.1715C73.0278 59.2019 73.0617 59.2402 73.0869 59.2841C73.2258 59.5321 73.1737 59.5817 72.6653 60.1273C72.2512 60.5712 71.8965 60.9605 71.5964 61.2929C73.8483 59.9512 73.9301 59.9735 74.0888 60.0132C74.1371 60.0257 74.1823 60.0478 74.2219 60.078C74.2615 60.1082 74.2947 60.1461 74.3195 60.1893C74.3443 60.2315 74.3604 60.2783 74.367 60.3268C74.3735 60.3753 74.3704 60.4247 74.3577 60.472C74.345 60.5193 74.323 60.5636 74.293 60.6024C74.2631 60.6411 74.2257 60.6735 74.1831 60.6977C74.1472 60.7193 74.1077 60.7344 74.0665 60.7423C73.7367 60.8911 71.904 61.9699 70.2895 62.947C70.2351 62.9719 70.1757 62.9837 70.1159 62.9817V62.9817ZM73.6945 60.5439C73.7339 60.6104 73.7928 60.6632 73.8632 60.6952C73.7934 60.6623 73.7347 60.6097 73.6945 60.5439V60.5439ZM64.5384 56.757C62.3956 58.0937 60.2876 59.4329 58.9137 60.3877C60.4092 59.4973 62.5816 58.0639 64.5384 56.757V56.757ZM73.7615 50.1527C71.3286 51.5018 67.3928 54.0364 64.402 55.9683C65.5031 55.2813 66.758 54.5051 68.184 53.6272C70.1481 52.4194 72.2636 51.1199 73.7615 50.1527V50.1527ZM73.6028 51.8887C72.2809 52.593 70.2746 53.8727 68.3179 55.1499L68.5237 55.0259C70.3515 53.9149 72.3355 52.7121 73.6028 51.8837V51.8887ZM61.4086 46.3186C59.7718 47.3429 58.2838 48.3076 57.0438 49.1359C58.3284 48.315 59.8512 47.3305 61.4086 46.3186ZM79.0637 36.5648C78.3445 36.8128 76.8193 37.5072 73.5928 39.4441C70.3664 41.381 66.4678 43.9279 62.9958 46.1847C61.4805 47.1767 60.2058 47.9951 59.1295 48.6845C61.2176 47.3999 64.0225 45.721 67.7698 43.5038C72.3305 40.7982 77.4294 37.7825 79.0637 36.5648V36.5648ZM76.735 43.8411L76.2092 44.1759C74.4732 45.2787 72.829 46.3161 71.2765 47.2883C73.3473 46.0433 75.304 44.8257 76.735 43.8411ZM60.2876 42.1919C58.0135 43.5658 55.8038 44.9199 54.3356 45.845C55.0796 45.4655 55.9749 44.9571 56.9868 44.357C57.9812 43.6799 59.0948 42.9483 60.2876 42.1919ZM66.1107 35.6398C65.1584 36.2746 64.2209 36.9045 63.343 37.4923C61.607 38.6629 60.0644 39.6846 58.7277 40.5625L60.0942 39.7193C65.1162 36.6243 72.3677 32.1504 74.5005 30.5285C73.7117 30.881 72.947 31.2853 72.2115 31.7387C71.3633 32.3314 70.2845 33.0432 68.918 33.9062C68.0277 34.4642 67.0828 35.0445 66.1107 35.6348V35.6398Z" fill="#037BE2"/>
<g opacity="0.4">
<path d="M70.1159 62.9817C70.0849 62.9815 70.0541 62.9773 70.0241 62.9694C69.9274 62.9441 69.8445 62.8817 69.7935 62.7957C69.6645 62.5701 69.5951 62.4486 70.6416 61.2482C68.3848 62.6296 68.1443 62.5725 68.0128 62.5403C67.9099 62.5099 67.8217 62.4429 67.7648 62.3518C67.5565 61.9922 67.5168 61.9203 71.6932 58.5029C71.0236 58.9369 70.3267 59.4031 69.7092 59.8148C66.0338 62.2675 64.8905 62.9644 64.3846 62.8478C64.3233 62.8339 64.2655 62.8075 64.2148 62.7704C64.164 62.7333 64.1214 62.6863 64.0895 62.6321C63.8663 62.2452 63.8663 62.2452 68.8015 58.679L69.7786 57.9746C69.2082 58.3541 68.6403 58.741 68.1195 59.0956C64.2358 61.7368 62.4676 62.8776 61.8054 62.7288C61.7363 62.7132 61.6713 62.683 61.6148 62.6403C61.5584 62.5975 61.5117 62.5431 61.478 62.4808C61.23 62.0617 61.1804 61.9674 68.3576 57.0917L58.9187 62.5477C58.8346 62.5946 58.7356 62.6065 58.6428 62.581C58.55 62.5555 58.471 62.4946 58.4227 62.4114C58.2565 62.1237 58.3855 61.7715 59.0675 61.1714C57.9812 61.7963 57.3513 62.0468 57.0413 61.9749C56.9768 61.96 56.9159 61.9324 56.8623 61.8936C56.8086 61.8549 56.7632 61.8058 56.7288 61.7492C56.523 61.3921 56.6024 61.0622 59.2287 59.2965C56.5205 60.9903 55.5211 61.4888 55.1317 61.397C55.0738 61.3834 55.0194 61.3582 54.9716 61.3228C54.9238 61.2874 54.8838 61.2426 54.854 61.1912C54.6729 60.8812 54.8416 60.7696 55.464 60.3579L56.8355 59.4626L58.9336 58.1061C56.6222 59.3064 56.275 59.2245 56.0816 59.1774C56.0164 59.1626 55.9549 59.1347 55.9008 59.0955C55.8467 59.0563 55.801 59.0066 55.7666 58.9493C55.7209 58.8652 55.7092 58.7668 55.7342 58.6744C55.7591 58.5821 55.8187 58.5029 55.9005 58.4533C63.1793 54.1381 74.4162 47.2164 77.1244 44.9273C74.4236 46.1549 66.3488 51.1695 61.7484 54.0339C55.8236 57.7167 55.7964 57.7093 55.5484 57.6448C55.4971 57.6333 55.4487 57.6115 55.4061 57.5809C55.3635 57.5502 55.3275 57.5112 55.3004 57.4662C55.0995 57.119 55.1094 56.8958 57.4803 55.4277C56.3891 55.941 55.6699 56.1717 55.3524 56.0973C55.283 56.081 55.2176 56.0506 55.1604 56.008C55.1032 55.9653 55.0555 55.9113 55.0201 55.8493C54.9726 55.7668 54.9588 55.6693 54.9814 55.5769C55.0041 55.4845 55.0614 55.4044 55.1416 55.3533C62.4874 50.6735 72.8216 44.047 77.0376 41.247C75.8645 41.8447 74.2897 42.735 72.5388 43.7841C71.1228 44.6942 69.4438 45.7532 67.4573 46.9882C64.8335 48.6225 62.1799 50.242 59.9702 51.5812C54.6332 54.949 54.5688 54.9342 54.3084 54.8697C54.2571 54.8574 54.2088 54.835 54.1663 54.8039C54.1237 54.7729 54.0877 54.7337 54.0604 54.6886C54.0146 54.6046 54.003 54.5062 54.0279 54.4138C54.0529 54.3214 54.1125 54.2422 54.1943 54.1926C55.8013 53.2378 57.5745 52.1739 59.4147 51.0579L60.3819 50.4478C56.528 52.6526 54.3976 53.6173 53.7702 53.4635C53.6977 53.4494 53.629 53.4199 53.5687 53.3772C53.5084 53.3344 53.4579 53.2793 53.4205 53.2155C53.1899 52.8187 53.5172 52.3128 56.2353 50.5371C54.482 51.606 53.7876 51.9234 53.4924 51.8515C53.4362 51.8388 53.3831 51.8147 53.3366 51.7805C53.2901 51.7464 53.2511 51.703 53.2221 51.6531C53.0659 51.3828 52.9394 51.1571 54.7548 49.8402C53.7776 50.3362 53.1601 50.5371 52.865 50.4652C52.7981 50.4507 52.7349 50.4225 52.6794 50.3824C52.6239 50.3423 52.5773 50.2911 52.5426 50.2321C52.5177 50.1894 52.5015 50.1422 52.4951 50.0932C52.4887 50.0443 52.4922 49.9945 52.5054 49.9469C52.5315 49.8518 52.5939 49.7708 52.679 49.7212C60.7266 45.1456 72.9133 37.899 76.6234 34.9751C72.5537 37.222 61.3342 43.8089 53.5048 48.4514C53.4626 48.4764 53.4157 48.4927 53.3671 48.4995C53.3185 48.5062 53.269 48.5033 53.2215 48.4909C53.174 48.4784 53.1295 48.4567 53.0904 48.4269C53.0514 48.3972 53.0186 48.36 52.994 48.3175C52.9559 48.2494 52.9321 48.1743 52.924 48.0967C52.9159 48.0191 52.9237 47.9406 52.9468 47.8662C53.0849 47.5517 53.2937 47.2733 53.5569 47.0527C52.9791 47.2883 52.5922 47.3751 52.3715 47.3205C52.3028 47.3038 52.2384 47.2732 52.1821 47.2305C52.1257 47.1879 52.0788 47.1341 52.0441 47.0725C51.8209 46.6881 52.2475 46.3905 52.8923 45.9417C53.3883 45.6069 54.0901 45.1431 55.0722 44.5281C56.9049 43.3823 59.4196 41.8645 62.0832 40.26C65.0765 38.4545 68.6328 36.3093 71.4576 34.5337C65.4138 38.0057 55.8956 43.5658 51.3249 46.2393C51.2383 46.2884 51.136 46.3017 51.0397 46.2765C50.9924 46.264 50.9481 46.2423 50.9094 46.2124C50.8706 46.1826 50.8382 46.1454 50.814 46.1029C50.6231 45.7705 50.566 45.6738 53.852 43.6055C52.5649 44.3123 51.7515 44.6174 51.3373 44.5206C51.2591 44.5043 51.1852 44.4719 51.1203 44.4253C51.0553 44.3788 51.0009 44.3192 50.9604 44.2503C50.7124 43.8237 50.7124 43.8237 56.6792 40.3592C59.4395 38.7571 62.7329 36.8425 65.7635 35.0024C68.308 33.311 70.2994 32.0264 71.8097 31.1336C72.6019 30.6066 73.3538 30.0214 74.0591 29.3827C70.9616 30.774 58.7302 38.1693 50.9951 42.9805C50.9115 43.0332 50.8105 43.0505 50.7143 43.0286C50.618 43.0067 50.5343 42.9475 50.4817 42.864C50.4291 42.7805 50.4118 42.6794 50.4337 42.5832C50.4555 42.4869 50.5147 42.4033 50.5983 42.3506L52.9989 40.823C51.0149 41.8422 50.2709 42.0133 49.9659 41.9365C49.8967 41.9203 49.8316 41.89 49.7748 41.8473C49.718 41.8046 49.6708 41.7505 49.636 41.6885C49.5879 41.6062 49.5737 41.5084 49.5964 41.4159C49.6191 41.3233 49.6769 41.2432 49.7576 41.1925L55.0424 37.8048C50.7223 40.2451 50.3726 40.1583 50.1593 40.1037C50.1026 40.0905 50.0492 40.0659 50.0023 40.0314C49.9554 39.9968 49.916 39.9531 49.8865 39.9029C49.8401 39.8197 49.8274 39.7219 49.8509 39.6297C49.8744 39.5374 49.9324 39.4576 50.013 39.4069C55.5831 35.9621 63.4968 30.9749 68.117 27.8476C64.3846 29.9978 58.941 33.192 55.1119 35.4438L50.8438 37.9238C49.8964 38.4769 49.4376 38.7472 49.1921 38.8712L49.1276 38.9109C48.9565 38.9927 48.9144 38.9803 48.8424 38.9605C48.7724 38.9418 48.7094 38.9031 48.6611 38.8491C48.6128 38.7951 48.5814 38.7281 48.5706 38.6565C48.5598 38.5849 48.5701 38.5116 48.6004 38.4458C48.6306 38.38 48.6794 38.3244 48.7408 38.2859C54.6481 34.6329 63.3728 29.1273 67.2812 26.4191C65.2005 27.6244 62.0931 29.6059 59.5932 31.2055C52.5848 35.6695 50.4544 36.9542 49.8369 36.8004C49.7782 36.7865 49.7229 36.7608 49.6743 36.725C49.6258 36.6892 49.5849 36.644 49.5542 36.5921C49.4004 36.3218 49.2888 36.1308 51.6176 34.4518C50.9827 34.7321 50.5536 34.8387 50.3032 34.7792C50.2323 34.7631 50.1655 34.7328 50.1067 34.6902C50.0479 34.6476 49.9983 34.5935 49.9609 34.5312C49.9149 34.4482 49.9021 34.3508 49.9251 34.2587C49.9481 34.1667 50.0052 34.0868 50.0849 34.0352C54.6605 31.1559 61.6144 26.6423 64.0052 24.7749C61.912 25.7991 57.3439 28.7429 54.6556 30.464C50.2635 33.2639 50.0998 33.3334 49.8196 33.2639C49.7682 33.252 49.7197 33.2298 49.6771 33.1987C49.6345 33.1676 49.5986 33.1282 49.5716 33.0829C49.3732 32.7431 49.1996 32.4405 53.4999 29.4844C52.9692 29.8217 52.426 30.1714 51.8705 30.5285C51.8246 30.5657 51.7708 30.5919 51.7132 30.6052C51.6557 30.6186 51.5958 30.6186 51.5382 30.6054C51.4893 30.5937 51.4434 30.572 51.4032 30.5417C51.3631 30.5114 51.3297 30.4731 51.3051 30.4293C51.0397 29.9705 51.4216 29.5762 54.4398 27.2623C54.3844 27.2506 54.3322 27.2273 54.2865 27.1939C54.2407 27.1606 54.2026 27.118 54.1744 27.0689C54.1284 26.9833 54.1175 26.8833 54.1439 26.7898C54.1702 26.6963 54.2319 26.6168 54.3158 26.5679C54.3854 26.5297 54.4649 26.5133 54.544 26.5208C54.9363 26.293 55.3162 26.0447 55.6823 25.7768C56.8925 24.9262 57.2348 24.7228 57.5299 24.7848C57.5875 24.7974 57.6419 24.8217 57.6897 24.8563C57.7375 24.8908 57.7776 24.9349 57.8076 24.9857C58.0209 25.3577 57.8548 25.5809 55.8236 27.1532C56.3891 26.8035 56.9719 26.4414 57.5596 26.0843C63.2934 22.5776 63.7373 22.6817 64.0076 22.7462C64.0671 22.759 64.1233 22.7842 64.1724 22.8201C64.2215 22.856 64.2626 22.9018 64.2928 22.9545C64.3395 23.0374 64.3526 23.135 64.3296 23.2272C64.3065 23.3195 64.249 23.3994 64.1688 23.4505C61.3714 25.1865 58.4648 27.0664 56.027 28.6908C61.6864 25.0774 64.4069 23.4828 65.1732 23.6762C65.2397 23.691 65.3024 23.7194 65.3575 23.7595C65.4125 23.7996 65.4587 23.8506 65.4932 23.9094C65.7288 24.3186 65.8999 24.6162 58.0705 29.7696L56.9446 30.5136C58.5219 29.5216 60.119 28.48 61.4086 27.6368C66.4306 24.3781 67.244 23.8994 67.6235 23.9887C67.6755 24.0023 67.7242 24.0262 67.7668 24.059C67.8094 24.0918 67.845 24.1329 67.8715 24.1797C67.919 24.2621 67.9328 24.3597 67.9102 24.452C67.8876 24.5444 67.8302 24.6245 67.75 24.6757C62.8941 27.7707 55.8013 32.391 52.2946 34.8734C54.1794 33.7624 56.8504 32.0586 59.1766 30.5756C66.5496 25.8636 68.9552 24.4376 69.6348 24.6013C69.6955 24.6158 69.7527 24.6424 69.803 24.6794C69.8533 24.7165 69.8956 24.7633 69.9274 24.817C70.1084 25.132 70.2399 25.3552 65.9272 28.2345C71.9709 24.7278 72.0875 24.7625 72.2784 24.8071C72.327 24.8196 72.3726 24.8416 72.4126 24.8718C72.4526 24.902 72.4863 24.9399 72.5116 24.9832C72.7596 25.4122 72.9356 25.7272 61.5326 33.0134C60.7043 33.5442 59.8735 34.0724 59.0526 34.5882C63.5662 31.9197 68.9453 28.6362 73.02 26.0918C73.0626 26.0657 73.11 26.0484 73.1594 26.0407C73.2087 26.0331 73.2591 26.0352 73.3076 26.0471C73.4052 26.072 73.489 26.1344 73.5408 26.2207C73.7168 26.5282 73.4564 26.7167 73.1812 26.9052C73.0125 27.0218 72.7645 27.1904 72.4372 27.4012C71.837 27.8005 70.9492 28.3932 69.8034 29.1372C67.874 30.3946 65.1782 32.138 61.7905 34.3204C58.5268 36.4209 55.2384 38.5364 52.984 39.9773C55.9625 38.4025 61.7558 34.9999 72.9158 27.8699C74.5228 26.8457 74.5228 26.8457 74.6865 26.8779C74.7356 26.89 74.7817 26.9118 74.8222 26.942C74.8627 26.9723 74.8967 27.0104 74.9221 27.054C75.0139 27.2127 75.066 27.302 74.7684 27.5674C74.3716 27.9146 73.3845 28.5593 71.1327 30.0225C74.322 28.2741 74.6196 28.3461 74.813 28.3957C74.8693 28.4084 74.9224 28.4325 74.9689 28.4667C75.0154 28.5008 75.0543 28.5442 75.0833 28.5941C75.2172 28.8272 75.2495 29.1074 74.7535 29.6629C74.9491 29.6019 75.1561 29.5866 75.3586 29.6183C75.4395 29.6352 75.516 29.6688 75.583 29.7171C75.6501 29.7654 75.7063 29.8272 75.748 29.8985C75.996 30.3251 76.12 30.5434 68.7519 35.1909C76.554 30.6723 76.6308 30.6922 76.8168 30.7418C76.8646 30.7539 76.9094 30.7755 76.9486 30.8054C76.9878 30.8352 77.0206 30.8726 77.045 30.9154C77.293 31.327 76.8466 31.7412 75.7802 32.5199C75.0932 33.0159 74.1236 33.6706 72.824 34.5039C77.1566 31.7982 78.2428 31.2378 78.6297 31.332C78.6845 31.3453 78.7359 31.3695 78.7811 31.4032C78.8263 31.4368 78.8642 31.4793 78.8926 31.5279C78.9175 31.5701 78.9336 31.6169 78.94 31.6655C78.9464 31.7141 78.9429 31.7634 78.9298 31.8106C78.9172 31.8585 78.8952 31.9034 78.8649 31.9426C78.8347 31.9818 78.7969 32.0145 78.7537 32.0388C76.2241 33.4722 73.6524 34.9553 71.1674 36.4185L68.5932 38.0454C63.5315 41.2495 59.8388 43.5534 57.2472 45.0613C56.4263 45.6242 55.7244 46.1252 55.1615 46.5493C57.4679 45.1853 61.3962 42.8665 65.3295 40.5725C77.7295 33.316 77.918 33.3681 78.1536 33.4301C78.2021 33.4426 78.2477 33.4646 78.2877 33.4948C78.3278 33.525 78.3614 33.5629 78.3867 33.6062C78.4226 33.6696 78.4452 33.7397 78.4533 33.8121C78.4614 33.8846 78.4548 33.9579 78.4338 34.0278C78.3607 34.2679 78.2204 34.4822 78.0296 34.6453C78.8802 34.2212 79.4134 34.0476 79.6763 34.1096C79.7402 34.1243 79.8005 34.1518 79.8534 34.1907C79.9062 34.2295 79.9506 34.2787 79.9838 34.3353C80.1822 34.6775 79.9044 34.8635 79.2919 35.2702C78.9224 35.5182 78.3768 35.863 77.6204 36.3342L77.474 36.4259C78.6297 35.8729 79.4407 35.6125 79.8474 35.7117C79.9305 35.7288 80.0091 35.763 80.0782 35.8121C80.1474 35.8612 80.2056 35.9241 80.2492 35.9969C80.5914 36.5896 80.2492 36.9666 68.1492 44.1238C63.0677 47.1519 56.3544 51.1199 54.5241 52.6079C55.5335 52.2533 58.0482 51.0381 64.2978 47.2561C69.3917 44.1734 75.0015 40.575 77.6898 38.8464C79.5572 37.6486 79.5548 37.651 79.7209 37.6907C79.8197 37.7159 79.9044 37.7792 79.9565 37.8668C80.1078 38.1297 80.2616 38.395 78.2205 39.9153C78.5087 39.785 78.8254 39.7304 79.1406 39.7565C79.21 39.7729 79.2753 39.8034 79.3325 39.8461C79.3897 39.8887 79.4375 39.9427 79.4729 40.0045C79.6912 40.384 79.6912 40.384 75.6785 43.0128C73.6945 44.3073 70.9417 46.0954 67.4697 48.3274C64.1217 50.4801 60.7464 52.6401 58.4351 54.1157C63.1173 51.606 71.8916 46.0409 75.7951 43.5658C79.2671 41.371 79.2671 41.371 79.4556 41.4182C79.5041 41.4306 79.5497 41.4526 79.5897 41.4829C79.6298 41.5131 79.6634 41.5509 79.6887 41.5942C79.954 42.0555 79.5324 42.7102 77.9006 43.923C77.9483 43.9162 77.9967 43.9162 78.0444 43.923C78.1052 43.9375 78.1624 43.9641 78.2127 44.0011C78.2629 44.0382 78.3052 44.085 78.3371 44.1387C78.5975 44.5901 78.8926 45.1009 67.8864 51.9929C71.0508 50.0436 74.3344 47.9703 76.9855 46.2517C77.0279 46.224 77.0755 46.2053 77.1254 46.1967C77.1753 46.1881 77.2264 46.1898 77.2756 46.2016C77.3248 46.2135 77.3711 46.2352 77.4116 46.2656C77.4522 46.2959 77.486 46.3342 77.5112 46.3782C77.6923 46.6956 77.4418 46.8741 77.0152 47.1717C76.7672 47.3478 76.3928 47.6057 75.9017 47.9331C75.4107 48.2605 74.8006 48.6771 74.064 49.1533C75.0908 48.6325 75.7256 48.4217 76.048 48.501C76.118 48.5168 76.1839 48.547 76.2416 48.5897C76.2992 48.6324 76.3474 48.6867 76.3828 48.749C76.5912 49.1086 76.544 49.245 74.0343 50.867C74.5625 50.6413 74.937 50.5594 75.1776 50.619C75.2523 50.635 75.3229 50.6665 75.3848 50.7113C75.4467 50.7561 75.4986 50.8134 75.5372 50.8793C75.8298 51.3753 75.6091 51.6085 68.8883 55.6782C66.9638 56.8438 64.5408 58.3094 62.5792 59.5742L75.7752 51.9582C75.8174 51.9331 75.8642 51.9169 75.9128 51.9105C75.9614 51.9042 76.0108 51.9077 76.058 51.921C76.1527 51.9462 76.2337 52.0077 76.2836 52.0921C76.4672 52.412 76.2068 52.603 75.7752 52.9204C75.5148 53.1114 75.1329 53.3817 74.6072 53.7437C73.6276 54.4233 72.266 55.3434 70.8252 56.3205C69.1462 57.4563 67.0332 58.8873 65.3022 60.0901C66.0983 59.5643 66.9266 59.0014 67.6632 58.5004C71.4997 55.8914 73.1192 54.8474 73.7516 54.9862C73.8178 55.0008 73.8804 55.0287 73.9354 55.0684C73.9905 55.1081 74.0368 55.1586 74.0715 55.2169C74.2872 55.5938 74.2972 55.6112 69.8976 58.798C73.0894 56.6751 74.1335 56.07 74.6096 56.1766C74.6709 56.1906 74.7287 56.2169 74.7795 56.254C74.8302 56.2911 74.8729 56.3382 74.9048 56.3924C75.0784 56.695 75.0784 56.695 72.8588 58.5078C72.1892 59.0534 71.2592 59.8123 70.4209 60.5142C71.1004 60.095 71.8494 59.6189 72.5612 59.1576C72.6036 59.13 72.6512 59.1113 72.7011 59.1027C72.751 59.0941 72.8021 59.0957 72.8513 59.1076C72.9005 59.1194 72.9468 59.1412 72.9873 59.1715C73.0278 59.2019 73.0617 59.2402 73.0869 59.2841C73.2258 59.5321 73.1737 59.5817 72.6653 60.1273C72.2512 60.5712 71.8965 60.9605 71.5964 61.2929C73.8483 59.9512 73.9301 59.9735 74.0888 60.0132C74.1371 60.0257 74.1823 60.0478 74.2219 60.078C74.2615 60.1082 74.2947 60.1461 74.3195 60.1893C74.3443 60.2315 74.3604 60.2783 74.367 60.3268C74.3735 60.3753 74.3704 60.4247 74.3577 60.472C74.345 60.5193 74.323 60.5636 74.293 60.6024C74.2631 60.6411 74.2257 60.6735 74.1831 60.6977C74.1472 60.7193 74.1077 60.7344 74.0665 60.7423C73.7367 60.8911 71.904 61.9699 70.2895 62.947C70.2351 62.9719 70.1757 62.9837 70.1159 62.9817V62.9817ZM73.6945 60.5439C73.7339 60.6104 73.7928 60.6632 73.8632 60.6952C73.7934 60.6623 73.7347 60.6097 73.6945 60.5439V60.5439ZM64.5384 56.757C62.3956 58.0937 60.2876 59.4329 58.9137 60.3877C60.4092 59.4973 62.5816 58.0639 64.5384 56.757V56.757ZM73.7615 50.1527C71.3286 51.5018 67.3928 54.0364 64.402 55.9683C65.5031 55.2813 66.758 54.5051 68.184 53.6272C70.1481 52.4194 72.2636 51.1199 73.7615 50.1527V50.1527ZM73.6028 51.8887C72.2809 52.593 70.2746 53.8727 68.3179 55.1499L68.5237 55.0259C70.3515 53.9149 72.3355 52.7121 73.6028 51.8837V51.8887ZM61.4086 46.3186C59.7718 47.3429 58.2838 48.3076 57.0438 49.1359C58.3284 48.315 59.8512 47.3305 61.4086 46.3186ZM79.0637 36.5648C78.3445 36.8128 76.8193 37.5072 73.5928 39.4441C70.3664 41.381 66.4678 43.9279 62.9958 46.1847C61.4805 47.1767 60.2058 47.9951 59.1295 48.6845C61.2176 47.3999 64.0225 45.721 67.7698 43.5038C72.3305 40.7982 77.4294 37.7825 79.0637 36.5648V36.5648ZM76.735 43.8411L76.2092 44.1759C74.4732 45.2787 72.829 46.3161 71.2765 47.2883C73.3473 46.0433 75.304 44.8257 76.735 43.8411ZM60.2876 42.1919C58.0135 43.5658 55.8038 44.9199 54.3356 45.845C55.0796 45.4655 55.9749 44.9571 56.9868 44.357C57.9812 43.6799 59.0948 42.9483 60.2876 42.1919ZM66.1107 35.6398C65.1584 36.2746 64.2209 36.9045 63.343 37.4923C61.607 38.6629 60.0644 39.6846 58.7277 40.5625L60.0942 39.7193C65.1162 36.6243 72.3677 32.1504 74.5005 30.5285C73.7117 30.881 72.947 31.2853 72.2115 31.7387C71.3633 32.3314 70.2845 33.0432 68.918 33.9062C68.0277 34.4642 67.0828 35.0445 66.1107 35.6348V35.6398Z" fill="white"/>
</g>
<path d="M64.8484 23.2323H64.6822C55.6897 23.3985 48.9119 30.278 48.9119 38.7422C48.9079 41.2699 49.5245 43.7599 50.7074 45.9937C51.2034 47.1717 52.4037 50.056 53.5916 53.7859C54.6928 57.2281 55.2681 60.6927 55.2681 61.2259C55.2681 61.2755 55.2681 61.3276 55.2681 61.3846C55.2631 61.5403 55.2895 61.6953 55.3455 61.8406C55.4016 61.9859 55.4862 62.1184 55.5945 62.2303C55.7027 62.3423 55.8324 62.4313 55.9757 62.4923C56.119 62.5532 56.273 62.5847 56.4288 62.5849H72.5339C72.6896 62.5847 72.8437 62.5532 72.987 62.4923C73.1303 62.4313 73.2599 62.3423 73.3682 62.2303C73.4764 62.1184 73.5611 61.9859 73.6171 61.8406C73.6732 61.6953 73.6995 61.5403 73.6945 61.3846C73.6945 61.3276 73.6945 61.2755 73.6945 61.2259C73.6945 60.7026 74.2699 57.2381 75.3685 53.7859C76.5589 50.0659 77.7468 47.1717 78.2528 45.9937C79.4896 43.6537 80.1072 41.0362 80.0468 38.3901C79.9865 35.744 79.2502 33.1574 77.9081 30.8761C76.5659 28.5949 74.6624 26.695 72.3787 25.3571C70.095 24.0192 67.507 23.2877 64.8608 23.2323H64.8484Z" stroke="#263238" stroke-width="0.496" stroke-linecap="round" stroke-linejoin="round"/>
<path d="M70.282 25.7223C69.8329 25.5206 69.3725 25.345 68.9031 25.1965" stroke="#263238" stroke-width="0.744" stroke-linecap="round" stroke-linejoin="round"/>
<path d="M75.4503 29.6604C75.4503 29.6604 74.1855 27.6516 71.4054 26.2852" stroke="#263238" stroke-width="0.744" stroke-linecap="round" stroke-linejoin="round"/>
<path d="M63.452 55.5516V47.5859C63.452 47.5859 64.0646 43.7072 62.0483 43.7072C60.0321 43.7072 60.1859 45.7259 62.5121 47.8959C64.8383 50.0659 68.4095 48.0521 68.8758 46.3459C69.342 44.6396 68.0995 43.8659 67.3233 45.2596C66.5471 46.6534 67.3233 62.4832 67.3233 62.4832" stroke="#263238" stroke-width="0.744" stroke-linecap="round" stroke-linejoin="round"/>
<path d="M59.1393 19.2024L59.9974 21.9031" stroke="#263238" stroke-width="0.744" stroke-linecap="round" stroke-linejoin="round"/>
<path d="M80.1648 25.0924L77.3401 27.3021" stroke="#263238" stroke-width="0.744" stroke-linecap="round" stroke-linejoin="round"/>
<path d="M69.6917 17.2307L68.6278 21.903" stroke="#263238" stroke-width="0.744" stroke-linecap="round" stroke-linejoin="round"/>
<path d="M72.9826 63.7456H55.9723C55.7545 63.7456 55.578 63.9221 55.578 64.1399V64.3358C55.578 64.5536 55.7545 64.7302 55.9723 64.7302H72.9826C73.2004 64.7302 73.377 64.5536 73.377 64.3358V64.1399C73.377 63.9221 73.2004 63.7456 72.9826 63.7456Z" fill="#263238" stroke="#263238" stroke-width="0.248" stroke-linecap="round" stroke-linejoin="round"/>
<path d="M72.9826 65.9626H55.9723C55.7545 65.9626 55.578 66.1392 55.578 66.357V66.5529C55.578 66.7707 55.7545 66.9472 55.9723 66.9472H72.9826C73.2004 66.9472 73.377 66.7707 73.377 66.5529V66.357C73.377 66.1392 73.2004 65.9626 72.9826 65.9626Z" fill="#263238" stroke="#263238" stroke-width="0.248" stroke-linecap="round" stroke-linejoin="round"/>
<path d="M72.9826 68.1798H55.9723C55.7545 68.1798 55.578 68.3564 55.578 68.5741V68.7701C55.578 68.9878 55.7545 69.1644 55.9723 69.1644H72.9826C73.2004 69.1644 73.377 68.9878 73.377 68.7701V68.5741C73.377 68.3564 73.2004 68.1798 72.9826 68.1798Z" fill="#263238" stroke="#263238" stroke-width="0.248" stroke-linecap="round" stroke-linejoin="round"/>
<path d="M83.7508 33.2642C83.7508 33.2642 82.1636 35.0002 80.8641 35.8633C79.5646 36.7263 78.6594 37.8745 79.8523 38.4623C80.569 38.8145 81.5883 38.3185 81.5883 38.3185C81.5883 38.3185 79.9986 38.75 79.7109 40.1958C79.4232 41.6417 82.5877 41.0564 82.5877 41.0564C82.5877 41.0564 80.2789 42.6436 81.0005 43.2214C81.7222 43.7993 83.1656 43.3653 83.8872 43.3653C84.6089 43.3653 88.2198 41.0564 89.0952 41.0564C89.9707 41.0564 91.6943 42.9337 91.6943 44.3771C91.6943 45.8205 93.9957 45.6766 94.2909 41.2002C94.586 36.7238 93.4253 32.9716 91.548 31.8159C89.6706 30.6602 83.7508 33.2642 83.7508 33.2642Z" fill="white" stroke="#263238" stroke-width="0.248" stroke-miterlimit="10" stroke-linecap="round"/>
<path d="M82.8854 38.1673L88.6464 36.0146C88.6464 36.0146 91.176 35.4666 92.9914 38.4574" stroke="#263238" stroke-width="0.248" stroke-miterlimit="10" stroke-linecap="round"/>
<path d="M83.8949 39.9008L89.1029 39.0352C89.1029 39.0352 91.4143 38.8914 92.8576 41.6343" stroke="#263238" stroke-width="0.248" stroke-miterlimit="10" stroke-linecap="round"/>
<path d="M90.2486 43.3653L86.35 44.2333L88.6589 53.4713C88.6589 53.4713 90.6826 57.5137 91.2579 59.2472C91.8333 60.9807 97.7556 66.7443 97.7556 66.7443L104.685 60.1028C104.685 60.1028 101.51 56.3506 101.366 55.4826C101.223 54.6146 100.642 44.5111 100.642 43.0677C100.642 41.6243 97.7556 38.1573 97.7556 38.1573C97.7556 38.1573 96.5701 36.4585 95.9923 33.5718C95.4144 30.6851 92.7683 29.4971 91.3199 29.641C89.8716 29.7848 85.916 30.2188 84.3288 31.377C82.7416 32.5351 81.2958 33.976 82.7416 34.41C85.1398 35.1292 89.0631 31.93 90.9554 34.1422C91.8234 35.1515 92.8476 39.5982 92.9915 40.186C92.9915 40.186 92.2698 42.9288 90.2486 43.3603" fill="white"/>
<path d="M90.2486 43.3653L86.35 44.2333L88.6589 53.4713C88.6589 53.4713 90.6826 57.5137 91.2579 59.2472C91.8333 60.9807 97.7556 66.7443 97.7556 66.7443L104.685 60.1028C104.685 60.1028 101.51 56.3506 101.366 55.4826C101.223 54.6146 100.642 44.5111 100.642 43.0677C100.642 41.6243 97.7556 38.1573 97.7556 38.1573C97.7556 38.1573 96.5701 36.4585 95.9923 33.5718C95.4144 30.6851 92.7683 29.4971 91.3199 29.641C89.8716 29.7848 85.916 30.2188 84.3288 31.377C82.7416 32.5351 81.2958 33.976 82.7416 34.41C85.1398 35.1292 89.0631 31.93 90.9554 34.1422C91.8234 35.1515 92.8476 39.5982 92.9915 40.186C92.9915 40.186 92.2698 42.9288 90.2486 43.3603" stroke="#263238" stroke-width="0.248" stroke-miterlimit="10" stroke-linecap="round"/>
<path d="M75.7108 29.9459C75.755 29.8996 75.8143 29.8706 75.878 29.8642C75.9417 29.8579 76.0055 29.8745 76.058 29.9112L76.6482 30.3204C76.7065 30.3614 76.7462 30.4237 76.7587 30.4938C76.7713 30.564 76.7556 30.6362 76.7152 30.6949C76.6747 30.7529 76.6127 30.7926 76.543 30.8052C76.4733 30.8177 76.4015 30.8021 76.3432 30.7618L75.753 30.3501C75.6949 30.3096 75.6552 30.2477 75.6427 30.178C75.6301 30.1083 75.6457 30.0364 75.686 29.9781C75.6929 29.9664 75.7012 29.9555 75.7108 29.9459Z" fill="#263238" stroke="#263238" stroke-width="0.248" stroke-miterlimit="10" stroke-linecap="round"/>
<path d="M76.3878 30.4221C76.4879 30.315 76.6234 30.2477 76.7692 30.2327C76.9151 30.2177 77.0615 30.2559 77.1814 30.3403L79.0314 31.2926L97.195 43.2412C97.3498 43.3489 97.482 43.486 97.5838 43.6447C97.6857 43.8034 97.7553 43.9806 97.7887 44.1662C97.8221 44.3518 97.8186 44.5422 97.7785 44.7264C97.7383 44.9107 97.6622 45.0853 97.5546 45.2401C97.4469 45.395 97.3098 45.5271 97.1511 45.629C96.9924 45.7309 96.8152 45.8005 96.6296 45.8339C96.444 45.8673 96.2536 45.8638 96.0693 45.8236C95.8851 45.7834 95.7105 45.7074 95.5557 45.5997L77.9278 32.5946L76.487 31.3546C76.4208 31.3087 76.3643 31.2502 76.3208 31.1825C76.2773 31.1148 76.2475 31.0391 76.2332 30.9599C76.2189 30.8807 76.2204 30.7994 76.2376 30.7207C76.2547 30.6421 76.2872 30.5676 76.3332 30.5015C76.3488 30.4733 76.367 30.4467 76.3878 30.4221V30.4221Z" fill="#037BE2" stroke="#263238" stroke-width="0.248" stroke-miterlimit="10" stroke-linecap="round"/>
<path d="M97.1976 43.2413L91.9549 39.7941C91.5503 39.9113 91.1936 40.1543 90.9364 40.4878C90.6791 40.8213 90.5346 41.228 90.5239 41.6491C90.5243 41.7322 90.5309 41.8151 90.5438 41.8971L95.5583 45.5973C95.8711 45.8147 96.2574 45.8989 96.6322 45.8315C97.0071 45.764 97.3398 45.5504 97.5572 45.2377C97.7746 44.9249 97.8588 44.5386 97.7914 44.1638C97.724 43.7889 97.5104 43.4562 97.1976 43.2388V43.2413Z" fill="#263238" stroke="#263238" stroke-width="0.248" stroke-miterlimit="10" stroke-linecap="round"/>
<path d="M91.2678 59.2473C89.6806 56.9384 87.6594 51.0186 86.8038 49.8629C85.9482 48.7073 83.6145 46.1429 82.749 43.5538C81.8835 40.9647 81.3156 38.8914 81.3156 36.7239C81.3156 34.5564 83.178 34.1844 84.6214 36.4957C86.0648 38.8071 87.7958 42.356 87.7958 42.356C87.7958 42.356 88.9515 43.7993 91.2678 43.3653" fill="white"/>
<path d="M91.2678 59.2473C89.6806 56.9384 87.6594 51.0186 86.8038 49.8629C85.9482 48.7073 83.6145 46.1429 82.749 43.5538C81.8835 40.9647 81.3156 38.8914 81.3156 36.7239C81.3156 34.5564 83.178 34.1844 84.6214 36.4957C86.0648 38.8071 87.7958 42.356 87.7958 42.356C87.7958 42.356 88.9515 43.7993 91.2678 43.3653" stroke="#263238" stroke-width="0.248" stroke-miterlimit="10" stroke-linecap="round"/>
<path d="M83.1062 35.8211L83.6022 36.7858C83.6022 36.7858 83.493 36.7858 82.7218 37.2248C82.2615 37.4872 81.875 37.8617 81.5983 38.3135C81.5983 38.3135 80.8543 36.2353 81.5115 35.5855C81.6711 35.4169 81.8822 35.3061 82.1117 35.2705C82.3139 35.2493 82.5177 35.2908 82.6956 35.3893C82.8735 35.4877 83.0168 35.6385 83.1062 35.8211Z" fill="white" stroke="#263238" stroke-width="0.248" stroke-miterlimit="10" stroke-linecap="round"/>
<path d="M103.172 57.1615C103.172 57.1615 99.3502 58.2924 97.3662 60.2764C96.0523 61.6153 94.8223 63.0341 93.6833 64.5246L97.2248 68.6315C97.2248 68.6315 100.201 65.2314 102.185 63.6715C103.536 62.6337 104.955 61.6876 106.433 60.8393L103.172 57.1615Z" fill="white" stroke="#263238" stroke-width="0.248" stroke-miterlimit="10" stroke-linecap="round"/>
<path d="M106.721 87.0405L95.5334 69.0556C95.5334 69.0556 98.3656 64.8073 100.774 62.6845C103.182 60.5616 106.297 59.9937 106.297 59.9937L120.284 73.4179" fill="#263238"/>
<path d="M106.721 87.0405L95.5334 69.0556C95.5334 69.0556 98.3656 64.8073 100.774 62.6845C103.182 60.5616 106.297 59.9937 106.297 59.9937L120.284 73.4179" stroke="#263238" stroke-width="0.248" stroke-miterlimit="10" stroke-linecap="round"/>
<path d="M85.1671 41.0737L85.4151 41.049" stroke="#263238" stroke-width="0.248" stroke-miterlimit="10" stroke-linecap="round"/>
<path d="M83.007 42.2741C83.007 42.2741 83.1384 41.483 84.7281 41.1506" stroke="#263238" stroke-width="0.248" stroke-miterlimit="10" stroke-linecap="round"/>
<path d="M84.7331 41.7161C84.7331 41.7161 84.6215 42.0509 83.5079 42.4973" stroke="#263238" stroke-width="0.248" stroke-miterlimit="10" stroke-linecap="round"/>
<path d="M84.6884 40.6571C84.1312 40.7446 83.6016 40.9593 83.1409 41.2845" stroke="#263238" stroke-width="0.248" stroke-miterlimit="10" stroke-linecap="round"/>
<path d="M49.7925 15.9909C49.7925 15.9909 52.1336 16.1818 53.6166 16.6754C55.0997 17.1689 56.5579 17.1714 56.2876 15.8768C56.1264 15.0956 55.1096 14.5971 55.1096 14.5971C55.1096 14.5971 56.4265 15.5891 57.7434 14.927C59.0602 14.2648 56.6546 12.1171 56.6546 12.1171C56.6546 12.1171 59.3281 12.9653 59.3405 12.0402C59.3529 11.1152 58.1253 10.2422 57.6814 9.67185C57.2374 9.10145 53.2 7.67049 52.6668 6.98849C52.1336 6.30649 52.5527 3.78433 53.6935 2.89649C54.8343 2.00865 53.3017 0.280088 49.604 2.79481C45.9063 5.30953 43.652 8.53105 43.8777 10.7308C44.1034 12.9306 49.7925 15.9909 49.7925 15.9909Z" fill="white" stroke="#263238" stroke-width="0.248" stroke-miterlimit="10" stroke-linecap="round"/>
<path d="M54.1994 13.6721L48.9616 10.4481C48.9616 10.4481 46.9776 8.78903 48.2176 5.52039" stroke="#263238" stroke-width="0.248" stroke-miterlimit="10" stroke-linecap="round"/>
<path d="M54.946 11.7997L51.0722 8.22853C51.0722 8.22853 49.5396 6.49253 50.8242 3.67029" stroke="#263238" stroke-width="0.248" stroke-miterlimit="10" stroke-linecap="round"/>
<path d="M53.7828 4.65735L56.858 7.20431L62.748 -0.292733C62.748 -0.292733 66.5424 -1.99649 67.5418 -3.51673C68.5413 -5.03697 69.3919 -13.2706 69.3919 -13.2706L59.8712 -14.5999C59.8712 -14.5999 58.9015 -9.77873 58.3113 -9.12649C57.721 -8.47425 48.3119 -4.25825 47.1736 -3.37041C46.0353 -2.48257 45.0706 1.92191 45.0706 1.92191C44.563 3.71264 43.8991 5.45533 43.0866 7.1299C40.9166 11.5245 41.3034 11.1872 42.3029 12.2387C43.3023 13.2902 45.7352 15.428 47.6225 15.9736C49.5098 16.5192 51.8558 18.4685 51.3301 16.0852C50.7894 13.6424 45.4922 12.6132 46.075 9.76615C46.3403 8.46167 49.2295 4.91775 49.5966 4.44903C49.5966 4.44903 52.203 3.33551 53.7878 4.66479" fill="white"/>
<path d="M53.7828 4.65735L56.858 7.20431L62.748 -0.292733C62.748 -0.292733 66.5424 -1.99649 67.5418 -3.51673C68.5413 -5.03697 69.3919 -13.2706 69.3919 -13.2706L59.8712 -14.5999C59.8712 -14.5999 58.9015 -9.77873 58.3113 -9.12649C57.721 -8.47425 48.3119 -4.25825 47.1736 -3.37041C46.0353 -2.48257 45.0706 1.92191 45.0706 1.92191C44.563 3.71264 43.8991 5.45533 43.0866 7.1299C40.9166 11.5245 41.3034 11.1872 42.3029 12.2387C43.3023 13.2902 45.7352 15.428 47.6225 15.9736C49.5098 16.5192 51.8558 18.4685 51.3301 16.0852C50.7894 13.6424 45.4922 12.6132 46.075 9.76615C46.3403 8.46167 49.2295 4.91775 49.5966 4.44903C49.5966 4.44903 52.203 3.33551 53.7878 4.66479" stroke="#263238" stroke-width="0.248" stroke-miterlimit="10" stroke-linecap="round"/>
<path d="M52.1138 24.3733C52.0495 24.3687 51.9891 24.3411 51.9435 24.2955C51.898 24.25 51.8704 24.1896 51.8658 24.1253L51.8286 23.4061C51.8236 23.3695 51.8263 23.3323 51.8365 23.2967C51.8466 23.2612 51.864 23.2282 51.8875 23.1997C51.911 23.1712 51.9402 23.1479 51.9732 23.1312C52.0061 23.1146 52.0422 23.1049 52.0791 23.1028C52.116 23.1008 52.1529 23.1064 52.1875 23.1193C52.2221 23.1322 52.2537 23.1521 52.2803 23.1778C52.3068 23.2035 52.3278 23.2344 52.3418 23.2685C52.3558 23.3027 52.3626 23.3394 52.3618 23.3764L52.4015 24.0956C52.4056 24.1658 52.3818 24.2349 52.3354 24.2878C52.289 24.3407 52.2237 24.3732 52.1535 24.3783L52.1138 24.3733Z" fill="#263238" stroke="#263238" stroke-width="0.248" stroke-miterlimit="10" stroke-linecap="round"/>
<path d="M52.0841 23.5426C51.938 23.5296 51.8016 23.4642 51.6999 23.3584C51.5983 23.2527 51.5383 23.1137 51.5311 22.9672L51.1492 20.9212L49.4305 -0.751518C49.4101 -1.13202 49.5417 -1.50503 49.7964 -1.78851C50.051 -2.07198 50.4078 -2.24269 50.7883 -2.26308C51.1688 -2.28347 51.5418 -2.15187 51.8253 -1.89723C52.1088 -1.64259 52.2795 -1.28578 52.2999 -0.905277L52.8554 20.9956L52.7512 22.9027C52.7556 22.9829 52.7441 23.0631 52.7174 23.1388C52.6907 23.2145 52.6493 23.2841 52.5956 23.3438C52.5419 23.4035 52.477 23.452 52.4046 23.4865C52.3321 23.521 52.2536 23.5409 52.1734 23.545C52.1436 23.5467 52.1138 23.5459 52.0841 23.5426V23.5426Z" fill="#037BE2" stroke="#263238" stroke-width="0.248" stroke-miterlimit="10" stroke-linecap="round"/>
<path d="M49.418 -0.751673L49.914 5.50289C50.254 5.75176 50.6644 5.88591 51.0858 5.88591C51.5071 5.88591 51.9175 5.75176 52.2576 5.50289C52.3235 5.45124 52.3857 5.39488 52.4436 5.33425L52.2873 -0.895511C52.2669 -1.27601 52.0962 -1.63283 51.8127 -1.88747C51.5293 -2.1421 51.1563 -2.2737 50.7758 -2.25331C50.3953 -2.23292 50.0384 -2.06221 49.7838 -1.77874C49.5292 -1.49527 49.3976 -1.12225 49.418 -0.741752V-0.751673Z" fill="#263238" stroke="#263238" stroke-width="0.248" stroke-miterlimit="10" stroke-linecap="round"/>
<path d="M67.5295 -3.52673C66.716 -0.845853 63.125 2.83943 62.5 4.13895C61.0987 7.08331 59.4771 9.91773 57.6492 12.6181C57.0316 13.5431 56.3645 13.6745 55.9578 14.0069C55.3626 14.5029 55.0576 15.0113 54.0408 15.7999C52.332 17.1292 50.8936 15.8917 51.8311 13.3348C52.7685 10.7779 54.4896 7.22407 54.4896 7.22407C54.4896 7.22407 54.9212 5.42607 53.1628 3.86863" fill="white"/>
<path d="M67.5295 -3.52673C66.716 -0.845853 63.125 2.83943 62.5 4.13895C61.0987 7.08331 59.4771 9.91773 57.6492 12.6181C57.0316 13.5431 56.3645 13.6745 55.9578 14.0069C55.3626 14.5029 55.0576 15.0113 54.0408 15.7999C52.332 17.1292 50.8936 15.8917 51.8311 13.3348C52.7685 10.7779 54.4896 7.22407 54.4896 7.22407C54.4896 7.22407 54.9212 5.42607 53.1628 3.86863" stroke="#263238" stroke-width="0.248" stroke-miterlimit="10" stroke-linecap="round"/>
<path d="M52.2081 14.927L52.6743 13.9548C52.6743 13.9548 52.7413 14.0416 53.5622 14.3789C54.0513 14.581 54.5837 14.6561 55.1097 14.5972C55.1097 14.5972 53.9267 16.4621 53.0017 16.3456C52.7711 16.3237 52.5545 16.225 52.3866 16.0653C52.2421 15.9178 52.1471 15.7288 52.1151 15.5247C52.0831 15.3207 52.1156 15.1117 52.2081 14.927Z" fill="white" stroke="#263238" stroke-width="0.248" stroke-miterlimit="10" stroke-linecap="round"/>
<path d="M54.3681 11.765L54.2019 11.5963" stroke="#263238" stroke-width="0.248" stroke-miterlimit="10" stroke-linecap="round"/>
<path d="M56.6397 12.7346C56.6397 12.7346 55.9354 13.1165 54.6979 12.0675" stroke="#263238" stroke-width="0.248" stroke-miterlimit="10" stroke-linecap="round"/>
<path d="M55.1394 11.7128C55.1394 11.7128 55.4717 11.5963 56.5084 12.2088" stroke="#263238" stroke-width="0.248" stroke-miterlimit="10" stroke-linecap="round"/>
<path d="M54.3335 12.4023C54.7445 12.7869 55.2383 13.072 55.7769 13.2356" stroke="#263238" stroke-width="0.248" stroke-miterlimit="10" stroke-linecap="round"/>
<path d="M55.0449 54.1382C55.0449 54.1382 55.2706 56.4769 55.7889 57.9525C56.3072 59.4281 56.337 60.8863 55.03 60.6358C54.2463 60.4845 53.733 59.4777 53.733 59.4777C53.733 59.4777 54.7423 60.7797 54.1025 62.104C53.4626 63.4283 51.2753 61.0574 51.2753 61.0574C51.2753 61.0574 52.1631 63.716 51.2406 63.7433C50.318 63.7705 49.4227 62.5553 48.8474 62.1213C48.272 61.6873 46.779 57.6573 46.0871 57.1465C45.3952 56.6356 42.883 57.0795 42.015 58.2327C41.147 59.3859 39.3862 57.8805 41.8513 54.1333C44.3164 50.386 47.4982 48.0821 49.6906 48.2904C51.8829 48.4987 55.0449 54.1382 55.0449 54.1382Z" fill="white" stroke="#263238" stroke-width="0.248" stroke-miterlimit="10" stroke-linecap="round"/>
<path d="M52.7807 58.5799L49.4774 53.3892C49.4774 53.3892 47.7885 51.4276 44.5372 52.7246" stroke="#263238" stroke-width="0.248" stroke-miterlimit="10" stroke-linecap="round"/>
<path d="M50.9307 59.3537L47.3024 55.532C47.3024 55.532 45.5441 54.0266 42.7417 55.3485" stroke="#263238" stroke-width="0.248" stroke-miterlimit="10" stroke-linecap="round"/>
<path d="M43.7734 58.2946L46.3626 61.3351L38.9548 67.3218C38.9548 67.3218 34.9074 69.3306 33.4046 70.3673C31.9017 71.4039 23.6954 72.448 23.6954 72.448L22.1627 62.9744C22.1627 62.9744 26.959 61.8906 27.5939 61.2855C28.2288 60.6804 34.7859 52.9602 35.6465 51.807C36.507 50.6538 40.909 49.6246 40.909 49.6246C40.909 49.6246 42.8782 48.9822 45.0779 47.0255C47.2777 45.0688 50.1074 45.7161 51.1738 46.7006C52.2402 47.6852 55.1418 50.4206 55.7146 52.2906C56.2875 54.1605 56.5702 56.1916 55.1566 55.6683C52.8081 54.7978 51.6003 49.885 48.7582 50.5074C47.4587 50.7926 43.957 53.7314 43.4957 54.1084C43.4957 54.1084 42.4194 56.7322 43.7734 58.2946" fill="white"/>
<path d="M43.7734 58.2946L46.3626 61.3351L38.9548 67.3218C38.9548 67.3218 34.9074 69.3306 33.4046 70.3673C31.9017 71.4039 23.6954 72.448 23.6954 72.448L22.1627 62.9744C22.1627 62.9744 26.959 61.8906 27.5939 61.2855C28.2288 60.6804 34.7859 52.9602 35.6465 51.807C36.507 50.6538 40.909 49.6246 40.909 49.6246C40.909 49.6246 42.8782 48.9822 45.0779 47.0255C47.2777 45.0688 50.1074 45.7161 51.1738 46.7006C52.2402 47.6852 55.1418 50.4206 55.7146 52.2906C56.2875 54.1605 56.5702 56.1916 55.1566 55.6683C52.8081 54.7978 51.6003 49.885 48.7582 50.5074C47.4587 50.7926 43.957 53.7314 43.4957 54.1084C43.4957 54.1084 42.4194 56.7322 43.7734 58.2946" stroke="#263238" stroke-width="0.248" stroke-miterlimit="10" stroke-linecap="round"/>
<path d="M63.4596 56.3281C63.455 56.2638 63.4274 56.2034 63.3819 56.1578C63.3363 56.1123 63.2759 56.0847 63.2116 56.0801L62.4924 56.0528C62.4572 56.0515 62.4222 56.0571 62.3892 56.0694C62.3562 56.0816 62.3259 56.1003 62.3001 56.1242C62.2743 56.1482 62.2535 56.177 62.2388 56.209C62.2242 56.241 62.216 56.2755 62.2147 56.3107C62.2134 56.3459 62.219 56.381 62.2313 56.414C62.2435 56.447 62.2621 56.4772 62.2861 56.503C62.31 56.5288 62.3388 56.5496 62.3708 56.5643C62.4028 56.579 62.4374 56.5872 62.4726 56.5885L63.1918 56.6158C63.261 56.6179 63.3285 56.5934 63.3802 56.5472C63.4319 56.5011 63.4639 56.4368 63.4695 56.3678C63.4677 56.3542 63.4644 56.3409 63.4596 56.3281V56.3281Z" fill="#263238" stroke="#263238" stroke-width="0.248" stroke-miterlimit="10" stroke-linecap="round"/>
<path d="M62.6312 56.3057C62.6153 56.1597 62.5474 56.0243 62.44 55.9241C62.3325 55.824 62.1927 55.7658 62.0459 55.7601L59.995 55.4079L38.2999 54.0117C38.1114 54.0044 37.9232 54.0343 37.7462 54.0997C37.5692 54.165 37.4068 54.2647 37.2682 54.3928C37.1297 54.521 37.0178 54.6752 36.9389 54.8466C36.8599 55.018 36.8155 55.2033 36.8082 55.3918C36.8009 55.5804 36.8308 55.7686 36.8962 55.9456C36.9616 56.1226 37.0612 56.285 37.1893 56.4235C37.3175 56.562 37.4717 56.674 37.6431 56.7529C37.8145 56.8318 37.9998 56.8762 38.1883 56.8835L60.0942 57.1117L61.9988 56.9827C62.1609 56.9888 62.3187 56.9303 62.4378 56.8201C62.5568 56.7099 62.6272 56.557 62.6337 56.395C62.6353 56.3652 62.6345 56.3353 62.6312 56.3057Z" fill="#037BE2" stroke="#263238" stroke-width="0.248" stroke-miterlimit="10" stroke-linecap="round"/>
<path d="M38.3001 54.0117L44.5596 54.4159C44.8124 54.7531 44.9514 55.1619 44.9563 55.5833C44.9612 56.0046 44.8318 56.4166 44.5869 56.7595C44.5348 56.8252 44.4793 56.8881 44.4207 56.948L38.1959 56.8835C38.0073 56.8762 37.8221 56.8318 37.6506 56.7529C37.4792 56.674 37.3251 56.562 37.1969 56.4235C37.0687 56.285 36.9691 56.1226 36.9037 55.9456C36.8383 55.7686 36.8085 55.5804 36.8158 55.3918C36.8231 55.2033 36.8675 55.018 36.9464 54.8466C37.0254 54.6752 37.1373 54.521 37.2758 54.3928C37.4143 54.2647 37.5767 54.165 37.7538 54.0997C37.9308 54.0343 38.1189 54.0044 38.3075 54.0117H38.3001Z" fill="#263238" stroke="#263238" stroke-width="0.248" stroke-miterlimit="10" stroke-linecap="round"/>
<path d="M33.4044 70.3674C36.063 69.4795 41.2412 65.9704 42.6275 65.5686C44.0139 65.1668 47.4065 64.527 49.6633 62.9745C51.9201 61.422 53.6139 60.1126 54.9184 58.3815C56.2229 56.6505 54.9631 55.2344 52.4186 56.2091C49.8741 57.1837 46.3401 58.9668 46.3401 58.9668C46.3401 58.9668 44.5495 59.4232 42.9648 57.6872" fill="white"/>
<path d="M33.4044 70.3674C36.063 69.4795 41.2412 65.9704 42.6275 65.5686C44.0139 65.1668 47.4065 64.527 49.6633 62.9745C51.9201 61.422 53.6139 60.1126 54.9184 58.3815C56.2229 56.6505 54.9631 55.2344 52.4186 56.2091C49.8741 57.1837 46.3401 58.9668 46.3401 58.9668C46.3401 58.9668 44.5495 59.4232 42.9648 57.6872" stroke="#263238" stroke-width="0.248" stroke-miterlimit="10" stroke-linecap="round"/>
<path d="M54.0182 56.5761L53.051 57.0547C53.051 57.0547 53.1403 57.1217 53.49 57.9351C53.702 58.4217 53.7874 58.9541 53.738 59.4826C53.738 59.4826 55.5856 58.2724 55.4541 57.3474C55.4287 57.1169 55.3276 56.9015 55.1665 56.7348C55.0159 56.5913 54.824 56.4988 54.6179 56.4703C54.4119 56.4418 54.2021 56.4788 54.0182 56.5761Z" fill="white" stroke="#263238" stroke-width="0.248" stroke-miterlimit="10" stroke-linecap="round"/>
<path d="M27.0805 60.9335C27.0805 60.9335 29.4514 64.1401 29.8407 66.9177C30.0837 68.7771 30.2113 70.6498 30.2226 72.525L22.9835 74.261C22.9835 74.261 22.6562 69.7573 22.0114 67.317C21.5573 65.675 20.9939 64.0652 20.325 62.4984L27.0805 60.9335Z" fill="white" stroke="#263238" stroke-width="0.248" stroke-miterlimit="10" stroke-linecap="round"/>
<path d="M27.4103 66.5283C26.7655 63.3837 24.6203 61.0549 24.6203 61.0549L7.49097 63.7829V83.1269L27.7575 74.7669C27.7575 74.7669 28.0526 69.6729 27.4103 66.5283Z" fill="#263238" stroke="#263238" stroke-width="0.248" stroke-miterlimit="10" stroke-linecap="round"/>
<path d="M49.207 59.5248L49.0383 59.3611" stroke="#263238" stroke-width="0.248" stroke-miterlimit="10" stroke-linecap="round"/>
<path d="M50.2115 61.784C50.2115 61.784 50.5835 61.0722 49.5146 59.8496" stroke="#263238" stroke-width="0.248" stroke-miterlimit="10" stroke-linecap="round"/>
<path d="M49.1698 60.296C49.1698 60.296 49.0557 60.6308 49.6782 61.6575" stroke="#263238" stroke-width="0.248" stroke-miterlimit="10" stroke-linecap="round"/>
<path d="M49.8519 59.4801C50.2437 59.8856 50.5365 60.3762 50.7075 60.9135" stroke="#263238" stroke-width="0.248" stroke-miterlimit="10" stroke-linecap="round"/>
</svg>
