<svg fill="none" height="24" viewBox="0 0 24 24" width="24" xmlns="http://www.w3.org/2000/svg"><path d="m7.68 18 4.32-4.32 4.32 4.32 1.68-1.68-4.32-4.32 4.32-4.32-1.68-1.68-4.32 4.32-4.32-4.32-1.68 1.68 4.32 4.32-4.32 4.32zm4.32 6c-1.66 0-3.22-.3152-4.68-.9456s-2.73-1.4852-3.81-2.5644c-1.08-1.08-1.9348-2.35-2.5644-3.81s-.9448-3.02-.9456-4.68c0-1.66.3152-3.22.9456-4.68s1.4852-2.73 2.5644-3.81c1.08-1.08 2.35-1.9348 3.81-2.5644s3.02-.9448 4.68-.9456c1.66 0 3.22.3152 4.68.9456s2.73 1.4852 3.81 2.5644c1.08 1.08 1.9352 2.35 2.5656 3.81s.9452 3.02.9444 4.68c0 1.66-.3152 3.22-.9456 4.68s-1.4852 2.73-2.5644 3.81c-1.08 1.08-2.35 1.9352-3.81 2.5656s-3.02.9452-4.68.9444z" fill="#a83732"/></svg>