<svg fill="none" height="24" viewBox="0 0 24 24" width="24" xmlns="http://www.w3.org/2000/svg"><g fill="#fff"><path d="m8.54984 16.5198 3.00996-3.01c.11-.11.24-.13.31-.13s.2.02.31.13l3.02 3.02c.34.34.87.89 2.64.89l-3.71 3.7c-.5625.5618-1.325.8774-2.12.8774s-1.5575-.3156-2.11996-.8774l-3.72-3.71c.91 0 1.67-.18 2.38-.89zm6.64996-9.05-3.02 3.02c-.08.08-.2.13-.31.13s-.23-.05-.31-.13l-2.98996-2.99c-.71-.74-1.52-.91-2.43-.91l3.72-3.71c.56246-.5618 1.32496-.87736 2.11996-.87736s1.5575.31556 2.12.87736l3.71 3.7c-1.76 0-2.3.58-2.61.89z"/><path d="m2.88995 9.85031 2.25-2.26h1.26c.54 0 1.08.22 1.45.61l3.00005 2.99999c.28.28.65.42 1.02.42.381-.0054.7456-.1555 1.02-.42l3.02-3.02999c.38-.38.9-.6 1.45-.6h1.47l2.29 2.3c.5618.56249.8773 1.32499.8773 2.11999s-.3155 1.5575-.8773 2.12l-2.29 2.3h-1.48c-.54 0-1.06-.22-1.45-.6l-3.02-3.02c-.28-.28-.65-.42-1.02-.42s-.74.14-1.02.42l-3.01005 3.01c-.38.38-.9.6-1.45.6h-1.25999l-2.25-2.26c-.56417-.5726-.87875-1.3453-.875-2.1491.00375-.8039.32552-1.5735.89499-2.14089z"/></g></svg>