<svg fill="none" height="24" viewBox="0 0 24 24" width="24" xmlns="http://www.w3.org/2000/svg"><path d="m8 16.5v.5c1.691-2.578 3.6-3.953 6-4v3c0 .551.511 1 1.143 1 .364 0 .675-.158.883-.391 1.933-2.029 5.974-6.109 5.974-6.109s-4.041-4.082-5.975-6.137c-.2352-.23172-.5518-.36203-.882-.363-.632 0-1.143.447-1.143 1v3c-4.66 0-6 4.871-6 8.5zm-3 4.5h14c.2652 0 .5196-.1054.7071-.2929s.2929-.4419.2929-.7071v-6.046c-.664.676-1.364 1.393-2 2.047v2.999h-12v-12h7v-2h-8c-.26522 0-.51957.10536-.70711.29289-.18753.18754-.29289.44189-.29289.70711v14c0 .2652.10536.5196.29289.7071.18754.1875.44189.2929.70711.2929z" fill="#fff"/></svg>