<svg fill="none" height="20" viewBox="0 0 20 20" width="20" xmlns="http://www.w3.org/2000/svg"><path d="m8.6 11.8-2.175-2.175c-.18333-.18333-.40833-.275-.675-.275s-.5.1-.7.3c-.18333.18333-.275.4167-.275.7s.09167.5167.275.7l2.85 2.85c.18333.1833.41667.275.7.275s.51667-.0917.7-.275l5.675-5.675c.1833-.18333.275-.40833.275-.675s-.1-.5-.3-.7c-.1833-.18333-.4167-.275-.7-.275s-.5167.09167-.7.275zm1.4 8.2c-1.38333 0-2.68333-.2627-3.9-.788s-2.275-1.2377-3.175-2.137c-.9-.9-1.61233-1.9583-2.137-3.175-.524667-1.2167-.78733333-2.5167-.788-3.9 0-1.38333.262667-2.68333.788-3.9.52533-1.21667 1.23767-2.275 2.137-3.175.9-.9 1.95833-1.61233 3.175-2.137 1.21667-.524667 2.51667-.78733333 3.9-.788 1.3833 0 2.6833.262667 3.9.788 1.2167.52533 2.275 1.23767 3.175 2.137.9.9 1.6127 1.95833 2.138 3.175s.7877 2.51667.787 3.9c0 1.3833-.2627 2.6833-.788 3.9s-1.2377 2.275-2.137 3.175c-.9.9-1.9583 1.6127-3.175 2.138s-2.5167.7877-3.9.787z" fill="#51a850"/></svg>