<svg viewBox="0 0 43.59 40.14" xmlns="http://www.w3.org/2000/svg"><path d="m21.46 1c-11.63 0-20.46 7.74-20.46 17.28a12.83 12.83 0 0 0 5.41 11 15.59 15.59 0 0 1 -.41 8.12 1.35 1.35 0 0 0 1.74 1.66l10.59-3.75a23.26 23.26 0 0 0 3.26.25c11.63 0 21-7.74 21-17.28s-9.5-17.28-21.13-17.28z" fill="none" stroke="#000" stroke-linecap="round" stroke-linejoin="round" stroke-width="2"/><path d="m18.15 35.31a23.69 23.69 0 0 1 -6.8-2.44" fill="none" stroke="#000" stroke-linecap="round" stroke-linejoin="round" stroke-width="2"/><circle cx="12.84" cy="18.87" r="2.37"/><circle cx="22.12" cy="18.87" r="2.37"/><circle cx="31.4" cy="18.87" r="2.37"/></svg>