<svg fill="none" height="32" viewBox="0 0 33 32" width="33" xmlns="http://www.w3.org/2000/svg"><path d="m23.4167 29.3335c-1.8445 0-3.4169-.6502-4.7174-1.9507-1.3004-1.3004-1.9502-2.8724-1.9493-4.716 0-1.8444.6502-3.4169 1.9507-4.7173 1.3004-1.3004 2.8724-1.9502 4.716-1.9493 1.8444 0 3.4169.6502 4.7173 1.9506 1.3004 1.3005 1.9502 2.8725 1.9493 4.716 0 1.8445-.6502 3.4169-1.9506 4.7174-1.3005 1.3004-2.8725 1.9502-4.716 1.9493zm2.2333-3.5.9333-.9333-2.5-2.5v-3.7334h-1.3333v4.2667zm-18.23333 2.1667c-.73333 0-1.36133-.2614-1.884-.784-.52267-.5227-.78356-1.1503-.78267-1.8827v-18.66667c0-.73333.26134-1.36133.784-1.884.52267-.52267 1.15022-.78355 1.88267-.78267h5.56663c.2445-.77777.7223-1.41688 1.4334-1.91733.7111-.50044 1.4889-.75022 2.3333-.74933.8889 0 1.6836.25022 2.384.75067.7004.50044 1.1724 1.13911 1.416 1.91599h5.5333c.7334 0 1.3614.26134 1.884.784.5227.52267.7836 1.15023.7827 1.88267v8.33337c-.4-.2889-.8222-.5334-1.2667-.7334-.4444-.2-.9111-.3777-1.4-.5333v-7.06667h-2.6666v3.99997h-13.3334v-3.99997h-2.66663v18.66667h7.06663c.1556.4889.3334.9556.5334 1.4s.4444.8667.7333 1.2667zm9.33333-21.33337c.3778 0 .6947-.128.9507-.384s.3835-.57244.3826-.94933c0-.37778-.128-.69467-.384-.95067s-.5724-.38355-.9493-.38267c-.3778 0-.6947.12801-.9507.38401-.256.25599-.3835.57244-.3826.94933 0 .37778.128.69466.384.95066s.5724.38356.9493.38267z" fill="#037be2"/></svg>