<svg width="16" height="16" viewBox="0 0 16 16" fill="none" xmlns="http://www.w3.org/2000/svg">
<path d="M7.83366 10.6668H8.31699V10.1335C8.6281 10.0891 8.8921 9.96127 9.10899 9.75016C9.32588 9.53905 9.4341 9.26683 9.43366 8.9335C9.43366 8.64461 9.32255 8.40283 9.10033 8.20816C8.8781 8.0135 8.62255 7.85527 8.33366 7.7335V6.50016C8.44477 6.5335 8.53655 6.58905 8.60899 6.66683C8.68144 6.74461 8.7341 6.83905 8.76699 6.95016L9.36699 6.70016C9.28922 6.46683 9.15588 6.28083 8.96699 6.14216C8.7781 6.0035 8.56699 5.91172 8.33366 5.86683V5.3335H7.83366V5.85016C7.52255 5.8835 7.25855 5.9975 7.04166 6.19216C6.82477 6.38683 6.71655 6.64505 6.71699 6.96683C6.71699 7.26683 6.83099 7.51683 7.05899 7.71683C7.28699 7.91683 7.54522 8.07794 7.83366 8.20016V9.51683C7.65588 9.46127 7.50588 9.36683 7.38366 9.2335C7.26144 9.10016 7.1781 8.94461 7.13366 8.76683L6.55033 9.01683C6.63921 9.32794 6.79477 9.5835 7.01699 9.7835C7.23921 9.9835 7.51144 10.1057 7.83366 10.1502V10.6668ZM8.33366 9.50016V8.40016C8.45588 8.45572 8.56433 8.52239 8.65899 8.60016C8.75366 8.67794 8.80077 8.79461 8.80033 8.95016C8.80033 9.12794 8.75588 9.25305 8.66699 9.3255C8.5781 9.39794 8.46699 9.45616 8.33366 9.50016ZM7.83366 7.51683C7.71144 7.46127 7.60033 7.39461 7.50033 7.31683C7.40033 7.23905 7.35033 7.12239 7.35033 6.96683C7.35033 6.81127 7.40033 6.69727 7.50033 6.62483C7.60033 6.55239 7.71144 6.50527 7.83366 6.4835V7.51683ZM5.33366 12.6668C4.03366 12.6668 2.93077 12.2139 2.02499 11.3082C1.11921 10.4024 0.666548 9.29972 0.666993 8.00016C0.666993 6.70016 1.11988 5.59727 2.02566 4.6915C2.93144 3.78572 4.0341 3.33305 5.33366 3.3335H10.667C11.967 3.3335 13.0699 3.78639 13.9757 4.69216C14.8814 5.59794 15.3341 6.70061 15.3337 8.00016C15.3337 9.30016 14.8808 10.4031 13.975 11.3088C13.0692 12.2146 11.9665 12.6673 10.667 12.6668H5.33366ZM5.33366 11.3335H10.667C11.5892 11.3335 12.3754 11.0084 13.0257 10.3582C13.6759 9.70794 14.0008 8.92194 14.0003 8.00016C14.0003 7.07794 13.6752 6.29172 13.025 5.6415C12.3748 4.99127 11.5888 4.66639 10.667 4.66683H5.33366C4.41144 4.66683 3.62521 4.99194 2.97499 5.64216C2.32477 6.29239 1.99988 7.07839 2.00033 8.00016C2.00033 8.92239 2.32544 9.70861 2.97566 10.3588C3.62588 11.0091 4.41188 11.3339 5.33366 11.3335Z" fill="#8E8E8E"/>
</svg>
