<svg fill="none" height="16" viewBox="0 0 16 16" width="16" xmlns="http://www.w3.org/2000/svg"><path d="m5.33333 9.3335c-.18888 0-.34733-.064-.47533-.192s-.19178-.28623-.19133-.47467c0-.18889.064-.34733.192-.47533s.28622-.19178.47466-.19134c.18889 0 .34734.064.47534.192s.19178.28622.19133.47467c0 .18889-.064.34733-.192.47533s-.28622.19178-.47467.19134zm2.66667 0c-.18889 0-.34733-.064-.47533-.192s-.19178-.28623-.19134-.47467c0-.18889.06401-.34733.192-.47533.128-.128.28623-.19178.47467-.19134.18889 0 .34733.064.47534.192.12799.128.19177.28622.19133.47467 0 .18889-.064.34733-.192.47533s-.28622.19178-.47467.19134zm2.6667 0c-.1889 0-.3474-.064-.4754-.192s-.19174-.28623-.1913-.47467c0-.18889.064-.34733.192-.47533s.2862-.19178.4747-.19134c.1889 0 .3473.064.4753.192s.1918.28622.1913.47467c0 .18889-.064.34733-.192.47533s-.2862.19178-.4746.19134zm-7.33337 5.3333c-.36666 0-.68066-.1306-.942-.392-.26133-.2613-.39177-.5751-.39133-.9413v-9.33334c0-.36666.13067-.68066.392-.942.26133-.26133.57511-.39177.94133-.39133h.66667v-1.33333h1.33333v1.33333h5.33337v-1.33333h1.3333v1.33333h.6667c.3666 0 .6806.13067.942.392.2613.26133.3917.57511.3913.94133v9.33334c0 .3667-.1307.6807-.392.942s-.5751.3918-.9413.3913zm0-1.3333h9.33337v-6.66667h-9.33337z" fill="#fff"/></svg>