<svg fill="none" height="16" viewBox="0 0 16 16" width="16" xmlns="http://www.w3.org/2000/svg"><path d="m3.99984 12.6668h2v-3.99997h4v3.99997h1.99996v-5.99997l-3.99996-3-4 3zm0 1.3334c-.36667 0-.68067-.1307-.942-.392-.26134-.2614-.39178-.5751-.39133-.9414v-5.99997c0-.21111.04733-.41111.14199-.6.09467-.18889.22512-.34445.39134-.46667l4-3c.12222-.08889.25-.15555.38333-.2.13334-.04444.27222-.06666.41667-.06666.14444 0 .28333.02222.41667.06666.13333.04445.26111.11111.38333.2l3.99996 3c.1667.12222.2974.27778.392.46667.0947.18889.1418.38889.1414.6v5.99997c0 .3667-.1307.6807-.392.942-.2614.2614-.5751.3918-.9414.3914h-3.33329v-4h-1.33334v4z" fill="#8e8e8e"/></svg>