<svg fill="none" height="16" viewBox="0 0 16 16" width="16" xmlns="http://www.w3.org/2000/svg" xmlns:xlink="http://www.w3.org/1999/xlink"><clipPath id="a"><path d="m0 0h16v16h-16z"/></clipPath><g clip-path="url(#a)"><path d="m8 3.6665c.61884 0 1.21233.24584 1.64992.68342.43758.43759.68338 1.03108.68338 1.64992s-.2458 1.21233-.68338 1.64991c-.43759.43759-1.03108.68342-1.64992.68342s-1.21233-.24583-1.64992-.68342c-.43758-.43758-.68341-1.03107-.68341-1.64991s.24583-1.21233.68341-1.64992c.43759-.43758 1.03108-.68342 1.64992-.68342zm-4.66667 1.66667c.37334 0 .72.1 1.02.28-.1.95333.18 1.9.75334 2.64-.33334.64-1 1.08-1.77334 1.08-.53043 0-1.03914-.21071-1.41421-.58579-.37507-.37507-.58579-.88378-.58579-1.41421s.21072-1.03914.58579-1.41421c.37507-.37508.88378-.58579 1.41421-.58579zm9.33337 0c.5304 0 1.0391.21071 1.4142.58579.3751.37507.5858.88378.5858 1.41421s-.2107 1.03914-.5858 1.41421c-.3751.37508-.8838.58579-1.4142.58579-.7734 0-1.44-.44-1.7734-1.08.5813-.75039.8511-1.69587.7534-2.64.3-.18.6466-.28 1.02-.28zm-9.00003 6.83333c0-1.38 1.94-2.5 4.33333-2.5 2.3933 0 4.3333 1.12 4.3333 2.5v1.1667h-8.66663zm-3.66667 1.1667v-1c0-.9267 1.26-1.7067 2.96667-1.9334-.39334.4534-.63334 1.08-.63334 1.7667v1.1667zm16 0h-2.3333v-1.1667c0-.6867-.24-1.3133-.6334-1.7667 1.7067.2267 2.9667 1.0067 2.9667 1.9334z" fill="#fff"/></g></svg>