<svg height="15" viewBox="0 0 10 15" width="10" xmlns="http://www.w3.org/2000/svg"><path d="m2.536 4.015a2.735 2.735 0 0 1 2.464-2.937 2.735 2.735 0 0 1 2.464 2.937 2.735 2.735 0 0 1 -2.464 2.937 2.735 2.735 0 0 1 -2.464-2.937zm-.9 0c-.003 2.214 1.507 4.015 3.364 4.015s3.367-1.8 3.367-4.015-1.51-4.015-3.367-4.015-3.367 1.8-3.367 4.015zm2.725 10.974q.314.011.639.011c2.147 0 5-.286 5-2.752 0-2.768-3.764-2.768-5-2.768-2.147 0-5 .286-5 2.753a2.362 2.362 0 0 0 1.66 2.29.438.438 0 0 0 .573-.338.567.567 0 0 0 -.283-.685c-.939-.376-1.05-.9-1.05-1.267 0-1.112 1.379-1.676 4.1-1.676s4.1.569 4.1 1.691-1.382 1.674-4.1 1.674q-.311 0-.613-.01a.547.547 0 0 0 -.026 1.076z" fill="#00162a" opacity=".6"/></svg>