<svg width="16" height="16" viewBox="0 0 16 16" fill="none" xmlns="http://www.w3.org/2000/svg">
<path d="M7.99967 5.33317H2.66634C2.31272 5.33317 1.97358 5.47365 1.72353 5.7237C1.47348 5.97374 1.33301 6.31288 1.33301 6.6665V9.33317C1.33301 9.68679 1.47348 10.0259 1.72353 10.276C1.97358 10.526 2.31272 10.6665 2.66634 10.6665H3.33301V13.3332C3.33301 13.51 3.40325 13.6796 3.52827 13.8046C3.65329 13.9296 3.82286 13.9998 3.99967 13.9998H5.33301C5.50982 13.9998 5.67939 13.9296 5.80441 13.8046C5.92944 13.6796 5.99967 13.51 5.99967 13.3332V10.6665H7.99967L11.333 13.3332V2.6665L7.99967 5.33317ZM9.99967 10.3998L8.66634 9.33317H2.66634V6.6665H8.66634L9.99967 5.59984V10.3998ZM14.333 7.99984C14.333 9.13984 13.693 10.1732 12.6663 10.6665V5.33317C13.6863 5.83317 14.333 6.8665 14.333 7.99984Z" fill="#8E8E8E"/>
</svg>
