<svg width="16" height="16" viewBox="0 0 16 16" fill="none" xmlns="http://www.w3.org/2000/svg">
<path d="M1.33301 11.9998V6.6665C1.33301 6.29984 1.46368 5.98584 1.72501 5.7245C1.98634 5.46317 2.30012 5.33273 2.66634 5.33317H4.66634V3.99984C4.66634 3.63317 4.79701 3.31917 5.05834 3.05784C5.31968 2.7965 5.63345 2.66606 5.99968 2.66651H9.99968C10.3663 2.66651 10.6803 2.79717 10.9417 3.0585C11.203 3.31984 11.3335 3.63362 11.333 3.99984V5.33317H13.333C13.6997 5.33317 14.0137 5.46384 14.275 5.72517C14.5363 5.98651 14.6668 6.30028 14.6663 6.6665V11.9998C14.6663 12.3665 14.5357 12.6805 14.2743 12.9418C14.013 13.2032 13.6992 13.3336 13.333 13.3332H2.66634C2.29968 13.3332 1.98568 13.2025 1.72434 12.9412C1.46301 12.6798 1.33256 12.3661 1.33301 11.9998ZM2.66634 11.9998H13.333V9.99984H11.9997C11.9997 10.1887 11.9357 10.3472 11.8077 10.4752C11.6797 10.6032 11.5215 10.6669 11.333 10.6665C11.1441 10.6665 10.9857 10.6025 10.8577 10.4745C10.7297 10.3465 10.6659 10.1883 10.6663 9.99984H5.33301C5.33301 10.1887 5.26901 10.3472 5.14101 10.4752C5.01301 10.6032 4.85479 10.6669 4.66634 10.6665C4.47745 10.6665 4.31901 10.6025 4.19101 10.4745C4.06301 10.3465 3.99923 10.1883 3.99968 9.99984H2.66634V11.9998ZM2.66634 6.6665V8.6665H3.99968C3.99968 8.47762 4.06368 8.31917 4.19168 8.19117C4.31968 8.06317 4.4779 7.99939 4.66634 7.99984C4.85523 7.99984 5.01368 8.06384 5.14168 8.19184C5.26968 8.31984 5.33345 8.47806 5.33301 8.6665H10.6663C10.6663 8.47762 10.7303 8.31917 10.8583 8.19117C10.9863 8.06317 11.1446 7.99939 11.333 7.99984C11.5219 7.99984 11.6803 8.06384 11.8083 8.19184C11.9363 8.31984 12.0001 8.47806 11.9997 8.6665H13.333V6.6665H2.66634ZM5.99968 5.33317H9.99968V3.99984H5.99968V5.33317Z" fill="#8E8E8E"/>
</svg>
