<svg fill="none" height="16" viewBox="0 0 16 16" width="16" xmlns="http://www.w3.org/2000/svg"><path d="m9.86683 5.33317.79997.8-4.5333 4.53333-.8-.8zm-7.2-2.66667h10.66667c.74 0 1.3333.59334 1.3333 1.33334v2.66666c-.3536 0-.6927.14048-.9428.39053-.25.25005-.3905.58919-.3905.94281s.1405.69276.3905.94281c.2501.25004.5892.39052.9428.39052v2.66663c0 .74-.5933 1.3334-1.3333 1.3334h-10.66667c-.35362 0-.69276-.1405-.94281-.3906-.25005-.25-.39052-.5891-.39052-.9428v-2.66663c.74 0 1.33333-.59333 1.33333-1.33333 0-.35362-.14048-.69276-.39052-.94281-.25005-.25005-.58919-.39053-.94281-.39053v-2.66666c0-.35362.14047-.69276.39052-.94281s.58919-.39053.94281-.39053zm0 1.33334v1.69333c.40512.2336.74157.56977.9755.9747.23394.40493.3571.86432.3571 1.33197 0 .46764-.12316.92704-.3571 1.33196-.23393.40493-.57038.7411-.9755.9747v1.6933h10.66667v-1.6933c-.4051-.2336-.7416-.56977-.9755-.9747-.2339-.40492-.3571-.86432-.3571-1.33196 0-.46765.1232-.92704.3571-1.33197s.5704-.7411.9755-.9747v-1.69333zm3.66667 1.33333c.55333 0 1 .44667 1 1s-.44667 1-1 1c-.55334 0-1-.44667-1-1s.44666-1 1-1zm3.33333 3.33333c.55337 0 .99997.44667.99997 1 0 .5533-.4466 1-.99997 1-.55333 0-1-.4467-1-1 0-.55333.44667-1 1-1z" fill="#8e8e8e"/></svg>