<svg width="33" height="25" viewBox="0 0 33 25" fill="none" xmlns="http://www.w3.org/2000/svg">
<path d="M11.0252 21.5001V19.3501C10.1419 19.1501 9.3792 18.7667 8.7372 18.2001C8.0952 17.6334 7.62453 16.8334 7.3252 15.8001L9.1752 15.0501C9.4252 15.8501 9.7962 16.4584 10.2882 16.8751C10.7802 17.2917 11.4259 17.5001 12.2252 17.5001C12.9085 17.5001 13.4879 17.3457 13.9632 17.0371C14.4385 16.7284 14.6759 16.2494 14.6752 15.6001C14.6752 15.0167 14.4919 14.5544 14.1252 14.2131C13.7585 13.8717 12.9085 13.4841 11.5752 13.0501C10.1419 12.6001 9.15853 12.0624 8.6252 11.4371C8.09186 10.8117 7.8252 10.0494 7.8252 9.15006C7.8252 8.06673 8.1752 7.22506 8.8752 6.62506C9.5752 6.02506 10.2919 5.68339 11.0252 5.60006V3.50006H13.0252V5.60006C13.8585 5.73339 14.5462 6.03773 15.0882 6.51306C15.6302 6.98839 16.0259 7.56739 16.2752 8.25006L14.4252 9.05006C14.2252 8.51673 13.9419 8.11673 13.5752 7.85006C13.2085 7.58339 12.7085 7.45006 12.0752 7.45006C11.3419 7.45006 10.7835 7.61273 10.4002 7.93806C10.0169 8.26339 9.8252 8.66739 9.8252 9.15006C9.8252 9.70006 10.0752 10.1334 10.5752 10.4501C11.0752 10.7667 11.9419 11.1001 13.1752 11.4501C14.3252 11.7834 15.1962 12.3127 15.7882 13.0381C16.3802 13.7634 16.6759 14.6007 16.6752 15.5501C16.6752 16.7334 16.3252 17.6334 15.6252 18.2501C14.9252 18.8667 14.0585 19.2501 13.0252 19.4001V21.5001H11.0252Z" fill="#A83732"/>
<path d="M24.1145 13.837L21.6905 10.9282C21.3834 10.5596 21.6455 10 22.1253 10L26.3753 10C26.8552 10 27.1173 10.5596 26.8101 10.9282L24.3862 13.837C24.3155 13.9218 24.1852 13.9218 24.1145 13.837Z" fill="#A83732"/>
</svg>
