<svg fill="none" height="40" viewBox="0 0 40 40" width="40" xmlns="http://www.w3.org/2000/svg"><path d="m21.666 28.334h-3.3333v-6.6667h-6.6667v-3.3333h6.6667v-6.6667h3.3333v6.6667h6.6667v3.3333h-6.6667zm-1.6667 8.3333c2.3056 0 4.4723-.4378 6.5-1.3133 2.0278-.8756 3.7917-2.0628 5.2917-3.5617 1.5-1.5 2.6872-3.2639 3.5617-5.2916.8744-2.0278 1.3122-4.1945 1.3133-6.5 0-2.3056-.4378-4.4723-1.3133-6.5-.8756-2.0278-2.0628-3.79172-3.5617-5.29172-1.5-1.5-3.2639-2.68722-5.2917-3.56166-2.0277-.87445-4.1944-1.31222-6.5-1.31334-2.3055 0-4.4722.43778-6.5 1.31334-2.0277.87555-3.79162 2.06278-5.29162 3.56166-1.5 1.5-2.68777 3.26392-3.56333 5.29172-.87555 2.0277-1.31278 4.1944-1.31167 6.5 0 2.3055.43778 4.4722 1.31334 6.5.87555 2.0277 2.06277 3.7916 3.56166 5.2916 1.5 1.5 3.26392 2.6878 5.29162 3.5633 2.0278.8756 4.1945 1.3128 6.5 1.3117zm0-3.3333c-3.7222 0-6.8749-1.2917-9.4583-3.875-2.58332-2.5834-3.87498-5.7361-3.87498-9.4583 0-3.7223 1.29166-6.875 3.87498-9.4584 2.5834-2.58332 5.7361-3.87498 9.4583-3.87498 3.7223 0 6.875 1.29166 9.4584 3.87498 2.5833 2.5834 3.875 5.7361 3.875 9.4584 0 3.7222-1.2917 6.8749-3.875 9.4583-2.5834 2.5833-5.7361 3.875-9.4584 3.875z" fill="#fff"/></svg>